<svg width="36" height="36" viewBox="0 0 36 36" fill="none" xmlns="http://www.w3.org/2000/svg">
<path d="M36 18C36 27.941 27.941 36 18 36C8.06 36 0 27.941 0 18C0 8.06 8.06 0 18 0C27.941 0 36 8.06 36 18Z" fill="#FFCC4D"/>
<path d="M16.664 10.5429C16.457 10.4529 16.213 10.5129 16.072 10.6909C16.063 10.7029 15.093 11.8929 12.737 12.5349C11.962 12.7469 11.206 12.8539 10.492 12.8539C9.5 12.8539 8.933 12.6419 8.93 12.6409C8.72 12.5559 8.477 12.6269 8.343 12.8099C8.208 12.9939 8.215 13.2449 8.359 13.4219C8.43 13.5089 10.139 15.5689 12.484 15.5689C12.835 15.5689 13.186 15.5219 13.527 15.4289C16.381 14.6509 16.937 11.2209 16.959 11.0749C16.993 10.8519 16.872 10.6339 16.664 10.5429ZM27.639 12.6979C27.501 12.5169 27.259 12.4529 27.049 12.5389C27.043 12.5419 26.416 12.7949 25.312 12.7949C24.651 12.7949 23.954 12.7059 23.239 12.5299C20.87 11.9469 19.87 10.7809 19.862 10.7719C19.716 10.5959 19.474 10.5389 19.266 10.6349C19.059 10.7299 18.943 10.9529 18.983 11.1769C19.009 11.3219 19.651 14.7369 22.522 15.4439C22.833 15.5209 23.151 15.5599 23.468 15.5599C25.864 15.5599 27.567 13.3999 27.638 13.3079C27.776 13.1269 27.775 12.8779 27.639 12.6979ZM9.998 9.99987C9.55 9.99987 9.143 9.69687 9.029 9.24287C8.896 8.70787 9.22 8.16587 9.753 8.03087C9.789 8.02187 13.346 7.06987 15.105 3.55287C15.352 3.05887 15.951 2.85787 16.447 3.10587C16.941 3.35287 17.141 3.95387 16.894 4.44787C14.713 8.80887 10.423 9.92487 10.242 9.97087C10.161 9.99087 10.079 9.99987 9.998 9.99987ZM26 9.99987C25.92 9.99987 25.839 9.98987 25.758 9.96987C25.576 9.92487 21.286 8.80787 19.106 4.44687C18.859 3.95287 19.059 3.35187 19.553 3.10487C20.046 2.85787 20.647 3.05787 20.895 3.55187C22.653 7.06887 26.21 8.02087 26.247 8.02987C26.78 8.16687 27.104 8.71087 26.969 9.24487C26.853 9.69787 26.447 9.99987 26 9.99987ZM18 28.9649C14.377 28.9649 11.973 29.3869 9 29.9649C8.321 30.0959 7 29.9649 7 27.9649C7 23.9649 11.595 18.9649 18 18.9649C24.404 18.9649 29 23.9649 29 27.9649C29 29.9649 27.679 30.0969 27 29.9649C24.027 29.3869 21.623 28.9649 18 28.9649Z" fill="#664500"/>
<path d="M10 25C10 25 13 24 18 24C23 24 26 25 26 25C26 25 24 21 18 21C12 21 10 25 10 25Z" fill="white"/>
</svg>
