<svg width="36" height="36" viewBox="0 0 36 36" fill="none" xmlns="http://www.w3.org/2000/svg">
<path d="M36 18C36 27.941 27.941 36 18 36C8.06 36 0 27.941 0 18C0 8.06 8.06 0 18 0C27.941 0 36 8.06 36 18Z" fill="#FFCC4D"/>
<path d="M15.4568 15.8146C15.3968 15.6796 13.9578 12.5176 10.9998 12.5176C8.04282 12.5176 6.60282 15.6796 6.54282 15.8146C6.45082 16.0216 6.51082 16.2636 6.68682 16.4056C6.86382 16.5486 7.11382 16.5526 7.29682 16.4196C7.30982 16.4106 8.55882 15.5176 10.9998 15.5176C13.4258 15.5176 14.6738 16.3986 14.7018 16.4186C14.7898 16.4846 14.8948 16.5176 14.9998 16.5176C15.1098 16.5176 15.2208 16.4806 15.3108 16.4086C15.4898 16.2666 15.5488 16.0226 15.4568 15.8146Z" fill="#66471B"/>
<path d="M31 13.5C31 17.09 28.09 20 24.5 20C20.91 20 18 17.09 18 13.5C18 9.91 20.91 7 24.5 7C28.09 7 31 9.91 31 13.5Z" fill="#F5F8FA"/>
<path d="M24.5 16C25.8807 16 27 14.8807 27 13.5C27 12.1193 25.8807 11 24.5 11C23.1193 11 22 12.1193 22 13.5C22 14.8807 23.1193 16 24.5 16Z" fill="#292F33"/>
<path d="M7 21.2617C7 25.2257 11.596 30.2617 18 30.2617C24.404 30.2617 29 25.2617 29 21.2617C29 21.2617 18.667 24.0177 7 21.2617Z" fill="#66471B"/>
<path d="M18.545 23.6039L17.454 23.5989C14.238 23.5249 12 23.0029 12 23.0029V29.9639C12 32.9639 14 35.9639 18 35.9639C22 35.9639 24 32.9639 24 29.9639V23.0439C22.078 23.4379 20.213 23.5859 18.545 23.6039Z" fill="#E8596E"/>
<path d="M18.0001 31.8426C18.3011 31.8426 18.5451 31.5986 18.5451 31.2976V23.6036L17.4541 23.5986V31.2976C17.4551 31.5986 17.6991 31.8426 18.0001 31.8426Z" fill="#DD2F45"/>
</svg>
