<svg width="20" height="19" viewBox="0 0 20 19" fill="none" xmlns="http://www.w3.org/2000/svg">
<path d="M9 3L11 3L11 0L9 1.74846e-07L9 3Z" fill="#FFAC33"/>
<path d="M17 11L20 11L20 9L17 9L17 11Z" fill="#FFAC33"/>
<path d="M0 11L3 11L3 9L-1.74846e-07 9L0 11Z" fill="#FFAC33"/>
<path d="M4.69883 5.60562L6.10596 4.19849L3.98466 2.07719L2.57753 3.48432L4.69883 5.60562Z" fill="#FFAC33"/>
<path d="M15.2947 5.61276L17.416 3.49146L16.0089 2.08433L13.8876 4.20563L15.2947 5.61276Z" fill="#FFAC33"/>
<path d="M7 13.98L7 19L13 19L13 13.98C14.21 13.06 15 11.63 15 10C15 7.24 12.76 5 10 5C7.24 5 5 7.24 5 10C5 11.63 5.79 13.06 7 13.98ZM11 17L9 17L9 14.9C9.32 14.96 9.66 15 10 15C10.34 15 10.68 14.96 11 14.9L11 17ZM10 7C11.65 7 13 8.35 13 10C13 11.65 11.65 13 10 13C8.35 13 7 11.65 7 10C7 8.35 8.35 7 10 7Z" fill="#FFAC33"/>
</svg>
