<svg width="14" height="17" viewBox="0 0 14 17" fill="none" xmlns="http://www.w3.org/2000/svg">
<path d="M1.75 3C0.92155 3 0.25 3.675 0.25 4.5V15C0.25 15.825 0.92155 16.5 1.75 16.5H6.25H7.75H12.25C13.0787 16.5 13.75 15.825 13.75 15V4.5C13.75 3.675 13.0787 3 12.25 3H7.75H6.25H1.75Z" fill="#BDC3C7"/>
<path d="M1.75 2.25C0.92155 2.25 0.25 2.92155 0.25 3.75V14.25C0.25 15.0787 0.92155 15.75 1.75 15.75H6.25H7.75H12.25C13.0787 15.75 13.75 15.0787 13.75 14.25V3.75C13.75 2.92155 13.0787 2.25 12.25 2.25H7.75H6.25H1.75Z" fill="#ECF0F1"/>
<path d="M1.75 2.25C0.92155 2.25 0.25 2.925 0.25 3.75V6H13.75V3.75C13.75 2.925 13.0787 2.25 12.25 2.25H7.75H6.25H1.75Z" fill="#E74C3C"/>
<path d="M3.625 4.125C3.625 4.27274 3.5959 4.41903 3.53936 4.55552C3.48283 4.69201 3.39996 4.81603 3.2955 4.9205C3.19103 5.02496 3.06701 5.10783 2.93052 5.16436C2.79403 5.2209 2.64774 5.25 2.5 5.25C2.35226 5.25 2.20597 5.2209 2.06948 5.16436C1.93299 5.10783 1.80897 5.02496 1.7045 4.9205C1.60004 4.81603 1.51717 4.69201 1.46064 4.55552C1.4041 4.41903 1.375 4.27274 1.375 4.125C1.375 3.97726 1.4041 3.83097 1.46064 3.69448C1.51717 3.55799 1.60004 3.43397 1.7045 3.3295C1.80897 3.22504 1.93299 3.14217 2.06948 3.08564C2.20597 3.0291 2.35226 3 2.5 3C2.64774 3 2.79403 3.0291 2.93052 3.08564C3.06701 3.14217 3.19103 3.22504 3.2955 3.3295C3.39996 3.43397 3.48283 3.55799 3.53936 3.69448C3.5959 3.83097 3.625 3.97726 3.625 4.125Z" fill="#C0392B"/>
<path d="M2.5 0.75C2.08578 0.75 1.75 1.08578 1.75 1.5V3.75C1.75 4.16423 2.08578 4.5 2.5 4.5C2.91422 4.5 3.25 4.16423 3.25 3.75V1.5C3.25 1.08578 2.91422 0.75 2.5 0.75Z" fill="#BDC3C7"/>
<path d="M12.625 4.125C12.625 4.27274 12.5959 4.41903 12.5394 4.55552C12.4828 4.69201 12.4 4.81603 12.2955 4.9205C12.191 5.02496 12.067 5.10783 11.9305 5.16436C11.794 5.2209 11.6477 5.25 11.5 5.25C11.3523 5.25 11.206 5.2209 11.0695 5.16436C10.933 5.10783 10.809 5.02496 10.7045 4.9205C10.6 4.81603 10.5172 4.69201 10.4606 4.55552C10.4041 4.41903 10.375 4.27274 10.375 4.125C10.375 3.97726 10.4041 3.83097 10.4606 3.69448C10.5172 3.55799 10.6 3.43397 10.7045 3.3295C10.809 3.22504 10.933 3.14217 11.0695 3.08564C11.206 3.0291 11.3523 3 11.5 3C11.6477 3 11.794 3.0291 11.9305 3.08564C12.067 3.14217 12.191 3.22504 12.2955 3.3295C12.4 3.43397 12.4828 3.55799 12.5394 3.69448C12.5959 3.83097 12.625 3.97726 12.625 4.125Z" fill="#C0392B"/>
<path d="M11.5 0.75C11.086 0.75 10.75 1.05 10.75 1.5V3.75C10.75 4.125 11.086 4.5 11.5 4.5C11.914 4.5 12.25 4.125 12.25 3.75V1.5C12.25 1.05 11.914 0.75 11.5 0.75Z" fill="#BDC3C7"/>
<path d="M1.75 8.25V9.75H3.25V8.25H1.75ZM4 8.25V9.75H5.5V8.25H4ZM6.25 8.25V9.75H7.75V8.25H6.25ZM8.5 8.25V9.75H10V8.25H8.5ZM10.75 8.25V9.75H12.25V8.25H10.75Z" fill="#BDC3C7"/>
<path d="M1.75 10.5V12H3.25V10.5H1.75ZM4 10.5V12H5.5V10.5H4ZM6.25 10.5V12H7.75V10.5H6.25ZM8.5 10.5V12H10V10.5H8.5ZM10.75 10.5V12H12.25V10.5H10.75Z" fill="#BDC3C7"/>
<path d="M1.75 12.75V14.25H3.25V12.75H1.75ZM4 12.75V14.25H5.5V12.75H4ZM6.25 12.75V14.25H7.75V12.75H6.25ZM8.5 12.75V14.25H10V12.75H8.5ZM10.75 12.75V14.25H12.25V12.75H10.75Z" fill="#BDC3C7"/>
<path d="M13.75 6H0.25V6.75H13.75V6Z" fill="#C0392B"/>
</svg>
