<svg width="73" height="12" viewBox="0 0 73 12" fill="none" xmlns="http://www.w3.org/2000/svg">
<path d="M0 0.172607H0.0158972C0.038059 0.209948 0.0458632 0.254082 0.0378506 0.296758C0.0378506 0.846854 0.0378506 1.3967 0.0378506 1.94629C0.0378506 3.37906 0.0378506 4.81208 0.0378506 6.24536C0.0378506 6.29229 0.0507195 6.34301 0.0121119 6.38238H0.00605623H0V0.172607Z" fill="#C9C9C9"/>
<path d="M57.5668 0H57.9454C57.9465 0.00190793 57.9473 0.00404117 57.9476 0.00626069C57.9479 0.00848021 57.9477 0.0107356 57.947 0.0128795C57.9464 0.0150233 57.9453 0.0170071 57.9438 0.0187012C57.9424 0.0203953 57.9406 0.0217607 57.9385 0.0227094C57.8192 0.0446545 57.6968 0.0446545 57.5774 0.0227094C57.5752 0.022048 57.5731 0.020908 57.5712 0.0193642C57.5694 0.0178204 57.568 0.0159101 57.567 0.0137597C57.566 0.0116092 57.5655 0.00926893 57.5654 0.006896C57.5654 0.00452307 57.5659 0.00217156 57.5668 0Z" fill="#949494"/>
<path d="M57.9418 11.0379H57.5814C57.5795 11.0338 57.5791 11.0292 57.5803 11.0248C57.5816 11.0205 57.5844 11.0168 57.5882 11.0144C57.7031 10.9932 57.8209 10.9932 57.9357 11.0144C57.9396 11.0168 57.9424 11.0206 57.9435 11.0249C57.9446 11.0293 57.944 11.034 57.9418 11.0379Z" fill="#737373"/>
<path d="M57.567 0C57.5674 0.00402862 57.5674 0.00808384 57.567 0.0121125C57.5605 0.0189139 57.5527 0.0243269 57.544 0.0280252C57.5354 0.0317236 57.5261 0.0336298 57.5167 0.0336298C57.5072 0.0336298 57.4979 0.0317236 57.4893 0.0280252C57.4806 0.0243269 57.4728 0.0189139 57.4663 0.0121125C57.4667 0.00808384 57.4667 0.00402862 57.4663 0H57.567Z" fill="#CACACA"/>
<path d="M57.9434 0.0121125C57.9434 0.0075704 57.9434 0.00378506 57.9434 0H58.0448C58.0448 0.00378506 58.0448 0.0075704 58.0448 0.0121125C58.0383 0.0190325 58.0304 0.0245471 58.0217 0.0283163C58.013 0.0320856 58.0036 0.0340295 57.9941 0.0340295C57.9846 0.0340295 57.9752 0.0320856 57.9665 0.0283163C57.9577 0.0245471 57.9499 0.0190325 57.9434 0.0121125Z" fill="#C0C0C0"/>
<path d="M57.5804 11.0252C57.5804 11.0297 57.5804 11.0335 57.5804 11.0381H57.4812C57.48 11.0363 57.4792 11.0343 57.4788 11.0322C57.4784 11.0301 57.4784 11.028 57.4789 11.0259C57.4794 11.0238 57.4804 11.0219 57.4817 11.0202C57.483 11.0185 57.4846 11.0171 57.4865 11.0161C57.5009 11.0068 57.518 11.0026 57.535 11.0043C57.5521 11.0059 57.5681 11.0133 57.5804 11.0252Z" fill="#9E9E9E"/>
<path d="M57.9414 11.0381V11.026C57.9537 11.0137 57.9698 11.0061 57.987 11.0043C58.0042 11.0025 58.0215 11.0067 58.036 11.0161C58.0379 11.0171 58.0396 11.0185 58.0409 11.0202C58.0422 11.0219 58.0431 11.0238 58.0436 11.0259C58.0441 11.028 58.0442 11.0301 58.0438 11.0322C58.0434 11.0343 58.0425 11.0363 58.0413 11.0381H57.9414Z" fill="#9A9A9A"/>
<path d="M57.4813 11.0259C57.481 11.0299 57.481 11.034 57.4813 11.038H57.395C57.395 11.0335 57.395 11.0297 57.395 11.0259C57.4003 11.0196 57.4069 11.0145 57.4143 11.0109C57.4218 11.0074 57.4299 11.0056 57.4382 11.0056C57.4464 11.0056 57.4546 11.0074 57.462 11.0109C57.4695 11.0145 57.4761 11.0196 57.4813 11.0259Z" fill="#D1D1D1"/>
<path d="M58.043 11.0381V11.026C58.0483 11.0197 58.0549 11.0147 58.0624 11.0113C58.0698 11.0079 58.0779 11.0061 58.0861 11.0061C58.0943 11.0061 58.1024 11.0079 58.1099 11.0113C58.1173 11.0147 58.1239 11.0197 58.1293 11.026C58.1289 11.03 58.1289 11.0341 58.1293 11.0381H58.043Z" fill="#CFCFCF"/>
<path d="M0.012207 6.38399C0.012207 6.33402 0.012207 6.28406 0.012207 6.23258V0.227209C0.012207 0.210555 0.012207 0.1939 0.012207 0.177246H1.93729C1.97968 0.177246 1.98801 0.190873 1.98801 0.230238C1.98801 0.433874 1.98801 0.638267 1.98801 0.84266V6.21744C1.97588 6.70095 2.06056 7.182 2.23706 7.6323C2.57166 8.43398 3.17803 8.90938 4.02361 9.08273C4.55655 9.20116 5.11109 9.17925 5.63302 9.01915C6.37338 8.78447 6.84424 8.27425 7.10465 7.55357C7.2403 7.17051 7.30868 6.76688 7.30677 6.36052C7.31031 4.44275 7.31031 2.52651 7.30677 0.61177C7.30677 0.486863 7.30677 0.361958 7.30677 0.237051C7.30677 0.189359 7.31964 0.177247 7.36658 0.178004C7.98632 0.178004 8.60631 0.178004 9.22655 0.178004C9.27728 0.178004 9.28939 0.19163 9.28939 0.241593C9.28939 2.27568 9.28939 4.30977 9.28939 6.34311C9.29922 7.07581 9.15827 7.80271 8.8753 8.47864C8.35221 9.68986 7.43698 10.4385 6.1705 10.78C5.48512 10.9585 4.77252 11.008 4.06903 10.9261C3.33499 10.8597 2.62631 10.6242 1.99861 10.2379C1.08641 9.66563 0.510321 8.84352 0.216601 7.8155C0.088178 7.3489 0.0194978 6.86788 0.012207 6.38399Z" fill="white"/>
<path d="M58.1303 11.026H57.3938C56.6728 11.0011 55.9616 10.8518 55.2915 10.5846C53.8782 9.99871 52.9584 8.9563 52.4792 7.51647C52.2281 6.75043 52.1291 5.9427 52.1878 5.13869C52.2387 4.19087 52.5249 3.27067 53.0205 2.46114C53.7382 1.30291 54.77 0.568611 56.0819 0.215843C56.5351 0.0978024 56.9999 0.0295202 57.468 0.012207H58.0463C59.4332 0.0879082 60.6201 0.617816 61.6202 1.57316C61.6588 1.6095 61.6663 1.62843 61.6202 1.67006C61.2068 2.06522 60.7958 2.46341 60.3847 2.86009C60.359 2.88431 60.3431 2.91383 60.2999 2.87296C59.7449 2.35001 59.034 2.02322 58.2757 1.94259C57.5705 1.84519 56.8521 1.9377 56.1947 2.21057C55.2658 2.60573 54.6572 3.30445 54.3506 4.2545C53.9933 5.36201 54.0644 6.44983 54.6148 7.4824C55.0629 8.3242 55.7851 8.82534 56.7064 9.04033C57.742 9.28106 58.7375 9.17508 59.6777 8.66182C59.9422 8.51943 60.1857 8.3411 60.4014 8.13192C60.4339 8.10012 60.4513 8.09482 60.4854 8.13192C60.9118 8.56493 61.3408 8.99667 61.7723 9.42716C61.817 9.47183 61.7882 9.48848 61.761 9.51498C61.0968 10.1538 60.2787 10.6102 59.3862 10.8397C58.975 10.9444 58.5542 11.0068 58.1303 11.026Z" fill="white"/>
<path d="M25.697 6.41199C25.697 7.84577 25.697 9.27955 25.697 10.7133C25.697 10.7815 25.6773 10.7943 25.6137 10.7943C25.0036 10.7913 24.3932 10.7913 23.7825 10.7943C23.7114 10.7943 23.6977 10.7762 23.6977 10.708C23.6977 7.84047 23.6977 4.97291 23.6977 2.10535C23.6977 2.03646 23.6864 2.01375 23.6099 2.01375C22.5501 2.01375 21.4903 2.01375 20.4305 2.01829C20.3548 2.01829 20.3389 1.99482 20.3389 1.92291C20.3389 1.37559 20.3389 0.828271 20.3389 0.280194C20.3389 0.221904 20.3464 0.199951 20.4146 0.199951C23.267 0.199951 26.1197 0.199951 28.9726 0.199951C29.0407 0.199951 29.0483 0.221146 29.0483 0.28095C29.0483 0.833568 29.0483 1.38543 29.0483 1.93805C29.0483 1.99937 29.0354 2.01375 28.9726 2.01375C27.9052 2.01375 26.8378 2.01375 25.7712 2.01375C25.7038 2.01375 25.6902 2.03192 25.6902 2.09627C25.6962 3.53509 25.6985 4.97367 25.697 6.41199Z" fill="white"/>
<path d="M40.519 10.6868C40.5947 10.5497 40.6621 10.415 40.7333 10.281C41.3894 9.04403 42.0439 7.80758 42.697 6.57163C42.7061 6.54921 42.7223 6.53033 42.743 6.51779C42.7637 6.50524 42.7879 6.4997 42.812 6.50199C45.0664 6.50199 47.3205 6.50199 49.5744 6.50199C49.6008 6.499 49.6274 6.50479 49.6501 6.51848C49.6728 6.53217 49.6904 6.55299 49.7001 6.57769C50.3057 7.72986 50.9113 8.88178 51.5169 10.0335C51.6191 10.2288 51.7084 10.4301 51.8038 10.6285C51.8106 10.6428 51.8159 10.658 51.8258 10.6822C51.6968 10.6502 51.5703 10.6089 51.4473 10.5588C50.9325 10.3612 50.4412 10.1099 49.9385 9.88432C48.6819 9.31959 47.4245 8.75637 46.1664 8.19467C46.1494 8.18666 46.1307 8.18295 46.1119 8.18387C46.0932 8.1848 46.075 8.19033 46.0589 8.19997L43.3503 9.43162C42.435 9.84798 41.5206 10.2674 40.6 10.6739C40.5766 10.6822 40.5546 10.7019 40.519 10.6868Z" fill="#004D61"/>
<path d="M46.1624 6.16576H42.9973C42.9057 6.16576 42.9042 6.16576 42.9451 6.08552C43.2792 5.43348 43.6135 4.78194 43.9481 4.13091C44.0344 3.96286 44.1222 3.79631 44.2055 3.62674C44.2127 3.60817 44.226 3.59258 44.2432 3.58254C44.2603 3.5725 44.2804 3.5686 44.3001 3.57148C45.5331 3.57148 46.766 3.57148 47.9989 3.57148C48.0196 3.56903 48.0406 3.5734 48.0586 3.58391C48.0766 3.59443 48.0908 3.61053 48.0988 3.62977C48.3494 4.11199 48.603 4.59269 48.8558 5.07415L49.3858 6.07946C49.4304 6.16576 49.4312 6.16576 49.3305 6.16576H46.1624Z" fill="#5BD0D7"/>
<path d="M46.1139 0.0273438C46.7702 1.06521 47.2971 2.16969 47.8792 3.24616C47.8587 3.25762 47.8349 3.26163 47.8118 3.25751C46.7162 3.25751 45.6208 3.25751 44.5257 3.25751C44.4613 3.25751 44.45 3.2454 44.4825 3.18863C45.0215 2.14092 45.5595 1.09296 46.0965 0.0447559C46.1019 0.0385697 46.1077 0.0327521 46.1139 0.0273438Z" fill="#FF5130"/>
<path d="M72.4635 10.6633C72.4635 10.7057 72.4635 10.7481 72.4635 10.7905H71.1228C70.7761 10.7905 70.4302 10.7905 70.0842 10.7905C70.0609 10.792 70.0376 10.788 70.016 10.7789C69.9945 10.7699 69.9753 10.756 69.9601 10.7383C68.5112 9.20153 67.0617 7.6658 65.6118 6.13108L65.5929 6.11367C65.5732 6.13941 65.5823 6.16818 65.5823 6.19467C65.5823 7.69608 65.5823 9.19698 65.5823 10.6974C65.5823 10.7731 65.5671 10.792 65.4899 10.7912C64.8798 10.7882 64.2694 10.7882 63.6587 10.7912C63.5936 10.7912 63.583 10.7731 63.583 10.7155C63.583 7.23784 63.583 3.76038 63.583 0.283167C63.583 0.218064 63.5989 0.200654 63.6648 0.201411C64.2779 0.201411 64.8909 0.201411 65.5035 0.201411C65.5724 0.201411 65.5838 0.223363 65.5838 0.285438C65.5838 1.7172 65.5838 3.14846 65.5838 4.57921C65.5792 4.61002 65.5823 4.6415 65.5929 4.67081L65.8957 4.33243L69.5679 0.240019C69.5796 0.226924 69.5942 0.216746 69.6105 0.210303C69.6268 0.203861 69.6444 0.201332 69.6618 0.202924H72.0086C72.0297 0.202924 72.0608 0.187784 72.0729 0.215037C72.085 0.242289 72.0684 0.273326 72.0456 0.297551L71.3787 1.01596C70.064 2.43359 68.7486 3.85096 67.4324 5.26809C67.3878 5.31654 67.3825 5.34379 67.4324 5.39148C69.0978 7.13715 70.7648 8.88358 72.4332 10.6308C72.4453 10.6414 72.4544 10.6527 72.4635 10.6633Z" fill="white"/>
<path fill-rule="evenodd" clip-rule="evenodd" d="M36.7415 7.67012L36.1549 7.00925C36.3383 6.96873 36.5193 6.91767 36.6969 6.85633C37.575 6.55202 38.2154 5.99713 38.5591 5.12732C38.8176 4.47104 38.8896 3.75609 38.7673 3.06143C38.7028 2.62081 38.5486 2.19809 38.3143 1.81944C38.0799 1.44079 37.7703 1.11426 37.4047 0.860042C36.7733 0.411891 36.0557 0.217341 35.2919 0.171163C35.0789 0.160564 34.8655 0.164099 34.6523 0.167632C34.5457 0.169398 34.4392 0.171163 34.3327 0.171163L30.0579 0.163593C30.0559 0.163593 30.0539 0.163588 30.052 0.163583C30.0053 0.163469 29.9746 0.163394 29.9746 0.231723V10.6853C29.9746 10.7451 29.9958 10.7549 30.0503 10.7549C30.665 10.7519 31.2802 10.7519 31.8959 10.7549C31.9625 10.7549 31.9777 10.7375 31.9777 10.6717V7.29313C31.9777 7.23484 31.9913 7.21743 32.0534 7.21743H33.827C33.8503 7.21607 33.8736 7.22039 33.8948 7.23002C33.916 7.23965 33.9346 7.25429 33.9489 7.27269C34.9446 8.41477 35.9404 9.55735 36.9361 10.7004C36.9497 10.7179 36.9674 10.7318 36.9875 10.741C37.0077 10.7503 37.0298 10.7545 37.0519 10.7534H39.2866H39.3298C39.3472 10.7534 39.3563 10.7451 39.3563 10.7277C39.3605 10.6997 39.3591 10.6711 39.352 10.6437C39.345 10.6162 39.3326 10.5905 39.3154 10.568C38.4574 9.60252 37.5995 8.63657 36.7415 7.67012ZM31.9825 2.10458V3.72534C31.9825 3.83311 31.9825 3.94091 31.9825 4.0487C31.9827 4.47848 31.9828 4.90807 31.981 5.33475C31.981 5.39682 31.9916 5.41877 32.0612 5.41877H34.9946C35.1411 5.42083 35.2876 5.40994 35.4322 5.38622C35.9984 5.28705 36.4352 5.00242 36.6797 4.46645C36.8222 4.15154 36.8696 3.80185 36.816 3.46038C36.735 2.89868 36.4564 2.47551 35.9454 2.21737C35.6515 2.07739 35.3284 2.00965 35.0029 2.01979H32.062C31.9916 2.01979 31.9825 2.04326 31.9825 2.10458Z" fill="white"/>
<path fill-rule="evenodd" clip-rule="evenodd" d="M11.1187 0.286784V5.49503C11.1197 7.23161 11.1199 8.96921 11.1194 10.7078C11.1194 10.7699 11.13 10.7911 11.1989 10.7911C11.8116 10.7881 12.4245 10.7881 13.0377 10.7911C13.1066 10.7918 13.1179 10.7699 13.1179 10.7078V7.75546C13.1179 7.69566 13.1293 7.67976 13.1936 7.67976H16.1566C16.4978 7.68068 16.838 7.64181 17.1702 7.56394C18.3125 7.29066 19.1574 6.63963 19.6464 5.56467C20.0516 4.68728 20.1118 3.68956 19.8152 2.76978C19.69 2.33343 19.48 1.92605 19.1972 1.57092C18.9144 1.21579 18.5644 0.919877 18.1672 0.700112C17.5623 0.368076 16.8822 0.197073 16.1921 0.203513C15.0319 0.192417 13.8723 0.194967 12.7115 0.197519C12.2091 0.198623 11.7065 0.199729 11.2034 0.199729C11.1323 0.199729 11.1187 0.218653 11.1187 0.286784ZM13.1149 2.18233V3.9757C13.1149 4.15705 13.1154 4.33834 13.1159 4.5196C13.117 4.93379 13.1181 5.34783 13.1134 5.76224C13.1134 5.83113 13.1255 5.85309 13.2012 5.85309H16.0271C16.1494 5.85536 16.2718 5.85005 16.3935 5.83719C16.9105 5.77284 17.3451 5.55634 17.6547 5.12938C17.8104 4.91652 17.9204 4.67373 17.9777 4.4163C18.035 4.15886 18.0384 3.89235 17.9878 3.63353C17.9216 3.18453 17.6855 2.77807 17.3284 2.49801C16.9869 2.23242 16.5641 2.09284 16.1316 2.10285H13.1906C13.1285 2.10285 13.1149 2.12026 13.1149 2.18233Z" fill="white"/>
</svg>
