<svg width="295" height="155" viewBox="0 0 295 155" fill="none" xmlns="http://www.w3.org/2000/svg">
<g clip-path="url(#clip0_139_3677)">
<path d="M132.894 72.1491C132.482 68.0768 131.949 64.0288 131.331 60.0293C130.713 56.0298 130.022 51.8969 129.185 47.9095C128.773 45.9097 126.955 37.9713 126.47 35.9957C125.513 32.0326 124.507 28.0936 123.501 24.1426C123.452 23.9719 123.472 23.789 123.557 23.6331C123.641 23.4771 123.784 23.3605 123.953 23.3082C124.123 23.2559 124.306 23.2721 124.464 23.3533C124.622 23.4345 124.741 23.5743 124.797 23.7426C126.145 27.6247 127.294 31.5728 128.24 35.5715C128.725 37.5592 129.149 39.5711 129.549 41.6314C129.949 43.6918 130.288 45.6673 130.616 47.6913C131.27 51.7393 131.828 55.8116 132.228 59.8838C132.628 63.9561 132.906 68.0526 133.076 72.1491C133.076 72.1716 133.067 72.1932 133.051 72.2091C133.035 72.225 133.014 72.2339 132.991 72.2339L132.894 72.1491Z" fill="#CD9F52"/>
<path d="M145.1 63.5441C145.246 60.8777 145.488 58.1992 145.827 55.545C146.167 52.8908 146.639 50.2244 147.185 47.5944C147.713 44.9563 148.377 42.3471 149.173 39.7772C149.983 37.2074 150.951 34.6898 152.07 32.2386C152.148 32.0761 152.288 31.9509 152.457 31.8897C152.627 31.8286 152.814 31.8363 152.979 31.9114C153.131 31.9784 153.253 32.1002 153.321 32.2528C153.388 32.4053 153.396 32.5776 153.342 32.7356C152.542 35.2686 151.682 37.7774 150.918 40.3225C150.155 42.8677 149.33 45.3765 148.615 47.9338C147.9 50.491 147.294 53.0847 146.736 55.6904C146.179 58.2962 145.682 60.9262 145.294 63.5683C145.295 63.5803 145.292 63.5922 145.287 63.6031C145.282 63.614 145.275 63.6235 145.265 63.6307C145.255 63.6379 145.244 63.6426 145.232 63.6444C145.22 63.6462 145.208 63.645 145.197 63.641C145.171 63.641 145.147 63.6308 145.128 63.6126C145.11 63.5944 145.1 63.5698 145.1 63.5441Z" fill="#CD9F52"/>
<path d="M117.368 64.0288C115.697 59.7867 113.754 55.6573 111.549 51.6666C110.459 49.6789 109.246 47.7519 108.107 45.8006C106.968 43.8493 105.683 41.9465 104.568 39.9952C104.515 39.9228 104.477 39.8408 104.457 39.7538C104.436 39.6668 104.432 39.5765 104.446 39.4882C104.461 39.3998 104.492 39.3151 104.539 39.2389C104.585 39.1626 104.647 39.0964 104.719 39.0438C104.792 38.9913 104.874 38.9536 104.961 38.9328C105.048 38.9119 105.138 38.9085 105.226 38.9225C105.315 38.9366 105.399 38.9679 105.476 39.0147C105.552 39.0615 105.618 39.1229 105.671 39.1953C107.131 40.9909 108.463 42.8862 109.659 44.8674C110.848 46.8475 111.912 48.8997 112.846 51.0121C114.789 55.1883 116.358 59.5279 117.537 63.9803C117.55 63.9956 117.557 64.0149 117.557 64.0348C117.557 64.0548 117.55 64.0741 117.537 64.0894C117.524 64.1039 117.507 64.1143 117.489 64.1192C117.47 64.124 117.45 64.1231 117.432 64.1166C117.414 64.1101 117.398 64.0982 117.386 64.0826C117.375 64.0669 117.368 64.0482 117.368 64.0288Z" fill="#CD9F52"/>
<path d="M153.645 70.4038C154.742 66.9652 156.078 63.6078 157.645 60.3565C159.225 57.0972 161.027 53.9507 163.039 50.9394C164.057 49.4366 165.1 47.9458 166.215 46.5157C167.33 45.0856 168.506 43.6918 169.742 42.3586C172.2 39.6924 174.898 37.2582 177.802 35.0867C177.873 35.0323 177.953 34.9925 178.039 34.9697C178.125 34.947 178.215 34.9416 178.303 34.954C178.391 34.9665 178.476 34.9964 178.553 35.0421C178.629 35.0878 178.695 35.1483 178.748 35.22C178.85 35.3569 178.898 35.5268 178.882 35.6969C178.867 35.867 178.789 36.0253 178.663 36.1412C176.033 38.5651 173.487 40.9891 171.075 43.6312C168.653 46.2348 166.371 48.9656 164.239 51.812C162.115 54.6782 160.183 57.6824 158.457 60.8049C156.703 63.9318 155.156 67.1707 153.827 70.5008C153.819 70.5088 153.81 70.5152 153.799 70.5196C153.789 70.524 153.778 70.5262 153.767 70.5262C153.755 70.5262 153.744 70.524 153.734 70.5196C153.723 70.5152 153.714 70.5088 153.706 70.5008C153.686 70.4951 153.668 70.482 153.657 70.464C153.646 70.4461 153.642 70.4246 153.645 70.4038Z" fill="#CD9F52"/>
<path d="M114.749 79.2877C112.796 76.4365 110.654 73.7196 108.337 71.1554C106.05 68.5651 103.588 66.1353 100.967 63.8835C98.3401 61.6783 95.5968 59.615 92.7494 57.7024C89.9131 55.7632 86.9677 54.0664 83.9618 52.3575C83.8201 52.2682 83.7165 52.1297 83.6708 51.9686C83.6251 51.8075 83.6406 51.6352 83.7143 51.4848C83.7879 51.3344 83.9146 51.2166 84.07 51.154C84.2253 51.0914 84.3983 51.0884 84.5557 51.1456C87.769 52.5529 90.8483 54.2485 93.7555 56.2116C96.6666 58.1709 99.4039 60.3768 101.937 62.8048C104.484 65.1992 106.854 67.7754 109.028 70.513C111.189 73.2468 113.154 76.1305 114.907 79.1423C114.924 79.1603 114.933 79.1842 114.933 79.209C114.933 79.2337 114.924 79.2576 114.907 79.2756C114.907 79.2756 114.785 79.3241 114.749 79.2877Z" fill="#CD9F52"/>
<path d="M190.142 20.2643L188.736 25.8636L192.566 30.1904L186.796 30.6025L183.863 35.5716L181.693 30.2146L176.057 28.9542L180.493 25.2455L179.936 19.5007L184.833 22.5549L190.142 20.2643Z" fill="#CD9F52"/>
<path d="M129.864 19.7674L122.337 17.4646L116.18 22.3368L116.046 14.4831L109.501 10.12L116.943 7.57487L119.052 0L123.779 6.29017L131.646 5.96294L127.125 12.3985L129.864 19.7674Z" fill="#CD9F52"/>
<path d="M68.4108 39.7165L74.2289 41.2921L78.8227 37.4016L79.1258 43.413L84.2529 46.5884L78.6167 48.7215L77.1985 54.5875L73.4168 49.885L67.4048 50.3455L70.7017 45.3037L68.4108 39.7165Z" fill="#CD9F52"/>
<path d="M180.554 55.3875C180.554 54.6444 180.774 53.918 181.187 53.3002C181.6 52.6823 182.187 52.2007 182.873 51.9164C183.56 51.632 184.315 51.5576 185.044 51.7026C185.773 51.8475 186.443 52.2054 186.968 52.7308C187.494 53.2563 187.852 53.9257 187.997 54.6545C188.141 55.3833 188.067 56.1388 187.783 56.8253C187.498 57.5118 187.017 58.0986 186.399 58.5115C185.781 58.9243 185.054 59.1446 184.311 59.1446C183.315 59.1446 182.359 58.7488 181.654 58.0442C180.95 57.3396 180.554 56.384 180.554 55.3875Z" fill="#CD9F52"/>
<path d="M86.3862 70.4282C86.3862 69.9104 86.5398 69.4043 86.8275 68.9738C87.1152 68.5433 87.524 68.2077 88.0024 68.0096C88.4808 67.8114 89.0073 67.7596 89.5151 67.8606C90.023 67.9616 90.4895 68.2109 90.8557 68.5771C91.2218 68.9432 91.4712 69.4096 91.5722 69.9175C91.6732 70.4253 91.6214 70.9516 91.4232 71.43C91.225 71.9083 90.8895 72.3172 90.4589 72.6049C90.0284 72.8925 89.5222 73.0461 89.0044 73.0461C88.31 73.0461 87.6441 72.7702 87.1531 72.2793C86.6621 71.7884 86.3862 71.1225 86.3862 70.4282Z" fill="#CD9F52"/>
<path d="M0 114.568C0 113.825 0.220375 113.099 0.633254 112.481C1.04613 111.863 1.63297 111.382 2.31957 111.097C3.00616 110.813 3.76167 110.739 4.49055 110.883C5.21943 111.028 5.88895 111.386 6.41445 111.912C6.93995 112.437 7.29781 113.107 7.4428 113.835C7.58778 114.564 7.51337 115.32 7.22897 116.006C6.94458 116.693 6.46297 117.28 5.84505 117.692C5.22714 118.105 4.50066 118.326 3.7575 118.326C3.26406 118.326 2.77545 118.228 2.31957 118.04C1.86368 117.851 1.44946 117.574 1.10055 117.225C0.751632 116.876 0.474854 116.462 0.286022 116.006C0.0971904 115.55 0 115.062 0 114.568Z" fill="#CD9F52"/>
<path d="M216.238 53.7756C216.238 53.2573 216.392 52.7507 216.68 52.3199C216.968 51.8891 217.378 51.5536 217.857 51.3558C218.336 51.158 218.863 51.1069 219.371 51.2089C219.879 51.3109 220.346 51.5614 220.712 51.9288C221.077 52.2961 221.326 52.7637 221.425 53.2723C221.525 53.7809 221.471 54.3077 221.271 54.7858C221.071 55.2639 220.734 55.672 220.302 55.9581C219.87 56.2443 219.362 56.3958 218.844 56.3934C218.501 56.3934 218.161 56.3256 217.844 56.1939C217.527 56.0622 217.239 55.8692 216.997 55.6259C216.755 55.3827 216.563 55.094 216.433 54.7765C216.302 54.4589 216.236 54.1188 216.238 53.7756Z" fill="#CD9F52"/>
<path d="M159.572 118.047C159.572 117.529 159.726 117.022 160.014 116.591C160.303 116.16 160.712 115.825 161.191 115.627C161.67 115.429 162.197 115.378 162.706 115.48C163.214 115.582 163.68 115.833 164.046 116.2C164.412 116.567 164.66 117.035 164.76 117.544C164.859 118.052 164.806 118.579 164.606 119.057C164.406 119.535 164.068 119.943 163.636 120.229C163.204 120.516 162.697 120.667 162.178 120.665C161.835 120.665 161.495 120.597 161.178 120.465C160.861 120.333 160.573 120.14 160.331 119.897C160.089 119.654 159.897 119.365 159.767 119.048C159.637 118.73 159.571 118.39 159.572 118.047Z" fill="#CD9F52"/>
<path d="M10.1816 64.7924C11.6276 64.7924 12.7997 63.6203 12.7997 62.1745C12.7997 60.7287 11.6276 59.5566 10.1816 59.5566C8.73565 59.5566 7.56348 60.7287 7.56348 62.1745C7.56348 63.6203 8.73565 64.7924 10.1816 64.7924Z" fill="#CD9F52"/>
<path d="M289.776 120.871C289.776 120.352 289.93 119.846 290.218 119.415C290.506 118.984 290.916 118.649 291.395 118.451C291.874 118.253 292.401 118.202 292.909 118.304C293.417 118.406 293.884 118.657 294.25 119.024C294.615 119.391 294.864 119.859 294.963 120.368C295.063 120.876 295.009 121.403 294.809 121.881C294.609 122.359 294.272 122.767 293.84 123.053C293.408 123.34 292.9 123.491 292.382 123.489C291.69 123.485 291.027 123.208 290.538 122.718C290.05 122.227 289.776 121.563 289.776 120.871Z" fill="#CD9F52"/>
<path d="M190.845 136.978C192.291 136.978 193.463 135.806 193.463 134.36C193.463 132.914 192.291 131.742 190.845 131.742C189.399 131.742 188.227 132.914 188.227 134.36C188.227 135.806 189.399 136.978 190.845 136.978Z" fill="#CD9F52"/>
<path d="M257.413 131.924C257.413 131.406 257.567 130.9 257.854 130.47C258.142 130.039 258.551 129.704 259.029 129.505C259.508 129.307 260.034 129.255 260.542 129.356C261.05 129.457 261.516 129.707 261.882 130.073C262.249 130.439 262.498 130.905 262.599 131.413C262.7 131.921 262.648 132.447 262.45 132.926C262.252 133.404 261.916 133.813 261.486 134.101C261.055 134.388 260.549 134.542 260.031 134.542C259.337 134.542 258.671 134.266 258.18 133.775C257.689 133.284 257.413 132.618 257.413 131.924Z" fill="#CD9F52"/>
<path d="M28.2661 133.124C29.712 133.124 30.8842 131.952 30.8842 130.506C30.8842 129.06 29.712 127.888 28.2661 127.888C26.8201 127.888 25.6479 129.06 25.6479 130.506C25.6479 131.952 26.8201 133.124 28.2661 133.124Z" fill="#CD9F52"/>
<path d="M280.758 65.2287C282.204 65.2287 283.376 64.0566 283.376 62.6108C283.376 61.165 282.204 59.9929 280.758 59.9929C279.312 59.9929 278.14 61.165 278.14 62.6108C278.14 64.0566 279.312 65.2287 280.758 65.2287Z" fill="#CD9F52"/>
<path d="M56.2779 67.3011C56.2779 66.558 56.4982 65.8316 56.9111 65.2137C57.324 64.5959 57.9108 64.1143 58.5974 63.8299C59.284 63.5456 60.0395 63.4712 60.7684 63.6161C61.4973 63.7611 62.1668 64.1189 62.6923 64.6444C63.2178 65.1698 63.5757 65.8393 63.7207 66.5681C63.8656 67.2969 63.7912 68.0523 63.5068 68.7389C63.2224 69.4254 62.7408 70.0122 62.1229 70.425C61.505 70.8379 60.7785 71.0582 60.0353 71.0582C59.5415 71.0598 59.0521 70.9637 58.5955 70.7755C58.1389 70.5872 57.7241 70.3105 57.3748 69.9613C57.0256 69.6121 56.7489 69.1973 56.5606 68.7408C56.3723 68.2842 56.2763 67.7949 56.2779 67.3011Z" fill="#CD9F52"/>
<path d="M118.834 127.233C118.834 126.49 119.054 125.764 119.467 125.146C119.88 124.528 120.467 124.047 121.154 123.762C121.84 123.478 122.596 123.404 123.325 123.549C124.053 123.693 124.723 124.051 125.248 124.577C125.774 125.102 126.132 125.772 126.277 126.5C126.422 127.229 126.347 127.985 126.063 128.671C125.779 129.358 125.297 129.945 124.679 130.357C124.061 130.77 123.335 130.991 122.591 130.991C121.595 130.991 120.639 130.595 119.935 129.89C119.23 129.186 118.834 128.23 118.834 127.233Z" fill="#CD9F52"/>
<path d="M252.189 61.0837L252.456 65.6529L256.359 68.0284L252.104 69.6767L251.05 74.1367L248.153 70.5978L243.595 70.9735L246.068 67.1194L244.298 62.9017L248.722 64.0652L252.189 61.0837Z" fill="#CD9F52"/>
<path d="M61.3076 119.283L61.5743 123.852L65.4772 126.228L61.2228 127.888L60.1683 132.336L57.2713 128.797L52.7139 129.173L55.1865 125.331L53.4169 121.113L57.841 122.277L61.3076 119.283Z" fill="#CD9F52"/>
<path d="M222.929 116.653L225.983 120.059L230.528 119.477L228.225 123.428L230.189 127.561L225.716 126.603L222.383 129.742L221.923 125.198L217.898 123.004L222.08 121.15L222.929 116.653Z" fill="#CD9F52"/>
<path d="M289.133 101.818C288.636 102.049 287.485 102.57 287.364 103.721C287.326 104.144 287.412 104.569 287.613 104.944C287.813 105.318 288.118 105.626 288.491 105.83C289.076 106.104 289.744 106.143 290.358 105.939C291.022 105.88 291.639 105.568 292.079 105.066C292.422 104.577 292.584 103.984 292.535 103.388C292.486 102.793 292.23 102.233 291.812 101.806C290.891 101.018 289.618 101.6 289.133 101.818Z" fill="black"/>
<path d="M292.443 70.416C291.998 70.132 291.498 69.9443 290.976 69.865C290.454 69.7856 289.922 69.8165 289.412 69.9554C289.088 70.0076 288.777 70.1273 288.502 70.3068C288.226 70.4864 287.991 70.7217 287.812 70.9977C287.653 71.5731 287.6 72.1727 287.655 72.7672C287.655 73.4338 287.655 73.7731 287.655 74.3912C287.752 75.7002 288.515 92.4013 288.576 97.031C288.576 97.4794 288.576 98.6793 289.388 99.1883C289.665 99.3578 289.984 99.446 290.309 99.4428C290.791 99.4493 291.257 99.2765 291.618 98.9581C291.806 98.7527 291.949 98.5115 292.041 98.249C292.133 97.9866 292.17 97.7083 292.152 97.431C292.152 92.8739 292.503 88.2563 292.867 83.7841C293.109 80.9238 293.352 77.9787 293.485 75.07V74.9245C293.655 73.252 293.655 71.3492 292.443 70.416Z" fill="black"/>
<path d="M224.25 82.0874C224.44 82.1588 224.641 82.1957 224.844 82.1965C225.401 82.1824 225.936 81.977 226.359 81.6148C226.648 81.2861 226.867 80.901 227 80.4839C227.134 80.0667 227.179 79.6265 227.135 79.1908C227.219 77.6274 227.304 76.1609 226.298 75.5549C225.779 75.3296 225.201 75.2787 224.65 75.4098C224.099 75.5409 223.606 75.847 223.244 76.2821C222.967 76.6867 222.779 77.1457 222.694 77.6284C222.608 78.1111 222.626 78.6065 222.747 79.0817C222.856 79.9665 223.038 81.6511 224.25 82.0874Z" fill="black"/>
<path d="M280.71 100.582C278.625 98.752 276.467 96.8614 275.691 93.6133C275.346 92.4147 275.41 91.1354 275.873 89.9773C276.794 87.9291 279.34 86.3414 280.722 86.9474C281.696 87.3284 282.498 88.0526 282.976 88.9835C283.05 89.1352 283.179 89.2526 283.337 89.3113C283.495 89.37 283.67 89.3655 283.825 89.2986C283.998 89.2377 284.142 89.1147 284.229 88.9534C284.316 88.7921 284.341 88.6042 284.297 88.426C284.146 87.6296 283.836 86.8718 283.386 86.1973C282.937 85.5228 282.356 84.9453 281.679 84.4992C279.255 83.166 275.522 83.9901 273.195 86.3656C271.628 88.1936 270.825 90.5546 270.952 92.9588C270.933 93.2372 270.933 93.5166 270.952 93.795C271.212 95.6041 272.011 97.2932 273.243 98.643C273.388 98.8126 273.558 98.9823 273.716 99.152C272.433 101.014 270.698 102.52 268.673 103.527C268.092 103.782 267.789 103.83 267.534 103.721C266.601 103.321 266.783 100.897 267.073 96.8856C267.073 96.2554 267.17 95.5645 267.231 94.8495C267.74 87.3231 267.546 85.1536 266.261 84.4022C265.834 84.2192 265.374 84.1248 264.91 84.1248C264.445 84.1248 263.985 84.2192 263.558 84.4022C261.777 84.9112 260.128 86.4868 256.637 93.1285C256.637 92.9345 256.637 92.7649 256.637 92.5588C256.637 92.3528 256.637 92.0377 256.637 91.7468C256.819 88.0018 256.904 84.6204 255.789 84.3537C255.414 84.3084 255.036 84.3084 254.662 84.3537C254.106 84.3478 253.556 84.4636 253.049 84.6931C252.262 85.2021 252.334 86.4141 252.359 86.8262C252.456 88.5108 252.359 90.2197 252.359 91.8801C252.359 92.0862 252.359 92.3043 252.359 92.5104C252.003 92.717 251.63 92.8914 251.243 93.0315C250.68 93.2458 250.095 93.3963 249.498 93.4799C248.783 88.4502 246.177 84.6204 243.122 84.1477C242.312 83.9959 241.479 84.0111 240.674 84.1924C239.87 84.3737 239.111 84.7173 238.444 85.2021L237.438 86.4141C236.049 86.9191 234.809 87.7638 233.831 88.871C232.853 89.9782 232.168 91.3127 231.838 92.7527C231.193 95.0092 231.151 97.3954 231.717 99.6731C231.001 100.574 230.219 101.421 229.377 102.206C227.595 103.818 227.05 103.794 226.953 103.733C226.589 103.588 226.214 102.945 226.286 99.1762C226.286 97.0068 226.48 95.5403 226.662 93.7223C226.723 93.1406 226.783 92.5104 226.844 91.8559C227.438 85.5051 226.977 84.6931 226.371 84.3416C225.838 84.1472 225.259 84.1184 224.71 84.259C224.16 84.3995 223.666 84.703 223.293 85.1294C222.806 85.6933 222.532 86.409 222.517 87.1534C222.226 90.7893 222.141 94.098 222.117 96.2311C221.181 97.6433 220.065 98.9268 218.796 100.049C217.584 101.103 215.402 103.055 214.19 102.473C213.244 101.988 213.244 100.049 213.244 99.2611C213.244 93.6011 213.317 89.1895 213.39 85.7839L214.929 85.7112C218.941 85.5051 220.153 85.4445 220.699 84.4022C220.917 83.9984 221.003 83.5356 220.942 83.0804C220.881 82.6252 220.677 82.2011 220.359 81.8692C219.765 81.4086 218.905 81.6995 217.935 82.0025L217.559 82.1358C216.192 82.5573 214.8 82.8892 213.39 83.1296C213.547 77.5545 213.717 75.5911 213.717 75.5669C213.802 74.7185 213.887 72.7187 213.002 72.3551C212.699 72.2339 212.238 72.3551 211.208 72.646C210.815 72.7254 210.436 72.8601 210.081 73.046C209.766 73.3598 209.527 73.7412 209.382 74.1613C209.237 74.5813 209.19 75.0289 209.244 75.4699C209.244 76.9364 209.184 80.3906 209.099 83.772C208.153 83.8689 207.39 83.9174 206.929 83.9295C206.469 83.9417 205.717 83.9295 205.45 84.4628C205.398 84.5812 205.371 84.7092 205.371 84.8385C205.371 84.9679 205.398 85.0958 205.45 85.2142C205.693 85.8445 206.796 86.0263 208.456 86.0263H209.026C209.026 86.8019 208.723 93.3951 208.699 95.3585C208.699 96.2554 208.699 97.5885 208.699 99.2247C208.19 99.6368 207.669 100.049 207.147 100.437C204.287 102.57 203.584 102.667 203.281 102.521C202.541 102.158 202.663 100.376 202.772 98.7763C203.366 90.0016 203.644 85.0082 202.202 84.4871C201.637 84.3849 201.055 84.4181 200.505 84.584C200.025 84.6506 199.571 84.8383 199.184 85.1294C198.938 85.387 198.773 85.7117 198.711 86.0626C197.588 85.063 196.182 84.4364 194.687 84.2689H194.263C190.917 84.2689 188.663 86.8141 187.911 87.6624C186.573 89.3308 185.613 91.2701 185.098 93.346C184.584 95.4219 184.526 97.5849 184.93 99.6853C184.93 99.8307 184.99 99.9761 185.027 100.122C181.718 103.758 180.396 104.182 179.863 103.891C179.754 103.83 179.499 103.697 179.306 101.661C179.13 99.9119 179.13 98.1497 179.306 96.4008C182.305 92.3771 184.503 87.8139 185.778 82.96C187.487 76.2698 186.239 73.2641 185.342 72.0521C184.816 71.2881 184.053 70.7177 183.172 70.4281C181.196 69.8585 179.245 71.2765 178.603 71.7491C176.76 73.0944 174.966 76.1123 174.966 96.5584C174.966 97.3583 174.966 98.3036 174.966 99.2732C174.172 100.295 173.3 101.256 172.36 102.146C172.033 102.449 171.354 103.091 170.906 102.921C170.457 102.752 170.336 101.237 170.336 100.752C170.336 99.3823 170.433 97.2734 170.542 95.0434C170.778 91.7481 170.822 88.4419 170.675 85.1415C170.65 84.7144 170.459 84.3142 170.142 84.0265C169.917 83.8791 169.664 83.7803 169.399 83.7365C169.134 83.6927 168.863 83.7048 168.603 83.772C168.198 83.8413 167.811 83.9946 167.469 84.2222C167.127 84.4497 166.836 84.7463 166.615 85.093C166.375 85.5899 166.295 86.1486 166.385 86.6929C166.385 87.3594 166.385 90.4379 166.385 96.619C166.385 97.3098 166.385 97.8309 166.385 98.1824C165.554 99.3535 164.562 100.402 163.439 101.297C162.676 101.891 160.336 103.721 159.367 103.067C158.857 102.715 158.894 101.346 159.003 98.5702C159.185 94.3283 159.318 89.6743 159.488 86.7413C159.488 85.8808 159.633 84.4265 158.821 83.978C158.009 83.5296 157.124 84.1113 156.603 84.5477C156 85.1034 155.603 85.8466 155.476 86.6565C155.056 89.4001 154.842 92.171 154.833 94.9464C154.833 95.4555 154.833 95.9766 154.833 96.4978C153.948 97.7638 152.919 98.923 151.767 99.9519C150.555 101.006 148.361 102.958 147.149 102.376C146.203 101.891 146.203 99.9519 146.203 99.1641C146.203 93.5042 146.288 89.0926 146.349 85.6869L147.888 85.6142C151.9 85.4082 153.112 85.3476 153.67 84.3053C153.887 83.9002 153.97 83.4367 153.907 82.9814C153.844 82.5262 153.638 82.1028 153.318 81.7722C152.724 81.3117 151.864 81.6025 150.894 81.9055L150.518 82.0389C149.156 82.4604 147.767 82.7924 146.361 83.0327C146.506 77.4576 146.676 75.4942 146.688 75.4699C146.761 74.6215 146.846 72.6218 145.961 72.2582C145.658 72.137 145.197 72.2582 144.179 72.5491C143.782 72.6269 143.398 72.7616 143.04 72.949C142.726 73.2634 142.487 73.6449 142.342 74.0648C142.198 74.4847 142.15 74.932 142.203 75.373C142.203 76.8395 142.203 80.2936 142.058 83.675C141.125 83.772 140.349 83.8205 139.9 83.8326C139.452 83.8447 138.688 83.8326 138.409 84.3659C138.36 84.485 138.335 84.6126 138.335 84.7416C138.335 84.8705 138.36 84.9982 138.409 85.1173C138.652 85.7475 139.755 85.9293 141.415 85.9293H141.985C141.985 87.1413 141.815 91.2862 141.767 92.2195C141.767 93.7466 141.561 96.4856 141.694 99.1278C141.185 99.5398 140.664 99.9519 140.143 100.34C137.282 102.473 136.579 102.57 136.276 102.424C135.537 102.061 135.658 100.279 135.767 98.6793C136.373 89.9046 136.64 84.9112 135.197 84.3901C134.632 84.2879 134.05 84.3211 133.5 84.4871C133.02 84.551 132.565 84.7389 132.179 85.0324C131.933 85.2901 131.769 85.6148 131.707 85.9657C130.548 84.9851 129.111 84.3918 127.598 84.2689C123.961 84.0386 121.537 86.6929 120.798 87.6503C119.461 89.3199 118.503 91.2592 117.988 93.3348C117.473 95.4103 117.415 97.5727 117.816 99.6731C117.816 99.9155 117.913 100.158 117.973 100.388C115.404 103.43 114.495 103.733 114.167 103.564C113.84 103.394 113.937 102.352 114.167 99.0793V98.6187C114.592 93.0436 114.664 91.565 113.731 91.056C113.541 90.9696 113.334 90.9249 113.125 90.9249C112.916 90.9249 112.709 90.9696 112.519 91.056C111.929 91.2219 111.324 91.3275 110.713 91.3711C109.78 91.4358 108.843 91.3788 107.925 91.2014C108.859 89.9894 110.604 87.214 109.974 85.3839C109.906 85.1878 109.808 85.0037 109.683 84.8385C108.725 83.6265 106.192 83.6265 104.665 84.8385C104.109 85.3037 103.69 85.9111 103.453 86.5959C103.124 87.4672 103.008 88.4042 103.113 89.3294C103.218 90.2546 103.543 91.1414 104.059 91.9165C104.293 92.25 104.566 92.555 104.871 92.8255C103.307 94.8373 101.768 96.825 100.325 98.7399C100.507 95.3343 100.725 91.2984 100.98 86.6201C100.98 86.1475 101.089 84.681 100.337 84.3053C100.073 84.2261 99.7903 84.2261 99.5254 84.3053C98.7699 84.3169 98.0452 84.6059 97.4891 85.1173C97.2176 85.4625 97.0722 85.8901 97.0769 86.3293C95.9108 85.1844 94.3971 84.4596 92.774 84.2689C89.1377 84.0265 86.7135 86.8019 85.962 87.723C84.6143 89.441 83.6517 91.4285 83.1393 93.5509C82.627 95.6734 82.5768 97.8811 82.9924 100.025L83.0651 100.352C81.9614 101.646 80.5988 102.695 79.0652 103.43C78.4834 103.685 78.1925 103.745 77.9258 103.624C77.0046 103.224 77.1864 100.812 77.4773 96.8008C77.4773 96.1584 77.5743 95.4797 77.6228 94.7525C78.1319 87.2261 77.9379 85.0567 76.6531 84.3053C76.2261 84.1222 75.7663 84.0278 75.3016 84.0278C74.837 84.0278 74.3772 84.1222 73.9501 84.3053C72.1684 84.8143 70.5199 86.3899 67.0291 93.0315C67.0291 92.7164 67.0291 92.2316 67.0291 91.6498C67.2594 84.9355 66.52 84.378 66.1927 84.2568C65.8143 84.2113 65.4318 84.2113 65.0534 84.2568C64.4978 84.2528 63.948 84.3685 63.4413 84.5961C62.6655 85.1052 62.7261 86.3171 62.7504 86.7292C62.8473 88.4017 62.7504 90.1228 62.7504 91.771C62.7504 91.965 62.7504 92.171 62.7504 92.377C62.7504 92.5831 62.4837 92.5467 62.3383 92.6073C61.5684 92.9624 60.7523 93.2073 59.9141 93.3345C59.6274 91.0654 58.8319 88.8903 57.5868 86.9716C56.6751 85.4977 55.2215 84.4403 53.5384 84.0265C52.7167 83.8524 51.8668 83.8598 51.0482 84.0482C50.2296 84.2366 49.4621 84.6015 48.7991 85.1173C48.4053 85.4593 48.0768 85.87 47.8295 86.3293C46.4071 86.8252 45.1344 87.6752 44.1313 88.799C43.1283 89.9228 42.4279 91.2835 42.0962 92.7527C41.7641 93.9364 41.5929 95.1594 41.5872 96.3887C39.3717 99.4541 36.0904 101.581 32.3874 102.352C27.6723 103.261 24.6421 102.037 22.9209 100.849C16.4604 96.4008 17.3331 85.3354 20.4967 79.0331C22.2596 75.6529 25.0298 72.9041 28.4238 71.1674C29.6359 70.5735 32.6904 69.3252 34.7509 70.6463C36.6176 71.8582 37.9509 75.1063 36.7994 77.0697C36.662 77.2871 36.5707 77.5303 36.5311 77.7843C36.4915 78.0384 36.5045 78.2978 36.5693 78.5466C36.6341 78.7954 36.7492 79.0283 36.9076 79.2308C37.0661 79.4334 37.2644 79.6012 37.4903 79.724C37.6966 79.8666 37.9301 79.965 38.1762 80.013C38.4224 80.061 38.6758 80.0576 38.9205 80.003C39.1653 79.9483 39.3961 79.8437 39.5984 79.6955C39.8008 79.5474 39.9703 79.359 40.0963 79.1422C41.6841 76.6213 42.0962 74.2943 41.3084 72.3188C40.9439 71.4024 40.3857 70.5756 39.6721 69.8948C37.8659 68.2259 35.5126 67.2735 33.054 67.2163C30.2002 67.0814 27.3703 67.7941 24.9208 69.2646C21.3024 71.373 18.3098 74.4058 16.2501 78.052C14.1904 81.6982 13.1377 85.8265 13.1999 90.0137C13.4544 97.0916 15.9877 102.424 20.3512 104.994C22.402 106.19 24.741 106.802 27.1147 106.763C27.8811 106.763 28.6465 106.711 29.4056 106.606C35.3328 105.83 39.4175 101.879 41.8175 98.6914C42.1114 100.682 42.9504 102.553 44.2417 104.097C44.95 104.881 45.819 105.504 46.7895 105.922C47.76 106.34 48.8092 106.544 49.8658 106.521C51.6854 106.512 53.4629 105.973 54.9808 104.969C56.4581 103.892 57.6762 102.498 58.5464 100.89C59.4166 99.2817 59.917 97.4997 60.011 95.6736C60.9651 95.4804 61.8872 95.154 62.7504 94.704C62.7504 94.801 62.7504 94.8979 62.7504 94.9949C62.7504 96.7644 62.811 98.6308 62.8716 100.303C62.8716 101.818 62.9685 103.382 62.9807 104.921C62.9537 105.177 62.9879 105.436 63.0807 105.676C63.1734 105.916 63.3219 106.131 63.514 106.303C63.734 106.433 63.9856 106.5 64.2412 106.497C64.777 106.465 65.3008 106.325 65.7806 106.085C67.2715 105.26 67.1988 103.309 66.9927 99.758C66.9927 98.9581 66.9927 98.0491 66.9079 97.0916C68.12 95.1646 69.4775 93.2618 70.835 91.4196C71.8047 90.0985 72.7138 88.9108 73.1017 88.9108C73.4895 88.9108 73.3562 90.4015 73.1865 92.2801C73.0168 94.1586 72.7986 96.4614 72.7744 99.5519C72.7744 103.042 72.9926 105.115 74.4592 106.121C75.0804 106.518 75.8074 106.716 76.544 106.691H76.7016C79.3682 106.691 81.853 104.654 83.6469 102.679C84.1756 104.11 85.1647 105.325 86.459 106.133C87.3708 106.596 88.3819 106.829 89.4044 106.812C90.2936 106.815 91.1763 106.659 92.0104 106.351C93.9982 105.624 95.0406 104.182 96.2527 102.509C96.3739 102.352 96.4709 102.17 96.58 102.012L96.5072 103.976C92.871 108.908 89.9013 113.187 87.9499 116.314C86.9559 117.889 84.8954 121.162 85.9499 124.422C86.3611 125.578 87.0623 126.608 87.9862 127.415C89.0424 128.362 90.4228 128.866 91.8407 128.821C93.2695 128.83 94.6677 128.408 95.8527 127.609C96.5208 127.119 97.0852 126.501 97.5133 125.791C98.6512 123.93 99.255 121.792 99.2587 119.61C99.5242 117.414 99.6577 115.205 99.6587 112.993C99.6587 111.999 99.792 108.557 100.119 102.327C102.059 99.4914 104.059 96.6674 106.071 93.8435C107.515 94.5789 109.173 94.7765 110.749 94.401C110.543 96.6796 110.337 99.0793 110.143 101.515C110.022 103.018 109.889 104.873 110.955 105.648C111.483 105.96 112.077 106.143 112.689 106.181C112.689 106.181 114.034 106.097 114.301 106.048C115.804 105.794 118.24 102.933 118.337 102.812L118.567 102.533C119.105 103.868 120.062 104.991 121.295 105.733C122.206 106.196 123.218 106.429 124.24 106.412C125.129 106.409 126.01 106.254 126.846 105.951C128.622 105.173 130.107 103.854 131.088 102.182L131.319 101.83C131.319 104.182 131.464 105.624 132.531 106.266C132.88 106.468 133.279 106.569 133.682 106.557C134.299 106.529 134.908 106.406 135.488 106.194C137.306 105.612 138.349 104.521 140.337 102.364L141.621 101.018C141.715 101.989 141.906 102.947 142.191 103.879C142.41 104.641 142.885 105.305 143.537 105.757C144.042 106.058 144.622 106.209 145.209 106.194C145.946 106.166 146.674 106.023 147.367 105.769C149.303 105.026 151 103.769 152.276 102.133C153.027 101.297 153.755 100.412 154.445 99.5156C154.445 101.843 154.555 104.109 155.33 105.115C155.49 105.318 155.673 105.501 155.876 105.66H155.985C156.73 105.936 157.518 106.079 158.312 106.085H158.954C161.597 105.818 163.306 103.939 165.124 101.952C165.463 101.576 165.791 101.188 166.118 100.74C166.118 104.194 166.372 105.212 167.209 105.745C167.692 106.028 168.253 106.147 168.809 106.085C169.084 106.08 169.36 106.06 169.633 106.024C170.973 105.773 172.185 105.067 173.063 104.024C173.803 103.285 174.53 102.473 175.233 101.6C175.548 103.588 176.203 105.357 177.657 105.988C178.039 106.154 178.452 106.237 178.869 106.23H178.978C181.73 106.23 184.105 103.806 185.548 101.806C186.058 103.379 187.11 104.719 188.517 105.588C189.429 106.052 190.44 106.285 191.463 106.266C192.352 106.264 193.233 106.108 194.069 105.806C195.841 105.027 197.322 103.708 198.299 102.037C198.384 101.927 198.457 101.806 198.542 101.685C198.602 104.036 198.675 105.479 199.754 106.121C200.102 106.324 200.502 106.425 200.905 106.412C201.518 106.382 202.123 106.259 202.699 106.048C204.529 105.466 205.56 104.376 207.62 102.218L208.905 100.873C208.999 101.843 209.189 102.801 209.475 103.733C209.693 104.496 210.169 105.159 210.82 105.612C211.307 105.917 211.869 106.081 212.444 106.085C213.181 106.057 213.909 105.914 214.602 105.66C216.536 104.913 218.233 103.657 219.511 102.024C220.383 101.055 221.232 100.013 222.032 98.946C222.032 99.5398 222.032 100.085 222.032 100.594C222.032 103.685 222.105 105.091 223.244 105.757C223.74 106.019 224.296 106.144 224.856 106.121C225.3 106.117 225.743 106.068 226.177 105.975C227.15 105.748 228.055 105.296 228.82 104.654C230.08 103.638 231.2 102.46 232.153 101.152C232.56 102.19 233.138 103.152 233.862 104C234.564 104.785 235.428 105.409 236.395 105.828C237.362 106.246 238.409 106.45 239.462 106.424C241.273 106.412 243.042 105.873 244.553 104.873C246.027 103.795 247.242 102.403 248.11 100.797C248.978 99.1913 249.477 97.4119 249.571 95.5888C250.539 95.3928 251.474 95.058 252.346 94.595C252.346 94.7161 252.346 94.8252 252.346 94.9343C252.346 96.7038 252.346 98.4975 252.456 100.243C252.456 101.758 252.553 103.321 252.565 104.86C252.54 105.117 252.577 105.377 252.672 105.617C252.766 105.857 252.917 106.071 253.11 106.242C253.329 106.375 253.581 106.443 253.837 106.436C254.41 106.397 254.968 106.236 255.474 105.963C256.952 105.139 256.88 103.188 256.686 99.6368C256.686 98.8369 256.613 97.9279 256.601 96.9704C257.813 95.0434 259.158 93.1406 260.516 91.2984C261.498 89.9773 262.407 88.7896 262.783 88.7896C263.158 88.7896 263.049 90.2803 262.88 92.1589C262.71 94.0374 262.492 96.3402 262.455 99.4308C262.455 102.921 262.674 104.994 264.152 106C264.773 106.396 265.5 106.595 266.237 106.569H266.383C270.104 106.569 273.437 102.679 275.098 100.388C275.582 100.837 276.067 101.285 276.564 101.721C278.268 103.102 279.78 104.704 281.061 106.484C281.776 107.865 282.066 109.426 281.893 110.971C281.721 112.515 281.094 113.974 280.091 115.162C278.879 116.506 277.221 117.367 275.425 117.586C274.529 117.791 273.602 117.813 272.698 117.651C271.794 117.488 270.932 117.145 270.164 116.641C269.498 116.143 268.948 115.506 268.552 114.774C269.252 114.709 269.925 114.476 270.516 114.096C271.312 113.633 271.94 112.929 272.308 112.086C272.676 111.242 272.766 110.303 272.564 109.405C272.419 108.973 272.176 108.58 271.854 108.257C271.533 107.933 271.141 107.687 270.71 107.539C270.259 107.454 269.795 107.47 269.35 107.585C268.906 107.7 268.493 107.912 268.14 108.205C266.128 109.66 266.225 112.666 266.298 113.441C265.718 113.513 265.129 113.472 264.564 113.32C264.309 113.256 264.058 113.175 263.813 113.078C263.292 112.884 262.843 112.714 262.516 112.981C262.451 113.03 262.398 113.092 262.358 113.163C262.318 113.234 262.294 113.312 262.286 113.393C262.286 114.229 264.322 114.787 264.564 114.847C265.246 115.016 265.95 115.069 266.649 115.005C266.798 115.315 266.968 115.615 267.158 115.902C267.691 116.683 268.336 117.382 269.073 117.974C270.774 119.226 272.828 119.905 274.94 119.913C277.328 119.902 279.642 119.087 281.51 117.598C283.501 116.017 284.891 113.801 285.449 111.32C285.699 110.124 285.732 108.892 285.546 107.684C285.012 104.339 282.831 102.449 280.71 100.582ZM50.1688 102.327C48.5082 102.485 47.1022 101.515 46.1204 99.4913C45.2808 97.9034 44.9252 96.1042 45.0976 94.3163C45.2699 92.5284 45.9627 90.8303 47.0901 89.4319C47.0588 90.2478 47.1954 91.0615 47.4915 91.8224C47.7875 92.5834 48.2368 93.2754 48.8113 93.8557C50.387 95.4555 53.09 96.2796 56.4353 96.1584C55.5869 98.9096 52.896 102.049 50.1688 102.327ZM51.1264 92.0377C50.4234 91.3226 49.2961 89.941 49.7203 88.729C49.8946 88.3043 50.1702 87.9287 50.523 87.6351C50.8759 87.3414 51.2952 87.1386 51.7445 87.0443C52.0299 86.9728 52.323 86.9362 52.6172 86.9352C53.3195 86.9183 54.0027 87.1647 54.5324 87.6261C55.2855 88.4548 55.8671 89.4245 56.2437 90.4791C56.6202 91.5338 56.7842 92.6525 56.7262 93.7708C55.7223 93.9603 54.6872 93.9014 53.7111 93.5993C52.7351 93.2973 51.8478 92.7611 51.1264 92.0377ZM96.786 99.1884C95.9405 100.651 94.6119 101.774 93.0285 102.364C92.2263 102.702 91.3332 102.757 90.4953 102.521C88.0711 101.709 87.5499 98.037 87.4286 96.9341C87.0044 93.1042 88.7377 87.2382 92.3982 86.8262C93.2937 86.8181 94.1802 87.0047 94.9964 87.373C95.8126 87.7413 96.539 88.2826 97.1254 88.9593C97.0648 91.2499 96.9436 94.8979 96.786 99.1884ZM239.341 88.7169C239.516 88.2859 239.794 87.9046 240.151 87.6066C240.509 87.3085 240.934 87.103 241.389 87.008C241.678 86.9355 241.976 86.8988 242.274 86.8989C242.986 86.8827 243.677 87.1335 244.213 87.6018C244.974 88.4379 245.56 89.4175 245.937 90.4831C246.313 91.5487 246.473 92.6789 246.407 93.8072C245.395 94.0013 244.35 93.9437 243.365 93.6393C242.38 93.335 241.485 92.7933 240.759 92.0619C240.044 91.3469 238.904 89.941 239.341 88.7169ZM246.092 96.1099C245.304 98.8854 242.577 102.085 239.826 102.364C238.153 102.533 236.735 101.54 235.741 99.5156C234.889 97.9042 234.532 96.077 234.715 94.2635C234.899 92.45 235.614 90.7312 236.771 89.3228C236.726 90.1478 236.85 90.9734 237.135 91.7487C237.421 92.524 237.862 93.2328 238.432 93.8314C240.019 95.4312 242.747 96.2432 246.092 96.1099ZM198.675 95.3343C198.602 96.6068 198.542 97.8915 198.505 99.1884C197.671 100.507 196.422 101.509 194.954 102.037C194.147 102.357 193.258 102.408 192.42 102.182C189.996 101.382 189.463 97.7825 189.342 96.7038C188.93 92.9467 190.651 87.2261 194.323 86.7898C195.165 86.7646 196.003 86.9191 196.78 87.243C197.558 87.567 198.257 88.0529 198.832 88.6684C198.908 90.8915 198.855 93.1172 198.675 95.3343ZM179.112 89.5289C179.196 75.3608 181.015 73.7732 181.536 73.7732C181.673 73.7568 181.811 73.7568 181.948 73.7732C182.244 73.7715 182.538 73.8335 182.809 73.9549C183.307 74.2464 183.685 74.7062 183.875 75.2518C185.742 79.7603 181.572 88.8865 181.524 88.9714C180.799 90.5531 179.99 92.0945 179.099 93.589C179.099 92.4982 179.099 91.1287 179.112 89.5289ZM131.597 95.3343C131.509 96.6109 131.448 97.8956 131.416 99.1884C130.582 100.507 129.332 101.509 127.864 102.037C127.058 102.357 126.169 102.408 125.331 102.182C122.907 101.382 122.386 97.7825 122.264 96.7038C121.84 92.9467 123.573 87.2261 127.234 86.7898C128.076 86.7662 128.913 86.9214 129.69 87.2452C130.467 87.5691 131.167 88.0541 131.743 88.6684C131.816 90.8913 131.768 93.1166 131.597 95.3343ZM107.052 85.8323C107.258 85.8249 107.461 85.8799 107.634 85.9899C107.914 86.2567 108.079 86.6217 108.095 87.008C108.164 88.4128 107.686 89.7897 106.762 90.8499C106.113 90.3556 105.631 89.6747 105.38 88.8987C105.221 88.5331 105.15 88.1353 105.174 87.7375C105.197 87.3396 105.313 86.9527 105.513 86.608C105.698 86.3753 105.932 86.1854 106.198 86.0515C106.464 85.9176 106.755 85.8428 107.052 85.8323ZM96.2406 113.235C96.2406 115.283 96.2406 117.344 96.0709 119.295C95.9133 121.477 95.7194 122.543 94.9679 123.573C94.72 124.05 94.3619 124.46 93.9234 124.77C93.4848 125.08 92.9785 125.28 92.4467 125.355C91.9245 125.283 91.4242 125.098 90.9805 124.814C90.5368 124.529 90.1603 124.151 89.8771 123.707C88.0953 121.04 91.4771 115.477 96.0951 108.484L96.5072 107.842C96.3739 109.623 96.3012 111.441 96.2406 113.235ZM269.97 109.514C270.177 109.514 270.382 109.558 270.57 109.644C270.758 109.73 270.926 109.855 271.061 110.011C271.485 110.642 270.976 111.587 270.807 111.866C270.469 112.304 270.036 112.66 269.54 112.905C269.045 113.151 268.499 113.28 267.946 113.284C267.829 112.866 267.796 112.43 267.848 111.999C267.9 111.569 268.036 111.153 268.249 110.775C268.401 110.433 268.64 110.137 268.942 109.916C269.244 109.694 269.598 109.556 269.97 109.514Z" fill="black"/>
</g>
<defs>
<clipPath id="clip0_139_3677">
<rect width="295" height="155" fill="white"/>
</clipPath>
</defs>
</svg>
