<svg width="36" height="36" viewBox="0 0 36 36" fill="none" xmlns="http://www.w3.org/2000/svg">
<g clip-path="url(#clip0_242_40075)">
<path d="M14.5701 27.6729C17.3841 25.9809 21.2051 23.8659 24.4691 20.6019C31.4991 13.5729 37.1982 3.63187 35.7831 2.21687C34.3692 0.802871 24.4282 6.50187 17.3981 13.5309C14.1331 16.7959 12.0191 20.6159 10.3271 23.4299L14.5701 27.6729Z" fill="#3B88C3"/>
<path d="M0.428223 34.7437C0.428223 34.7437 7.49922 36.1577 12.4492 31.2077C14.5702 29.0867 14.5702 26.2587 14.5702 26.2587L11.7412 23.4297C11.7412 23.4297 8.20622 24.1377 6.79122 25.5517C5.37722 26.9657 4.27322 29.7837 3.90322 31.1497C3.22722 33.6517 0.428223 34.7437 0.428223 34.7437Z" fill="#C1694F"/>
<path d="M17.882 25.3278L12.714 20.1598C12.323 19.7688 11.756 19.8338 11.444 20.3048L10.321 22.0098C10.01 22.4808 10.05 23.1518 10.408 23.5108L14.53 27.6338C14.888 27.9918 15.56 28.0308 16.031 27.7208L17.736 26.5968C18.208 26.2858 18.272 25.7188 17.882 25.3278Z" fill="#CCD6DD"/>
<path d="M11.2292 32.2601C10.0382 33.0291 9.40322 32.3881 9.62022 31.6511C9.84122 30.9001 9.50022 30.0031 8.38322 30.2371C7.26622 30.4701 6.52722 29.8831 6.88022 28.4701C7.22822 27.0771 5.79522 26.6071 5.12622 28.0351C4.54422 29.1951 4.10922 30.3941 3.90422 31.1501C3.22722 33.6531 0.428223 34.7451 0.428223 34.7451C0.428223 34.7451 6.41622 35.9291 11.2292 32.2601Z" fill="#A0041E"/>
</g>
<defs>
<clipPath id="clip0_242_40075">
<rect width="36" height="36" fill="white"/>
</clipPath>
</defs>
</svg>
