<svg width="97" height="92" viewBox="0 0 97 92" fill="none" xmlns="http://www.w3.org/2000/svg">
<g style="mix-blend-mode:multiply" opacity="0.2">
<path d="M0 91.4471C0.649438 90.2716 1.22745 89.1156 1.83792 87.9661C7.46638 77.3543 13.0819 66.7468 18.6843 56.1436C18.7629 55.9512 18.9013 55.7893 19.0791 55.6817C19.2569 55.5741 19.4646 55.5265 19.6715 55.5462C39.0117 55.5462 58.3498 55.5462 77.6857 55.5462C77.9119 55.5205 78.1402 55.5702 78.3351 55.6876C78.5301 55.8051 78.6808 55.9837 78.7638 56.1956C83.9593 66.08 89.1548 75.9623 94.3503 85.8424C95.2271 87.518 95.9934 89.2455 96.8117 90.947C96.8701 91.0704 96.9156 91.2003 97 91.4081C95.8937 91.1331 94.8086 90.7794 93.7528 90.3495C89.3366 88.6545 85.1218 86.4983 80.8095 84.563C70.0289 79.7182 59.2417 74.8864 48.4481 70.0676C48.3024 69.9988 48.1421 69.967 47.9813 69.975C47.8204 69.9829 47.664 70.0303 47.5258 70.113L24.289 80.6794C16.4373 84.2513 8.59206 87.8492 0.694903 91.3367C0.493577 91.4081 0.305236 91.577 0 91.4471Z" fill="#004D61"/>
<path d="M48.416 52.6629H21.263C20.4771 52.6629 20.4642 52.6629 20.8149 51.9744C23.681 46.3806 26.5494 40.7911 29.4199 35.206C30.1603 33.7642 30.9136 32.3354 31.628 30.8807C31.6895 30.7214 31.8034 30.5876 31.9509 30.5015C32.0984 30.4154 32.2708 30.3819 32.4398 30.4066C43.017 30.4066 53.5941 30.4066 64.1713 30.4066C64.3491 30.3856 64.5289 30.4231 64.6836 30.5133C64.8382 30.6035 64.9593 30.7416 65.0286 30.9067C67.1782 35.0436 69.3538 39.1675 71.523 43.298L76.069 51.9225C76.4522 52.6628 76.4587 52.6629 75.5949 52.6629H48.416Z" fill="#5BD0D7"/>
<path d="M47.999 0C53.6296 8.90379 58.1497 18.3791 63.1438 27.6141C62.9682 27.7124 62.764 27.7469 62.5659 27.7115C53.1663 27.7115 43.769 27.7115 34.3738 27.7115C33.8217 27.7115 33.7243 27.6076 34.0036 27.1205C38.6276 18.1323 43.2429 9.14192 47.8496 0.149378C47.896 0.0963074 47.9459 0.0463982 47.999 0Z" fill="#FF5130"/>
</g>
</svg>
