<svg width="256" height="39" viewBox="0 0 256 39" fill="none" xmlns="http://www.w3.org/2000/svg">
<path d="M0 0.608887H0.0560879C0.134279 0.74063 0.161813 0.896344 0.133543 1.04691C0.133543 2.98774 0.133543 4.92767 0.133543 6.86672C0.133543 11.9218 0.133543 16.9777 0.133543 22.0346C0.133543 22.2002 0.178947 22.3791 0.0427328 22.518H0.0213674H0V0.608887Z" fill="#C9C9C9"/>
<path d="M203.106 0H204.441C204.445 0.00673148 204.448 0.0142579 204.449 0.0220888C204.45 0.0299196 204.449 0.0378771 204.447 0.0454409C204.445 0.0530047 204.441 0.0600041 204.436 0.065981C204.43 0.0719579 204.424 0.0767755 204.417 0.0801227C203.996 0.157549 203.564 0.157549 203.143 0.0801227C203.135 0.0777891 203.127 0.0737671 203.121 0.0683203C203.115 0.0628734 203.11 0.0561334 203.106 0.0485463C203.103 0.0409593 203.101 0.0327023 203.101 0.0243302C203.1 0.0159581 203.102 0.00766161 203.106 0Z" fill="#949494"/>
<path d="M204.428 38.9438H203.157C203.15 38.9295 203.148 38.9131 203.153 38.8978C203.157 38.8824 203.167 38.8693 203.181 38.861C203.586 38.7862 204.002 38.7862 204.407 38.861C204.42 38.8693 204.43 38.8826 204.434 38.8981C204.438 38.9135 204.436 38.9299 204.428 38.9438Z" fill="#737373"/>
<path d="M203.106 0C203.108 0.0142137 203.108 0.0285211 203.106 0.0427348C203.083 0.0667315 203.056 0.0858292 203.025 0.0988777C202.995 0.111926 202.962 0.118652 202.929 0.118652C202.895 0.118652 202.863 0.111926 202.832 0.0988777C202.801 0.0858292 202.774 0.0667315 202.751 0.0427348C202.752 0.0285211 202.752 0.0142137 202.751 0H203.106Z" fill="#CACACA"/>
<path d="M204.434 0.0427348C204.434 0.0267096 204.434 0.0133543 204.434 0H204.791C204.791 0.0133543 204.791 0.0267096 204.791 0.0427348C204.769 0.0671499 204.741 0.0866062 204.71 0.0999047C204.679 0.113203 204.646 0.120062 204.613 0.120062C204.579 0.120062 204.546 0.113203 204.515 0.0999047C204.484 0.0866062 204.457 0.0671499 204.434 0.0427348Z" fill="#C0C0C0"/>
<path d="M203.154 38.8984C203.154 38.9144 203.154 38.9278 203.154 38.9438H202.804C202.8 38.9376 202.797 38.9306 202.796 38.9232C202.794 38.9158 202.795 38.9082 202.796 38.9009C202.798 38.8936 202.801 38.8867 202.806 38.8808C202.811 38.8748 202.816 38.8699 202.823 38.8663C202.874 38.8334 202.934 38.8187 202.994 38.8245C203.054 38.8303 203.111 38.8564 203.154 38.8984Z" fill="#9E9E9E"/>
<path d="M204.428 38.9438V38.901C204.471 38.8579 204.528 38.831 204.589 38.8247C204.649 38.8184 204.71 38.8331 204.762 38.8663C204.768 38.8699 204.774 38.8748 204.779 38.8807C204.783 38.8867 204.787 38.8935 204.788 38.9009C204.79 38.9082 204.79 38.9158 204.789 38.9232C204.787 38.9306 204.785 38.9376 204.78 38.9438H204.428Z" fill="#9A9A9A"/>
<path d="M202.804 38.9012C202.802 38.9154 202.802 38.9297 202.804 38.9439H202.499C202.499 38.9279 202.499 38.9145 202.499 38.9012C202.518 38.8788 202.541 38.8608 202.567 38.8484C202.593 38.836 202.622 38.8296 202.651 38.8296C202.68 38.8296 202.709 38.836 202.735 38.8484C202.762 38.8608 202.785 38.8788 202.804 38.9012Z" fill="#D1D1D1"/>
<path d="M204.785 38.9439V38.9012C204.804 38.8792 204.827 38.8615 204.854 38.8494C204.88 38.8373 204.908 38.8311 204.937 38.8311C204.966 38.8311 204.995 38.8373 205.021 38.8494C205.047 38.8615 205.071 38.8792 205.09 38.9012C205.088 38.9154 205.088 38.9297 205.09 38.9439H204.785Z" fill="#CFCFCF"/>
<path d="M0.0429688 22.5234C0.0429688 22.3471 0.0429688 22.1709 0.0429688 21.9892V0.801278C0.0429688 0.742519 0.0429688 0.683759 0.0429688 0.625H6.83498C6.98455 0.625 7.01393 0.673079 7.01393 0.811964C7.01393 1.53043 7.01393 2.25156 7.01393 2.97269V21.9358C6.97113 23.6417 7.26989 25.3389 7.89264 26.9277C9.07316 29.7561 11.2125 31.4334 14.1959 32.045C16.0762 32.4629 18.0327 32.3856 19.8741 31.8207C22.4862 30.9927 24.1475 29.1926 25.0663 26.6499C25.5449 25.2984 25.7861 23.8743 25.7794 22.4406C25.7919 15.6744 25.7919 8.91358 25.7794 2.15807C25.7794 1.71738 25.7794 1.27669 25.7794 0.836001C25.7794 0.667736 25.8248 0.625003 25.9904 0.627673C28.177 0.627673 30.3644 0.627673 32.5527 0.627673C32.7317 0.627673 32.7744 0.675748 32.7744 0.852025C32.7744 8.02864 32.7744 15.2053 32.7744 22.3792C32.8091 24.9643 32.3118 27.5289 31.3134 29.9137C29.4679 34.1871 26.2388 36.8286 21.7705 38.0331C19.3523 38.663 16.8382 38.8378 14.3561 38.5486C11.7663 38.3146 9.26595 37.4836 7.05132 36.1208C3.83293 34.1016 1.8004 31.2011 0.764103 27.574C0.311007 25.9278 0.0686918 24.2307 0.0429688 22.5234Z" fill="#333333"/>
<path d="M205.093 38.9011H202.494C199.95 38.8135 197.441 38.2867 195.077 37.344C190.09 35.2768 186.845 31.599 185.155 26.519C184.269 23.8163 183.919 20.9665 184.126 18.1298C184.306 14.7858 185.316 11.5391 187.064 8.68297C189.596 4.59655 193.237 2.00581 197.865 0.761188C199.464 0.344719 201.104 0.103808 202.756 0.0427246H204.796C209.689 0.309811 213.877 2.17941 217.405 5.55005C217.541 5.67825 217.568 5.74502 217.405 5.89192C215.947 7.28611 214.497 8.69098 213.046 10.0905C212.956 10.176 212.899 10.2801 212.747 10.1359C210.789 8.29087 208.281 7.13793 205.605 6.85343C203.117 6.50978 200.583 6.83617 198.263 7.79892C194.986 9.19311 192.839 11.6583 191.757 15.0103C190.496 18.9177 190.747 22.7558 192.689 26.3988C194.27 29.3688 196.818 31.1369 200.069 31.8955C203.722 32.7448 207.235 32.3709 210.552 30.56C211.485 30.0576 212.344 29.4285 213.105 28.6904C213.22 28.5782 213.281 28.5595 213.402 28.6904C214.906 30.2182 216.42 31.7414 217.942 33.2603C218.1 33.4178 217.998 33.4766 217.902 33.5701C215.559 35.8241 212.672 37.4342 209.523 38.2441C208.073 38.6133 206.588 38.8334 205.093 38.9011Z" fill="#333333"/>
<path d="M90.6622 22.6222C90.6622 27.6808 90.6622 32.7394 90.6622 37.798C90.6622 38.0384 90.5927 38.0838 90.3684 38.0838C88.2157 38.0731 86.0621 38.0731 83.9076 38.0838C83.6565 38.0838 83.6084 38.0197 83.6084 37.7793C83.6084 27.6621 83.6084 17.5449 83.6084 7.42764C83.6084 7.18459 83.5684 7.10447 83.2986 7.10447C79.5594 7.10447 75.8202 7.10447 72.081 7.12049C71.8139 7.12049 71.7578 7.03769 71.7578 6.78396C71.7578 4.85293 71.7578 2.9219 71.7578 0.988189C71.7578 0.782533 71.7845 0.705078 72.0249 0.705078C82.0887 0.705078 92.1534 0.705078 102.219 0.705078C102.459 0.705078 102.486 0.779856 102.486 0.990854C102.486 2.94059 102.486 4.88765 102.486 6.83738C102.486 7.05372 102.441 7.10447 102.219 7.10447C98.4531 7.10447 94.6872 7.10447 90.9239 7.10447C90.6862 7.10447 90.6382 7.16857 90.6382 7.39559C90.6595 12.472 90.6675 17.5475 90.6622 22.6222Z" fill="#333333"/>
<path d="M142.958 37.7045C143.225 37.2211 143.463 36.7457 143.714 36.2729C146.029 31.9087 148.338 27.5463 150.642 23.1857C150.674 23.1066 150.731 23.04 150.804 22.9957C150.878 22.9514 150.963 22.9319 151.048 22.94C159.002 22.94 166.955 22.94 174.907 22.94C175 22.9294 175.094 22.9499 175.174 22.9982C175.254 23.0465 175.316 23.1199 175.35 23.2071C177.487 27.2721 179.624 31.3363 181.76 35.3996C182.121 36.0886 182.436 36.7991 182.773 37.4988C182.797 37.5496 182.815 37.603 182.85 37.6885C182.395 37.5754 181.949 37.4299 181.515 37.2531C179.698 36.556 177.965 35.6693 176.192 34.8734C171.758 32.8809 167.322 30.8938 162.883 28.912C162.823 28.8838 162.757 28.8707 162.691 28.8739C162.625 28.8772 162.56 28.8967 162.503 28.9307L152.947 33.2762C149.718 34.7452 146.492 36.2248 143.244 37.6591C143.161 37.6885 143.084 37.7579 142.958 37.7045Z" fill="#004D61"/>
<path d="M162.869 21.7542H151.703C151.379 21.7542 151.374 21.7542 151.518 21.4711C152.697 19.1706 153.877 16.8719 155.057 14.5749C155.362 13.982 155.671 13.3944 155.965 12.7961C155.991 12.7306 156.037 12.6756 156.098 12.6402C156.159 12.6048 156.23 12.591 156.299 12.6012C160.649 12.6012 164.999 12.6012 169.349 12.6012C169.422 12.5925 169.496 12.6079 169.56 12.645C169.623 12.6821 169.673 12.7389 169.702 12.8068C170.586 14.5082 171.48 16.2042 172.372 17.9028L174.242 21.4497C174.4 21.7542 174.402 21.7542 174.047 21.7542H162.869Z" fill="#5BD0D7"/>
<path d="M162.698 0.0961914C165.014 3.75795 166.872 7.65474 168.926 11.4527C168.854 11.4932 168.77 11.5073 168.689 11.4928C164.823 11.4928 160.958 11.4928 157.094 11.4928C156.867 11.4928 156.827 11.45 156.942 11.2497C158.844 7.55325 160.742 3.85588 162.636 0.157624C162.656 0.135799 162.676 0.115273 162.698 0.0961914Z" fill="#FF5130"/>
<path d="M255.663 37.6217C255.663 37.7713 255.663 37.9209 255.663 38.0704H250.933C249.71 38.0704 248.489 38.0704 247.268 38.0704C247.186 38.0756 247.104 38.0617 247.028 38.0297C246.952 37.9977 246.884 37.9486 246.83 37.8861C241.718 32.4643 236.605 27.046 231.489 21.6313L231.422 21.5698C231.353 21.6606 231.385 21.7621 231.385 21.8556C231.385 27.1528 231.385 32.4483 231.385 37.7419C231.385 38.009 231.331 38.0758 231.059 38.0731C228.906 38.0624 226.753 38.0624 224.598 38.0731C224.368 38.0731 224.331 38.009 224.331 37.806C224.331 25.5361 224.331 13.267 224.331 0.998835C224.331 0.769141 224.387 0.707715 224.62 0.710385C226.783 0.710385 228.945 0.710385 231.107 0.710385C231.35 0.710385 231.39 0.787837 231.39 1.00685C231.39 6.05834 231.39 11.1081 231.39 16.156C231.374 16.2647 231.385 16.3757 231.422 16.4792L232.491 15.2853L245.447 0.846602C245.488 0.800399 245.539 0.764488 245.597 0.741758C245.654 0.719028 245.717 0.710108 245.778 0.715724H254.058C254.133 0.715724 254.242 0.662308 254.285 0.758459C254.328 0.85461 254.269 0.964115 254.189 1.04958L251.836 3.58424C247.197 8.58588 242.556 13.5866 237.912 18.5865C237.755 18.7574 237.736 18.8536 237.912 19.0218C243.788 25.1808 249.67 31.3425 255.556 37.5069C255.599 37.5443 255.631 37.5843 255.663 37.6217Z" fill="#333333"/>
<path fill-rule="evenodd" clip-rule="evenodd" d="M129.631 27.0613L127.561 24.7296C128.208 24.5866 128.847 24.4065 129.473 24.1901C132.571 23.1164 134.831 21.1587 136.043 18.0898C136.955 15.7744 137.21 13.2519 136.778 10.801C136.55 9.24643 136.006 7.75502 135.18 6.41908C134.353 5.08314 133.26 3.93107 131.97 3.03416C129.743 1.45301 127.211 0.766603 124.516 0.60368C123.765 0.566283 123.012 0.578756 122.26 0.591221C121.884 0.597452 121.508 0.60368 121.132 0.60368L106.05 0.57697C106.043 0.57697 106.036 0.576953 106.029 0.576936C105.864 0.576534 105.756 0.576269 105.756 0.817346V37.6993C105.756 37.9103 105.831 37.945 106.023 37.945C108.192 37.9343 110.362 37.9343 112.535 37.945C112.77 37.945 112.823 37.8836 112.823 37.6512V25.7312C112.823 25.5255 112.871 25.4641 113.09 25.4641H119.348C119.43 25.4593 119.512 25.4745 119.587 25.5085C119.662 25.5425 119.727 25.5941 119.778 25.6591C123.291 29.6885 126.804 33.7197 130.317 37.7527C130.365 37.8143 130.428 37.8634 130.499 37.896C130.57 37.9285 130.648 37.9435 130.726 37.9397H138.61H138.762C138.824 37.9397 138.856 37.9103 138.856 37.8489C138.871 37.7501 138.866 37.6493 138.841 37.5524C138.816 37.4556 138.772 37.3648 138.712 37.2853C135.685 33.8791 132.658 30.4711 129.631 27.0613ZM112.839 7.42507V13.1434C112.839 13.5237 112.839 13.904 112.839 14.2844C112.84 15.8007 112.84 17.3163 112.834 18.8217C112.834 19.0407 112.871 19.1181 113.117 19.1181H123.466C123.983 19.1254 124.5 19.0869 125.01 19.0033C127.008 18.6534 128.549 17.6491 129.412 15.7582C129.915 14.6471 130.082 13.4134 129.893 12.2086C129.607 10.2268 128.624 8.7338 126.821 7.82304C125.784 7.32916 124.644 7.09016 123.496 7.12594H113.12C112.871 7.12594 112.839 7.20873 112.839 7.42507Z" fill="#333333"/>
<path fill-rule="evenodd" clip-rule="evenodd" d="M39.2295 1.01218V19.3877C39.2331 25.5147 39.2339 31.6452 39.2322 37.7793C39.2322 37.9983 39.2696 38.0731 39.5126 38.0731C41.6742 38.0624 43.8367 38.0624 46.0001 38.0731C46.2432 38.0758 46.2832 37.9983 46.2832 37.7793V27.3629C46.2832 27.1519 46.3233 27.0958 46.5503 27.0958H57.0041C58.208 27.0991 59.4082 26.9619 60.5804 26.6872C64.6107 25.723 67.5914 23.4261 69.3168 19.6334C70.7463 16.5379 70.959 13.0178 69.9124 9.77261C69.4706 8.2331 68.7296 6.79577 67.732 5.54281C66.7343 4.28985 65.4994 3.24584 64.0979 2.47047C61.9637 1.29899 59.5641 0.695666 57.1296 0.718385C53.036 0.679238 48.9449 0.688232 44.8492 0.697238C43.0767 0.701135 41.3034 0.705034 39.5286 0.705034C39.2776 0.705034 39.2295 0.771804 39.2295 1.01218ZM46.2726 7.7V14.0273C46.2726 14.6671 46.2743 15.3068 46.276 15.9463C46.28 17.4076 46.2839 18.8684 46.2672 20.3305C46.2672 20.5736 46.31 20.651 46.577 20.651H56.5474C56.979 20.6591 57.4107 20.6403 57.8401 20.5949C59.6643 20.3679 61.1973 19.604 62.2897 18.0977C62.8391 17.3467 63.2271 16.4901 63.4294 15.5818C63.6316 14.6735 63.6437 13.7332 63.4649 12.8201C63.2313 11.2359 62.3986 9.80186 61.1386 8.81376C59.9335 7.87671 58.442 7.38426 56.916 7.41956H46.5396C46.3206 7.41956 46.2726 7.48099 46.2726 7.7Z" fill="#333333"/>
</svg>
