<svg width="411" height="285" viewBox="0 0 411 285" fill="none" xmlns="http://www.w3.org/2000/svg">
<g opacity="0.6">
<path opacity="0.6" d="M241.484 137.651C241.484 137.651 253.88 43.0024 279.448 47.3295C305.016 51.6567 257.084 108.912 254.349 136.58L241.484 137.651Z" fill="#ACC9C5"/>
</g>
<path d="M251.554 119.431C251.554 119.431 297.595 39.8146 323.051 53.3798C348.507 66.945 278.014 99.7521 265.492 123.362L251.554 119.431Z" fill="#CCD39C"/>
<path d="M259.332 121.699C267.683 105.236 282.349 90.3584 293.181 80.7748C304.926 70.388 314.814 63.8179 314.912 63.7525L314.505 63.1377C314.406 63.2031 304.475 69.8012 292.692 80.2238C281.811 89.8478 267.078 104.798 258.673 121.365L259.332 121.699Z" fill="#C2C68E"/>
<path d="M337.072 115.114C337.024 114.992 336.974 114.872 336.916 114.749C336.492 113.82 335.939 112.954 335.273 112.179C327.755 103.254 320.127 106.42 311.323 107.788C306.457 108.543 299.524 102.358 292.711 99.4081L292.692 99.3988C292.594 99.3599 292.502 99.3194 292.405 99.2774C291.782 99.0174 291.159 98.7855 290.551 98.5925C285.788 97.0795 281.207 97.7037 277.555 104.015C277.472 104.159 277.388 104.3 277.304 104.442C271.584 114.195 267.664 115.708 262.412 116.149C262.117 116.175 261.821 116.195 261.516 116.216C259.09 116.371 256.365 116.387 253.052 116.918L252.672 116.98C252.605 116.994 252.538 117.005 252.47 117.016C251.866 117.121 251.244 117.244 250.601 117.389C249.21 117.701 247.899 118.032 246.762 118.505C245.968 118.814 245.231 119.253 244.582 119.805C241.952 122.152 240.186 124.678 239.15 127.276C237.724 130.849 237.671 134.569 238.635 138.172C243.964 138.483 249.022 138.77 253.843 139.016L255.138 139.083L256.592 139.156L259.931 139.311C267.584 139.668 274.623 139.925 281.197 140.063C292.778 140.311 296.805 149.634 306.061 147.401C308.609 146.778 312.878 138.888 313.121 138.529C313.192 138.421 313.264 138.317 313.339 138.217C314.865 136.018 316.824 134.17 319.801 133.32C323.037 132.398 326.136 131.052 329.019 129.318C329.253 129.175 329.486 129.031 329.712 128.881C335.32 125.259 339.099 120.277 337.072 115.114Z" fill="#ACC9C5"/>
<g opacity="0.5">
<path opacity="0.5" d="M337.105 115.489C324.531 116.609 313.434 118.437 303.761 120.614C303.45 120.683 303.138 120.754 302.827 120.826C276.603 126.842 261.049 135.383 255.136 139.103L253.842 139.036C258.098 136.264 269.507 129.605 288.707 123.79C288.956 123.715 289.203 123.634 289.456 123.567C301.973 119.831 317.736 116.463 336.918 114.746L337.039 114.735L337.073 115.112L337.105 115.489Z" fill="#68A1BF"/>
<path opacity="0.5" d="M287.089 116.13C278.966 109.734 277.256 104.345 277.188 104.12L277.912 103.9C277.927 103.953 279.642 109.304 287.558 115.537L287.089 116.13Z" fill="#68A1BF"/>
<path opacity="0.5" d="M288.952 124.185C286.549 120.53 286.393 115.048 288.503 108.329C289.509 105.178 290.821 102.134 292.423 99.24L293.077 99.6182C292.987 99.7739 284.057 115.367 289.584 123.771L288.952 124.185Z" fill="#68A1BF"/>
<path opacity="0.5" d="M304.169 121.869C303.205 121.165 302.68 120.701 302.655 120.681L303.161 120.118C303.27 120.217 314.358 129.974 329.679 128.503L329.751 129.256C317.406 130.441 307.755 124.49 304.169 121.869Z" fill="#68A1BF"/>
<path opacity="0.5" d="M312.854 138.813C309.095 135.137 307.839 131.298 307.447 128.727C307.02 125.925 307.486 124.015 307.506 123.936L308.24 124.12C308.223 124.193 306.5 131.541 313.379 138.273L312.854 138.813Z" fill="#68A1BF"/>
</g>
<path d="M249.596 54.944C249.42 51.4558 250.478 50.3616 251.845 50.2931C253.212 50.2246 254.374 51.2052 254.55 54.6934C254.872 61.0488 252.551 64.2459 252.551 64.2459C252.551 64.2459 249.925 61.3912 249.596 54.944Z" fill="#ACC9C5"/>
<path d="M318.845 96.0415C322.508 95.4188 323.796 96.3901 324.042 97.8252C324.288 99.2604 323.399 100.608 319.738 101.237C313.066 102.381 309.396 100.336 309.396 100.336C309.396 100.336 312.077 97.2026 318.845 96.0415Z" fill="#ACC9C5"/>
<path d="M307.896 90.3148C309.869 87.4321 311.372 87.2017 312.502 87.98C313.633 88.7583 313.963 90.237 311.99 93.1166C308.396 98.3683 304.612 99.5077 304.612 99.5077C304.612 99.5077 304.249 95.6428 307.896 90.3148Z" fill="#ACC9C5"/>
<path d="M102.899 98.0149C101.237 99.2773 100.342 99.1201 99.8463 98.4632C99.3511 97.8064 99.4461 96.9067 101.108 95.6365C104.134 93.3375 106.493 93.4154 106.493 93.4154C106.493 93.4154 105.971 95.6817 102.899 98.0149Z" fill="#ACC9C5"/>
<path d="M107.748 146.777L107.352 146.787C107.352 146.727 107.122 140.561 104.024 131.867C101.167 123.836 95.213 111.943 83.0801 100.851L83.3464 100.558C95.5447 111.706 101.529 123.674 104.401 131.75C107.516 140.507 107.746 146.714 107.748 146.777Z" fill="#ACC9C5"/>
<path d="M95.6976 114.9L95.3426 114.729C101.594 101.774 95.2304 87.6626 95.165 87.5225L95.5232 87.356C95.5902 87.4898 102.031 101.774 95.6976 114.9Z" fill="#ACC9C5"/>
<path d="M89.0384 109.183C85.0564 109.65 81.8079 107.988 81.7705 107.969L81.9512 107.616C81.9932 107.638 86.1559 109.756 90.7702 108.436L90.8792 108.819C90.2765 108.99 89.6609 109.112 89.0384 109.183Z" fill="#ACC9C5"/>
<path d="M82.5585 98.6827C84.8555 100.325 85.1561 101.355 84.6842 102.025C84.2123 102.694 83.1471 102.75 80.8485 101.108C76.6641 98.1161 75.4961 95.4575 75.4961 95.4575C75.4961 95.4575 78.3117 95.6474 82.5585 98.6827Z" fill="#ACC9C5"/>
<path d="M82.6697 106.571C85.3498 107.443 85.94 108.336 85.6955 109.118C85.451 109.899 84.4497 110.276 81.768 109.406C76.892 107.818 74.9766 105.634 74.9766 105.634C74.9766 105.634 77.7159 104.962 82.6697 106.571Z" fill="#ACC9C5"/>
<path d="M92.3088 102.432C93.0221 104.406 92.611 105.219 91.8416 105.497C91.0723 105.776 90.2376 105.413 89.5243 103.438C88.2255 99.8423 88.9902 97.5994 88.9902 97.5994C88.9902 97.5994 90.9836 98.7854 92.3088 102.432Z" fill="#ACC9C5"/>
<path d="M96.1621 85.6594C97.137 88.3179 96.8037 89.3359 96.0375 89.6176C95.2713 89.8994 94.3587 89.3375 93.3901 86.6805C91.6147 81.8381 92.1442 78.988 92.1442 78.988C92.1442 78.988 94.3603 80.7469 96.1621 85.6594Z" fill="#ACC9C5"/>
<path d="M113.042 164.555C113.042 164.555 63.2258 104.039 43.8171 118.989C24.4085 133.94 88.1037 151.698 101.922 169.802L113.042 164.555Z" fill="#92BCB5"/>
<path d="M106.848 167.545C97.5275 154.869 83.1396 144.404 72.7103 137.859C61.4043 130.763 52.1944 126.616 52.1025 126.576L52.3564 126.001C52.4483 126.043 61.7002 130.204 73.042 137.327C83.5164 143.902 97.9729 154.418 107.353 167.173L106.848 167.545Z" fill="#68A1BF"/>
<path d="M105.11 201.24C97.2314 201.24 105.681 209.088 96.2674 209.533C84.474 208.733 79.5233 203.322 77.7838 200.661C76.8876 199.279 75.8219 198.015 74.6116 196.899C70.927 193.532 69.9506 194.509 58.7832 196.732C49.3101 198.611 48.0035 190.234 43.8331 184.235C43.7583 184.124 43.6773 184.015 43.6026 183.908C41.9939 181.688 39.9507 179.836 36.8891 179.022C33.5628 178.137 30.3685 176.816 27.3895 175.093C27.1466 174.952 26.9062 174.807 26.6685 174.659C20.8629 171.06 16.8902 166.029 18.8493 160.701C18.8944 160.575 18.9443 160.448 18.9972 160.323C19.4106 159.363 19.9568 158.466 20.6199 157.658C28.095 148.367 35.9562 151.462 44.9761 152.688C49.9595 153.365 56.9097 146.882 63.807 143.729L64.1045 143.595C69.5815 141.167 75.0056 140.935 79.3754 148.159L79.6401 148.593C89.3966 164.499 93.9144 158.612 107.204 161.327C109.677 161.834 111.906 162.404 113.398 163.687C127.303 175.646 118.534 192.741 105.11 201.24Z" fill="#CCD39C"/>
<path d="M105.895 185.506L106.353 184.884C106.079 184.68 78.267 164.474 18.8668 160.32L18.8154 161.098C77.9914 165.234 105.621 185.304 105.895 185.506Z" fill="#C2C68E"/>
<path d="M69.9007 160.77C78.0516 154.058 79.6775 148.504 79.7429 148.272L78.9985 148.061C78.9829 148.115 77.3524 153.63 69.4102 160.171L69.9007 160.77Z" fill="#C2C68E"/>
<path d="M68.1796 169.052C70.5514 165.262 70.5872 159.643 68.2824 152.802C67.1857 149.594 65.7774 146.502 64.0777 143.569L63.4189 143.97C63.5139 144.126 72.9823 159.925 67.5255 168.64L68.1796 169.052Z" fill="#C2C68E"/>
<path d="M52.5977 166.979C53.5648 166.24 54.0912 165.754 54.1145 165.734L53.5788 165.161C53.4698 165.264 42.3662 175.478 26.6889 174.274L26.6328 175.053C39.2657 176.021 48.9848 169.736 52.5977 166.979Z" fill="#C2C68E"/>
<path d="M44.0993 184.507C47.8571 180.667 49.0531 176.71 49.3942 174.067C49.7663 171.191 49.2478 169.242 49.226 169.161L48.48 169.363C48.5003 169.44 50.4235 176.933 43.5449 183.965L44.0993 184.507Z" fill="#C2C68E"/>
<path d="M40.1052 143.247C37.6276 142.264 37.1993 141.184 37.5809 140.211C37.9624 139.238 39.0073 138.742 41.485 139.724C46.0012 141.513 47.49 144.138 47.49 144.138C47.49 144.138 44.6837 145.061 40.1052 143.247Z" fill="#ACC9C5"/>
<path d="M296.135 115.166C272.33 91.7826 239.688 77.3582 203.677 77.3582C178.391 77.3582 154.763 84.47 134.688 96.8055C124.809 102.878 115.77 110.221 107.804 118.647C85.457 142.266 71.7637 174.139 71.7637 209.211H157.499C157.496 203.148 158.688 197.145 161.007 191.544C163.326 185.942 166.727 180.853 171.016 176.566C175.305 172.279 180.397 168.879 186.001 166.561C191.605 164.243 197.611 163.051 203.677 163.055C209.741 163.054 215.746 164.247 221.35 166.566C226.953 168.885 232.044 172.285 236.332 176.571C240.62 180.857 244.022 185.946 246.342 191.546C248.662 197.147 249.856 203.149 249.855 209.211H335.593C335.593 172.385 320.488 139.086 296.135 115.166Z" fill="#CCD39C"/>
<path d="M107.804 118.647L169.462 178.208C161.748 186.691 157.481 197.747 157.499 209.211H71.7646C71.7646 174.141 85.4564 142.267 107.804 118.647Z" fill="#EF8062"/>
<path d="M203.656 77.3552V163.049C197.209 163.041 190.833 164.386 184.939 166.997C179.046 169.607 173.766 173.425 169.442 178.203L107.788 118.644C131.833 93.2194 165.894 77.3552 203.656 77.3552Z" fill="#EA985F"/>
<path d="M296.135 115.166L240.118 180.852C235.804 175.304 230.277 170.816 223.961 167.731C217.645 164.645 210.707 163.045 203.677 163.052V77.3582C239.688 77.3582 272.334 91.7826 296.135 115.166Z" fill="#C4C67C"/>
<path d="M265.251 209.211H265.05C265.05 193.207 258.689 177.858 247.367 166.542C236.045 155.225 220.689 148.868 204.677 148.868C188.665 148.868 173.309 155.225 161.987 166.542C150.665 177.858 144.304 193.207 144.304 209.211H144.104C144.317 193.294 150.793 178.102 162.13 166.922C173.466 155.742 188.751 149.474 204.677 149.474C220.603 149.474 235.888 155.742 247.225 166.922C258.561 178.102 265.037 193.294 265.251 209.211Z" fill="#331832"/>
<path d="M234.958 209.253H174.395C174.395 192.537 187.954 178.986 204.678 178.986C221.402 178.986 234.958 192.537 234.958 209.253Z" fill="#764678"/>
<path d="M170.716 128.978L198.984 197.264C199.338 198.119 199.865 198.891 200.533 199.531C201.201 200.171 201.995 200.665 202.864 200.982C203.733 201.3 204.659 201.433 205.582 201.374C206.505 201.316 207.406 201.066 208.228 200.641C208.943 200.27 209.577 199.762 210.094 199.144C210.61 198.526 210.997 197.811 211.233 197.041C211.47 196.272 211.55 195.463 211.47 194.662C211.39 193.861 211.151 193.084 210.767 192.377L175.26 127.723C174.889 127.04 172.996 122.851 171.224 123.544C169.707 123.545 170.14 127.585 170.716 128.978Z" fill="#331832"/>
<path d="M173.113 131.53C171.425 129.846 169.572 128.179 167.24 127.474C165.449 126.931 162.568 126.851 161.323 128.563C160.058 130.329 161.989 132.111 163.708 132.299C164.998 132.444 166.306 132.144 167.602 132.184C169.134 132.242 170.648 132.54 172.088 133.068C172.133 132.741 172.177 132.416 172.221 132.089C169.631 131.875 167.034 132.415 164.745 133.646C163.24 134.458 160.222 136.366 162.299 138.18C163.831 139.517 166.332 139.511 167.932 138.307C169.853 136.863 170.126 133.409 172.725 132.891L172.112 132.542C172.613 133.692 172.656 134.991 172.231 136.172C171.792 137.359 170.844 138.142 169.914 138.942C169.115 139.632 168.391 140.36 167.924 141.321C167.443 142.312 167.208 143.393 166.881 144.434C165.577 148.618 161.039 149.932 158.884 153.505C158.551 154.056 159.413 154.558 159.745 154.008C160.894 152.103 162.786 150.895 164.461 149.494C166.16 148.078 167.301 146.523 167.935 144.393C168.279 143.237 168.538 142.003 169.262 141.008C170.05 139.918 171.258 139.243 172.132 138.237C172.825 137.427 173.279 136.44 173.444 135.386C173.609 134.333 173.478 133.255 173.066 132.271C173.027 132.146 172.942 132.041 172.828 131.976C172.714 131.912 172.58 131.892 172.453 131.922C168.695 132.673 168.95 138.999 164.475 138.128C163.341 137.907 161.966 137.005 163.198 135.892C163.987 135.206 164.87 134.639 165.822 134.206C167.818 133.274 170.025 132.886 172.219 133.081C172.812 133.129 172.851 132.279 172.353 132.1C170.598 131.462 168.74 131.149 166.873 131.177C165.938 131.196 164.988 131.385 164.048 131.333C163.008 131.264 161.039 130.192 162.29 128.96C163.73 127.542 166.485 128.09 168.087 128.862C169.749 129.662 171.109 130.937 172.401 132.226C172.856 132.681 173.561 131.975 173.107 131.521L173.113 131.53Z" fill="#331832"/>
<path d="M297.805 131.624C297.805 131.624 290.66 129.077 287.132 131.842C284.153 134.177 287.665 135.907 287.665 135.907L293.556 138.747L298.591 138.007L297.805 131.624Z" fill="#FFB27D"/>
<path d="M331.337 212.442C331.337 212.442 329.763 215.923 331.748 216.374C333.958 216.875 337.686 219.089 335.101 219.847C333.617 220.282 330.316 219.39 328.763 219.124C326.469 218.729 324.154 218.443 323.492 217.059C322.761 215.537 326.563 210.366 326.563 210.366C326.563 210.366 327.533 211.524 328.662 211.981C330.289 212.643 331.337 212.442 331.337 212.442Z" fill="#331832"/>
<path d="M337.165 153.775C337.165 153.775 358.626 173.063 356.976 184.795C355.361 196.267 335.12 212.501 332.546 213.885C329.972 215.269 323.67 212.536 324.915 208.004C326.759 201.364 338.802 186.101 337.53 180.894C336.201 175.47 315.104 160.192 315.058 160.971C315.064 160.974 332.239 150.073 337.165 153.775Z" fill="#EF8062"/>
<path d="M285.676 211.426C285.676 211.426 285.365 214.072 283.389 214.716C281.412 215.361 275.814 215.717 277.728 217.543C278.827 218.591 284.477 218.276 286.056 218.366C287.635 218.457 289.059 219.188 290.322 218.261C291.712 217.241 290.912 211.723 290.912 211.723C290.912 211.723 289.489 212.313 288.264 212.213C286.505 212.07 285.676 211.426 285.676 211.426Z" fill="#331832"/>
<path d="M335.092 159.053C308.151 199.439 295.082 212.098 292.03 215.244C290.057 217.277 281.476 213.594 283.407 208.903C286.192 202.141 313.099 155.358 319.107 147.435C321.793 143.885 338.939 153.283 335.092 159.053Z" fill="#EF8062"/>
<path d="M351.233 123.134C337.594 117.051 325.095 126.506 316.72 127.889C308.147 129.306 297.721 130.782 297.721 130.782C297.721 130.782 295.073 135.431 298.016 138.637C298.016 138.637 309 141.659 319.334 140.214C329.79 138.753 338.989 135.26 337.6 134.931C337.603 134.923 354.378 124.535 351.233 123.134Z" fill="#58A1C7"/>
<path d="M362.687 143.24C362.687 143.24 366.245 136.927 357.267 128.039C350.353 121.19 341.548 121.252 335.164 127.297C326.334 135.654 320.059 143.704 317.223 149.272C317.223 149.272 325.831 164.605 346.924 163.962C346.924 163.962 347.202 157.198 358.594 145.625C359.742 144.459 362.168 144.459 362.687 143.24Z" fill="#58A1C7"/>
<path d="M356.809 125.382L357.039 122.029L357.106 121.053L357.502 115.316L355.359 120.395L354.072 123.446L353.664 124.411C353.389 125.066 352.943 125.065 352.249 125.471C351.967 125.626 350.196 126.609 351.36 127.754C352.809 129.182 356.536 129.155 358.375 128.009C358.367 128.003 356.739 126.465 356.809 125.382Z" fill="#FFB27D"/>
<path d="M354.558 127.139C354.558 127.139 353.369 124.901 352.506 124.89C351.643 124.879 350.125 127.192 350.748 128.142C351.371 129.091 354.893 128.381 354.558 127.139Z" fill="#EF8062"/>
<path d="M342.489 142.619C342.361 142.708 342.271 142.843 342.237 142.995C342.204 143.148 342.228 143.307 342.307 143.442C342.347 143.506 342.4 143.561 342.463 143.604C342.525 143.647 342.596 143.676 342.67 143.691C342.744 143.705 342.82 143.705 342.894 143.689C342.968 143.673 343.038 143.642 343.1 143.598C343.369 143.414 343.523 143.084 343.355 142.82C343.318 142.743 343.264 142.676 343.197 142.623C343.131 142.57 343.053 142.532 342.97 142.513C342.887 142.494 342.801 142.493 342.718 142.511C342.634 142.53 342.556 142.567 342.489 142.619Z" fill="#366F90"/>
<path d="M338.191 149.784C338.062 149.873 337.972 150.008 337.938 150.161C337.905 150.314 337.93 150.474 338.009 150.609C338.049 150.673 338.102 150.728 338.165 150.77C338.227 150.813 338.297 150.843 338.372 150.857C338.446 150.872 338.522 150.871 338.596 150.855C338.67 150.839 338.74 150.808 338.801 150.764C339.071 150.582 339.225 150.252 339.057 149.986C339.019 149.91 338.965 149.843 338.899 149.79C338.832 149.737 338.755 149.699 338.672 149.68C338.589 149.661 338.503 149.66 338.42 149.678C338.337 149.696 338.258 149.732 338.191 149.784Z" fill="#366F90"/>
<path d="M334.082 156.261C333.968 156.367 333.899 156.514 333.891 156.67C333.882 156.826 333.934 156.979 334.035 157.098C334.086 157.154 334.148 157.2 334.217 157.232C334.286 157.264 334.361 157.281 334.437 157.284C334.513 157.286 334.588 157.272 334.659 157.245C334.73 157.217 334.794 157.175 334.848 157.121C335.085 156.896 335.186 156.547 334.974 156.309C334.924 156.24 334.858 156.184 334.783 156.143C334.708 156.103 334.625 156.079 334.539 156.075C334.454 156.07 334.369 156.084 334.29 156.116C334.211 156.149 334.14 156.198 334.082 156.261Z" fill="#366F90"/>
<path d="M352.148 129.169C351.017 132.298 347.494 145.071 358.713 159.646C359.439 160.59 359.92 161.698 360.115 162.873L360.893 167.594C360.927 167.792 360.915 167.995 360.857 168.188C360.799 168.38 360.698 168.557 360.561 168.704C360.424 168.851 360.255 168.965 360.067 169.036C359.878 169.107 359.676 169.134 359.476 169.114L354.515 168.503C352.817 168.299 351.268 167.435 350.204 166.098C346.518 161.449 339.77 144.959 350.575 127.029C351.042 126.263 351.28 127.225 351.875 127.851C352.039 128.023 352.152 128.238 352.2 128.471C352.248 128.704 352.23 128.946 352.148 129.169Z" fill="#EF8062"/>
<path d="M351.296 128.412C351.608 128.531 351.94 128.584 352.273 128.568C352.28 128.568 352.288 128.566 352.295 128.562C352.302 128.559 352.308 128.554 352.314 128.549C352.319 128.543 352.323 128.536 352.325 128.529C352.328 128.521 352.329 128.514 352.329 128.506C352.329 128.498 352.328 128.491 352.325 128.484C352.322 128.477 352.318 128.47 352.312 128.465C352.307 128.46 352.3 128.456 352.293 128.453C352.286 128.451 352.279 128.449 352.271 128.45C352.262 128.45 351.401 128.5 350.937 128.03C350.473 127.56 350.977 126.403 350.977 126.403C350.981 126.396 350.982 126.389 350.983 126.381C350.983 126.373 350.982 126.365 350.98 126.358C350.977 126.351 350.973 126.344 350.968 126.339C350.962 126.333 350.956 126.328 350.949 126.325C350.935 126.32 350.919 126.32 350.904 126.326C350.89 126.333 350.879 126.344 350.873 126.358C350.851 126.409 350.342 127.611 350.849 128.126C350.978 128.25 351.13 128.347 351.296 128.412Z" fill="#331832"/>
<path d="M323.474 140.017C323.454 140.017 323.434 140.01 323.417 139.998C323.395 139.983 323.38 139.959 323.376 139.933C323.371 139.907 323.377 139.88 323.392 139.858C325.765 136.668 328.612 133.86 331.834 131.53C331.856 131.516 331.883 131.51 331.908 131.515C331.934 131.519 331.957 131.534 331.973 131.555C331.98 131.566 331.986 131.578 331.989 131.59C331.992 131.603 331.992 131.616 331.99 131.629C331.988 131.642 331.983 131.654 331.976 131.665C331.969 131.676 331.96 131.685 331.949 131.692C328.744 134.008 325.914 136.801 323.555 139.975C323.546 139.988 323.534 139.998 323.52 140.005C323.506 140.013 323.49 140.017 323.474 140.017Z" fill="#366F90"/>
<path d="M353.4 125.258C353.522 124.792 353.683 124.338 353.879 123.899L354.233 123.064C353.847 122.851 350.842 123.032 350.377 123.359C349.911 123.686 348.522 125.746 349.067 126.327C349.612 126.908 352.627 125.704 352.96 125.606C353.147 125.552 353.304 125.427 353.4 125.258Z" fill="#6DBCDE"/>
<path d="M352.889 112.576C352.461 113.496 352.223 114.493 352.191 115.507C352.132 117.207 354.702 113.54 354.702 113.54L352.889 112.576Z" fill="#5C305D"/>
<path d="M360.724 119.32C361.967 116.286 361.014 113.025 358.595 112.035C356.176 111.045 353.208 112.701 351.965 115.734C350.722 118.768 351.676 122.029 354.094 123.019C356.513 124.01 359.482 122.353 360.724 119.32Z" fill="#FFB27D"/>
<path d="M361.314 117.498L359.121 116.784C358.882 116.707 358.664 116.576 358.484 116.4C358.305 116.225 358.169 116.009 358.087 115.772C357.804 114.935 357.34 114.437 355.222 114.075C352.54 113.618 351.173 111.621 351.227 110.133C351.282 108.614 352.876 107.912 354.046 108.887C355.215 109.863 355.049 108.039 356.374 108.128C358.853 108.296 358.85 110.29 360.828 110.642C363.421 111.109 367.552 114.083 364.254 118.278L361.314 117.498Z" fill="#331832"/>
<path d="M355.674 117.412C355.659 117.41 355.645 117.404 355.633 117.395C355.622 117.386 355.613 117.373 355.607 117.36C355.597 117.335 355.596 117.308 355.605 117.284C355.614 117.259 355.632 117.239 355.655 117.227C355.854 117.108 356.087 117.059 356.317 117.091C356.547 117.122 356.759 117.23 356.918 117.398C356.937 117.417 356.947 117.442 356.947 117.468C356.947 117.495 356.937 117.52 356.918 117.539C356.9 117.556 356.876 117.566 356.851 117.568C356.826 117.569 356.801 117.561 356.781 117.546C356.457 117.382 356.088 117.332 355.732 117.403C355.714 117.412 355.694 117.416 355.674 117.412Z" fill="#080435"/>
<path d="M356.272 118.563C356.159 118.773 355.949 118.874 355.804 118.804C355.66 118.734 355.63 118.493 355.742 118.284C355.854 118.076 356.064 117.965 356.209 118.043C356.354 118.121 356.384 118.353 356.272 118.563Z" fill="#080435"/>
<path d="M352.899 116.242C352.889 116.234 352.882 116.223 352.879 116.211C352.875 116.199 352.875 116.186 352.878 116.174C352.882 116.149 352.894 116.126 352.912 116.108C352.929 116.09 352.952 116.078 352.976 116.074C353.067 116.053 353.162 116.053 353.253 116.071C353.344 116.09 353.43 116.128 353.506 116.183C353.581 116.238 353.644 116.308 353.69 116.389C353.736 116.47 353.764 116.56 353.772 116.653C353.775 116.678 353.771 116.703 353.759 116.725C353.747 116.747 353.729 116.765 353.707 116.776C353.698 116.781 353.688 116.784 353.678 116.785C353.667 116.786 353.657 116.784 353.648 116.78C353.638 116.777 353.629 116.771 353.622 116.763C353.615 116.756 353.61 116.747 353.607 116.737C353.538 116.613 353.444 116.506 353.329 116.423C353.215 116.34 353.084 116.282 352.945 116.255C352.937 116.256 352.929 116.256 352.92 116.254C352.912 116.252 352.905 116.248 352.899 116.242Z" fill="#080435"/>
<path d="M353.366 117.388C353.339 117.623 353.182 117.802 353.016 117.788C352.849 117.774 352.735 117.574 352.762 117.339C352.788 117.104 352.945 116.924 353.112 116.938C353.279 116.952 353.392 117.153 353.366 117.388Z" fill="#080435"/>
<path d="M364.257 118.278C364.257 118.278 361.883 121.391 359.62 121.182C359.62 121.182 362.027 118.933 358.654 116.544C358.654 116.544 362.233 116.712 364.257 118.278Z" fill="#5C305D"/>
<path d="M360.699 119.525C360.154 119.733 359.58 119.506 359.415 119.017C359.25 118.529 359.558 117.962 360.103 117.753C360.648 117.545 361.223 117.772 361.386 118.261C361.55 118.75 361.243 119.316 360.699 119.525Z" fill="#FFB27D"/>
<path d="M358.654 116.544C358.654 116.544 358.266 119.501 357.564 119.922C356.862 120.342 353.026 119.786 351.428 118.714C350.961 120.563 351.839 122.47 353.548 123.153C354.123 123.382 354.735 123.509 355.354 123.528C356.642 123.565 357.967 123.295 358.757 122.224C358.998 121.898 359.068 119.601 359.068 119.601C359.068 119.601 359.208 118.272 360.101 117.753C360.102 117.753 359.442 116.795 358.654 116.544Z" fill="#5C305D"/>
<path d="M354.506 108.739C354.672 108.758 354.84 108.721 354.983 108.634C355.126 108.546 355.236 108.414 355.295 108.257L355.172 108.218C355.164 108.238 354.99 108.732 354.383 108.582L354.347 108.711C354.399 108.725 354.452 108.734 354.506 108.739Z" fill="#331832"/>
<path d="M354.652 113.151L354.685 113.093C354.659 113.078 352.038 111.621 352.276 110.101C352.343 109.673 352.478 109.407 352.689 109.289C353.028 109.099 353.509 109.329 353.934 109.532C353.998 109.563 354.062 109.594 354.124 109.622L354.152 109.561L353.962 109.471C353.523 109.261 353.028 109.024 352.657 109.231C352.427 109.36 352.281 109.642 352.21 110.094C352.108 110.743 352.499 111.479 353.341 112.22C353.747 112.572 354.186 112.884 354.652 113.151Z" fill="white"/>
<path d="M361.618 111.396L361.805 111.412V111.345C358.949 111.149 358.005 109.273 357.996 109.255L357.937 109.286C357.952 109.304 358.874 111.129 361.618 111.396Z" fill="white"/>
<path d="M353.902 121.021C354.316 121.064 354.735 121.014 355.127 120.874C355.154 120.863 355.176 120.841 355.188 120.814C355.201 120.787 355.202 120.756 355.193 120.728C355.188 120.714 355.181 120.702 355.171 120.691C355.162 120.681 355.15 120.672 355.137 120.666C355.124 120.66 355.11 120.657 355.096 120.657C355.081 120.657 355.067 120.66 355.054 120.666C354.651 120.801 354.221 120.838 353.8 120.774C353.38 120.71 352.981 120.545 352.637 120.295C352.625 120.286 352.612 120.28 352.597 120.276C352.583 120.273 352.568 120.273 352.553 120.275C352.538 120.278 352.524 120.283 352.512 120.292C352.5 120.3 352.489 120.311 352.481 120.323C352.472 120.335 352.466 120.348 352.462 120.362C352.458 120.376 352.457 120.391 352.459 120.405C352.461 120.42 352.466 120.434 352.473 120.446C352.48 120.459 352.49 120.47 352.502 120.479C352.909 120.785 353.394 120.973 353.902 121.021Z" fill="#FFB27D"/>
<path d="M327.516 170.307C327.465 170.307 327.415 170.291 327.373 170.262C327.345 170.243 327.322 170.219 327.303 170.191C327.285 170.163 327.272 170.132 327.266 170.099C327.26 170.066 327.26 170.032 327.267 169.999C327.274 169.967 327.287 169.936 327.306 169.908C328.784 167.751 331.327 166.733 331.434 166.691C331.465 166.678 331.499 166.671 331.533 166.671C331.566 166.671 331.6 166.678 331.63 166.691C331.661 166.705 331.689 166.724 331.712 166.749C331.735 166.773 331.753 166.802 331.765 166.834C331.777 166.865 331.783 166.898 331.783 166.932C331.782 166.965 331.775 166.998 331.762 167.029C331.748 167.059 331.729 167.087 331.705 167.11C331.681 167.134 331.652 167.152 331.621 167.164C331.595 167.175 329.114 168.17 327.728 170.198C327.704 170.231 327.672 170.259 327.636 170.278C327.599 170.297 327.558 170.307 327.516 170.307Z" fill="#331832"/>
<path d="M286.151 134.186C294.246 137.644 302.515 140.682 310.924 143.285C318.555 145.67 326.287 147.549 333.985 149.667C335.953 150.209 337.948 150.912 339.49 152.313C340.779 153.471 341.67 154.983 342.235 156.612C343.411 160.037 343.255 163.695 342.964 167.243C342.653 171.135 342.212 175.197 343.397 178.997C344.428 182.297 346.711 184.888 349.408 186.968C355.37 191.566 365.083 194.716 366.265 203.266C366.352 203.9 367.313 203.631 367.227 203.002C366.216 195.686 358.92 191.985 353.322 188.456C350.235 186.512 347.124 184.267 345.328 181.006C343.249 177.23 343.512 172.782 343.847 168.633C344.364 162.23 344.844 153.873 338.275 150.248C336.562 149.304 334.661 148.803 332.781 148.332C330.901 147.86 329.014 147.385 327.136 146.893C323.185 145.856 319.252 144.757 315.336 143.598C305.601 140.698 295.988 137.353 286.655 133.334C286.071 133.084 285.565 133.941 286.151 134.195V134.186Z" fill="#331832"/>
<path d="M343.813 150.514C342.767 150.005 340.481 149.485 339.423 148.996C338.966 148.785 337.379 148.182 337.111 148.629C336.879 149.018 337.916 150.12 338.472 150.584C334.423 151.348 334.845 152.369 337.645 152.853V152.866C336.952 153.022 334.569 153.241 335.088 154.39C335.468 155.23 336.918 155.037 338.062 154.798L338.072 154.83C336.929 155.179 335.924 155.621 336.25 156.443C336.679 157.532 339.126 156.609 339.126 156.609C339.126 156.609 337.458 157.232 338.036 157.789C338.572 158.311 340.872 157.658 340.872 157.658C341.158 157.571 344.581 155.921 344.581 155.921C344.581 155.921 346.294 155.112 345.891 152.998C345.625 151.65 344.268 150.735 343.813 150.514Z" fill="#FFB27D"/>
<path d="M344.612 149.342C345.585 148.408 356.554 151.879 356.653 149.946C356.754 147.974 352.528 139.816 352.528 139.816L356.809 125.382C356.809 125.382 366.316 131.278 367.877 141.103C369.437 150.928 369.188 157.352 365.242 160.594C360.402 164.571 346.087 161.189 344.24 158.932C341.459 155.526 343.637 150.273 344.612 149.342Z" fill="#58A1C7"/>
<path d="M347.783 160.855C347.775 160.857 347.766 160.857 347.758 160.855C347.717 160.855 343.597 159.766 342.851 155.898C342.847 155.872 342.853 155.845 342.867 155.824C342.882 155.802 342.905 155.787 342.93 155.781C342.943 155.777 342.957 155.777 342.971 155.779C342.984 155.781 342.997 155.786 343.008 155.794C343.019 155.802 343.028 155.812 343.035 155.824C343.042 155.835 343.046 155.849 343.047 155.862C343.768 159.598 347.767 160.653 347.808 160.664C347.82 160.667 347.832 160.673 347.843 160.68C347.853 160.688 347.862 160.698 347.869 160.709C347.875 160.72 347.88 160.732 347.882 160.745C347.883 160.758 347.883 160.771 347.879 160.784C347.873 160.805 347.86 160.823 347.843 160.836C347.826 160.848 347.804 160.855 347.783 160.855Z" fill="#366F90"/>
<path d="M354.189 150.592H354.174C354.11 150.582 347.8 149.56 346.032 149.315C345.025 149.175 344.66 149.357 344.531 149.471C344.501 149.496 344.476 149.526 344.459 149.561C344.441 149.596 344.431 149.634 344.428 149.673C344.43 149.686 344.428 149.699 344.424 149.712C344.421 149.724 344.414 149.736 344.406 149.746C344.397 149.756 344.387 149.764 344.375 149.77C344.364 149.776 344.351 149.78 344.338 149.781C344.312 149.782 344.287 149.774 344.267 149.758C344.247 149.742 344.234 149.719 344.231 149.693C344.229 149.626 344.242 149.559 344.269 149.497C344.296 149.434 344.336 149.379 344.386 149.334C344.656 149.068 345.223 148.995 346.057 149.113C347.828 149.356 354.14 150.378 354.204 150.389C354.216 150.391 354.229 150.396 354.24 150.402C354.251 150.409 354.261 150.418 354.269 150.429C354.276 150.439 354.282 150.451 354.285 150.464C354.288 150.477 354.288 150.49 354.286 150.503C354.283 150.527 354.272 150.549 354.254 150.565C354.237 150.582 354.214 150.591 354.189 150.592Z" fill="#366F90"/>
<path d="M356.253 148.204C356.233 148.204 356.214 148.198 356.197 148.187C356.181 148.176 356.168 148.16 356.16 148.142L354.59 144.303C354.58 144.279 354.581 144.251 354.591 144.227C354.601 144.202 354.621 144.183 354.646 144.173C354.67 144.163 354.698 144.164 354.722 144.174C354.746 144.184 354.766 144.204 354.776 144.229L356.345 148.072C356.35 148.084 356.353 148.097 356.353 148.11C356.353 148.123 356.35 148.136 356.345 148.148C356.34 148.16 356.333 148.171 356.323 148.18C356.314 148.189 356.303 148.196 356.291 148.201C356.279 148.205 356.266 148.206 356.253 148.204Z" fill="#366F90"/>
<path d="M353.247 124.985C353.247 124.985 355.895 125.119 356.876 124.419C357.857 123.718 359.075 127.502 358.763 128.167C357.874 130.069 352.467 129.943 352.378 129.329C352.29 128.716 352.305 125.297 353.247 124.985Z" fill="#6DBCDE"/>
<path d="M287.239 138.01C287.239 138.01 284.562 137.984 284.773 135.692C285.042 132.772 288.354 129.186 288.219 131.035C288.091 132.676 287.316 135.004 287.316 135.004C287.316 135.004 289.376 129.105 290.513 129.841C291.65 130.578 289.807 135.63 289.807 135.63C289.807 135.63 292.381 130.027 293.191 131.063C294.001 132.1 292.357 136.696 292.357 136.696C292.357 136.696 294.565 131.115 295.471 132.338C296.377 133.562 294.627 136.275 294.154 137.563C293.705 138.781 292.738 138.964 291.539 138.552C291.539 138.552 290.044 138.813 289.346 138.357C289.078 138.181 288.677 138.377 288.445 138.345C288.035 138.263 287.632 138.152 287.239 138.01Z" fill="#F8A16A"/>
<path d="M137.832 115.075C136.713 115.817 136.159 116.192 135.066 116.955C135.306 117.682 135.426 118.044 135.664 118.774C135.008 119.241 134.683 119.466 134.038 119.933C132.959 116.331 132.404 114.533 131.268 110.947C131.866 110.528 132.166 110.324 132.772 109.908C136.242 111.895 137.922 112.937 141.163 115.107C140.476 115.542 140.135 115.761 139.459 116.197C138.813 115.749 138.487 115.523 137.832 115.075ZM134.575 115.484C135.34 114.953 135.725 114.692 136.502 114.17C135.298 113.367 134.687 112.97 133.452 112.19C133.907 113.507 134.131 114.166 134.575 115.484Z" fill="white"/>
<path d="M143.147 111.28C142.33 108.634 141.901 107.304 141.042 104.663C141.82 104.207 142.205 103.981 142.988 103.534C143.938 107.152 144.39 108.964 145.281 112.592C144.586 113.001 144.24 113.215 143.555 113.622C140.416 111.35 138.788 110.251 135.42 108.148C136.16 107.665 136.533 107.427 137.289 106.954C139.692 108.641 140.866 109.507 143.147 111.28Z" fill="white"/>
<path d="M151.883 104.556C150.508 105.251 149.828 105.608 148.482 106.332C149.018 107.138 149.284 107.541 149.809 108.355C151.366 107.518 152.167 107.11 153.771 106.311C154.082 106.82 154.238 107.076 154.549 107.586C152.246 108.726 151.114 109.317 148.893 110.544C146.939 107.529 145.919 106.03 143.79 103.086C146.086 101.794 147.255 101.169 149.635 99.9607C149.977 100.465 150.147 100.719 150.483 101.225C148.847 102.053 148.037 102.47 146.434 103.345C146.93 104.056 147.174 104.412 147.658 105.127C149.013 104.395 149.697 104.037 151.084 103.335C151.408 103.818 151.567 104.064 151.883 104.556Z" fill="white"/>
<path d="M157.136 102.694C156.551 102.963 156.259 103.1 155.679 103.376C156.372 104.509 156.713 105.077 157.384 106.218C156.664 106.556 156.306 106.727 155.593 107.072C153.737 103.977 152.763 102.442 150.729 99.405C152.059 98.7419 152.731 98.4166 154.087 97.7815C154.569 97.5488 155.08 97.3788 155.605 97.2756C156.049 97.1853 156.506 97.1732 156.954 97.2398C157.511 97.3429 158.026 97.6028 158.44 97.9888C158.854 98.3749 159.149 98.8711 159.29 99.419C159.349 99.665 159.362 99.9202 159.326 100.171C159.289 100.413 159.209 100.647 159.091 100.862C158.961 101.094 158.804 101.309 158.623 101.503C160.165 102.437 160.925 102.904 162.423 103.875L162.465 103.952C161.669 104.289 161.274 104.461 160.488 104.808C159.162 103.948 158.494 103.522 157.136 102.694ZM154.88 102.085C155.471 101.804 155.769 101.663 156.367 101.388C156.581 101.294 156.779 101.167 156.954 101.011C157.091 100.889 157.197 100.738 157.265 100.568C157.326 100.412 157.345 100.244 157.322 100.079C157.292 99.8948 157.225 99.7188 157.124 99.5622C157.028 99.392 156.898 99.2427 156.744 99.1229C156.589 99.0032 156.412 98.9155 156.224 98.8648C155.848 98.7668 155.408 98.8337 154.906 99.0672C154.305 99.3489 154.006 99.489 153.411 99.7754C154.009 100.697 154.302 101.158 154.88 102.085Z" fill="white"/>
<path d="M167.838 99.7956C166.488 100.303 165.814 100.565 164.49 101.1C164.599 101.86 164.646 102.239 164.758 102.999C163.96 103.323 163.565 103.488 162.775 103.819C162.361 100.084 162.14 98.2158 161.665 94.4692C162.391 94.1734 162.755 94.0271 163.484 93.7407C166.779 96.3619 168.363 97.713 171.404 100.482C170.581 100.773 170.169 100.921 169.355 101.221C168.748 100.649 168.444 100.362 167.838 99.7956ZM164.256 99.5606C165.191 99.1886 165.658 99.0065 166.592 98.6469C165.466 97.6227 164.896 97.1169 163.736 96.1113C163.945 97.4904 164.055 98.18 164.256 99.5606Z" fill="white"/>
<path d="M179.249 96.748C179.168 96.9325 179.067 97.1074 178.948 97.2695C178.78 97.4938 178.585 97.6962 178.367 97.8719C178.076 98.1086 177.763 98.3171 177.433 98.4945C177.001 98.7212 176.549 98.9073 176.083 99.0502C175.496 99.2413 174.882 99.3374 174.265 99.335C173.688 99.3304 173.117 99.2179 172.582 99.0034C172.039 98.78 171.542 98.4575 171.116 98.0524C170.642 97.5965 170.246 97.0647 169.947 96.4788C169.846 96.2873 169.791 96.1908 169.693 95.9993C169.385 95.4483 169.179 94.8461 169.086 94.2218C169.011 93.7083 169.064 93.1842 169.241 92.6964C169.425 92.2223 169.728 91.8036 170.121 91.4807C170.582 91.1045 171.111 90.8197 171.679 90.6417C172.254 90.4411 172.856 90.3236 173.465 90.2931C173.966 90.2703 174.467 90.334 174.946 90.4814C175.378 90.619 175.781 90.836 176.134 91.1212C176.486 91.4072 176.791 91.7458 177.039 92.1251C176.238 92.3664 175.84 92.4878 175.045 92.7368C174.907 92.5508 174.747 92.3819 174.569 92.2341C174.398 92.096 174.203 91.9905 173.994 91.9228C173.769 91.8496 173.533 91.8174 173.297 91.8278C173.012 91.8383 172.731 91.8907 172.462 91.9835C171.766 92.2123 171.356 92.6061 171.228 93.1664C171.101 93.7268 171.264 94.4304 171.708 95.2865C171.811 95.4841 171.864 95.5822 171.964 95.7814C172.406 96.6375 172.923 97.2228 173.521 97.5356C174.119 97.8485 174.788 97.8859 175.531 97.6493C175.739 97.5855 175.941 97.5059 176.136 97.4111C176.279 97.3419 176.416 97.2607 176.545 97.1683C176.638 97.1018 176.723 97.0251 176.799 96.9395C176.854 96.8773 176.901 96.8089 176.939 96.7356C176.667 96.1628 176.53 95.8779 176.251 95.3067C175.517 95.5339 175.151 95.6507 174.422 95.8857C174.173 95.3861 174.047 95.1355 173.8 94.6405C175.337 94.1408 176.112 93.8996 177.676 93.4342C178.319 94.7494 178.633 95.4141 179.249 96.748Z" fill="white"/>
<path d="M185.766 92.1017C184.153 92.4955 183.352 92.701 181.764 93.1322C182.178 94.0334 182.387 94.4848 182.782 95.3876C184.631 94.8942 185.564 94.6591 187.443 94.2171C187.682 94.7821 187.798 95.0638 188.031 95.6304C185.33 96.2608 183.997 96.6032 181.365 97.3426C179.87 93.982 179.078 92.3088 177.4 88.984C180.118 88.187 181.493 87.815 184.281 87.1255C184.545 87.6921 184.676 87.9754 184.936 88.5419C183.018 89.0089 182.068 89.2595 180.182 89.7794C180.568 90.5794 180.758 90.9795 181.133 91.7795C182.733 91.3437 183.536 91.1336 185.159 90.7351C185.405 91.2783 185.526 91.5523 185.766 92.1017Z" fill="white"/>
<path d="M93.938 177.739L96.9809 178.703C96.7551 179.417 96.6446 179.774 96.4281 180.491L87.7617 177.887C88.1993 176.435 88.4267 175.708 88.9032 174.273C89.0587 173.776 89.2955 173.308 89.604 172.889C89.8644 172.536 90.1927 172.239 90.5695 172.014C90.9161 171.813 91.3037 171.694 91.7033 171.664C92.1139 171.637 92.5257 171.696 92.9117 171.838C93.2971 171.97 93.6501 172.183 93.9473 172.461C94.2259 172.727 94.4392 173.053 94.5702 173.415C94.7086 173.81 94.7699 174.227 94.7509 174.645C94.7299 175.143 94.6359 175.635 94.4721 176.106C94.2494 176.76 94.1451 177.087 93.938 177.739ZM92.4975 177.285C92.7062 176.623 92.8089 176.295 93.0316 175.636C93.1114 175.408 93.1555 175.168 93.1624 174.926C93.1682 174.736 93.1326 174.547 93.0581 174.372C92.9878 174.215 92.8811 174.076 92.7466 173.968C92.6026 173.853 92.4398 173.765 92.2654 173.706C92.0847 173.643 91.8946 173.611 91.7033 173.611C91.5148 173.609 91.3283 173.649 91.1566 173.726C90.9734 173.813 90.8113 173.938 90.6817 174.094C90.524 174.286 90.406 174.508 90.3344 174.746C90.1117 175.417 90.0027 175.753 89.7893 176.429L92.4975 177.285Z" fill="white"/>
<path d="M97.8766 164.039C98.4595 164.283 98.9974 164.624 99.4681 165.046C99.8715 165.407 100.2 165.843 100.434 166.331C100.65 166.791 100.764 167.293 100.768 167.801C100.761 168.883 100.343 169.921 99.5989 170.707C99.2419 171.071 98.8121 171.355 98.3375 171.541C97.83 171.735 97.2891 171.827 96.746 171.812C96.1133 171.795 95.4881 171.67 94.8975 171.443L94.5237 171.306C93.9272 171.097 93.3721 170.786 92.8839 170.385C92.4575 170.035 92.1095 169.599 91.8623 169.107C91.6284 168.63 91.5049 168.107 91.501 167.577C91.5065 166.423 91.952 165.314 92.7468 164.478C93.1184 164.098 93.5701 163.806 94.069 163.623C94.5886 163.44 95.1407 163.367 95.6901 163.408C96.32 163.457 96.9365 163.615 97.5122 163.875L97.8766 164.039ZM96.7273 165.679C95.8531 165.312 95.1196 165.198 94.5268 165.338C94.2424 165.42 93.9805 165.566 93.7608 165.765C93.5412 165.963 93.3696 166.209 93.2592 166.483C93.1487 166.758 93.1022 167.054 93.1233 167.349C93.1443 167.644 93.2323 167.931 93.3806 168.187C93.7092 168.699 94.315 169.121 95.2042 169.465L95.5873 169.611C95.9786 169.768 96.3876 169.876 96.8051 169.933C97.1364 169.98 97.4734 169.968 97.8003 169.896C98.0783 169.833 98.3363 169.702 98.5509 169.514C98.769 169.316 98.9371 169.069 99.0414 168.794C99.1615 168.531 99.2123 168.242 99.1892 167.955C99.166 167.667 99.0696 167.39 98.9091 167.15C98.5805 166.644 97.9747 166.204 97.1057 165.838C96.9546 165.774 96.8799 165.741 96.7273 165.679Z" fill="white"/>
<path d="M101.799 155.822C102.364 156.105 102.879 156.481 103.321 156.933C103.698 157.321 103.996 157.779 104.197 158.281C104.381 158.755 104.46 159.262 104.431 159.769C104.353 160.849 103.866 161.858 103.07 162.591C102.689 162.93 102.241 163.184 101.755 163.338C101.235 163.496 100.689 163.549 100.148 163.494C99.5185 163.434 98.9034 163.268 98.3294 163.002L97.9666 162.846C97.3855 162.597 96.8522 162.249 96.3906 161.818C95.9893 161.439 95.6711 160.982 95.4562 160.474C95.2544 159.981 95.1661 159.449 95.1977 158.918C95.2816 157.767 95.8006 156.692 96.6491 155.91C97.045 155.556 97.5154 155.295 98.0257 155.146C98.557 154.998 99.1134 154.962 99.6593 155.04C100.285 155.132 100.889 155.332 101.446 155.632C101.587 155.717 101.653 155.753 101.799 155.822ZM100.542 157.378C99.6952 156.953 98.9695 156.788 98.3621 156.891C98.0729 156.954 97.8019 157.082 97.5696 157.265C97.3372 157.448 97.1496 157.682 97.021 157.948C96.8924 158.215 96.8261 158.507 96.8273 158.803C96.8284 159.098 96.8969 159.39 97.0275 159.655C97.3213 160.189 97.8996 160.656 98.7623 161.056L99.1345 161.229C99.5142 161.412 99.9148 161.547 100.327 161.632C100.655 161.701 100.992 161.711 101.323 161.662C101.605 161.618 101.873 161.504 102.101 161.332C102.332 161.148 102.516 160.913 102.638 160.645C102.776 160.391 102.846 160.106 102.842 159.818C102.838 159.529 102.761 159.246 102.617 158.996C102.324 158.469 101.754 157.99 100.904 157.565L100.542 157.378Z" fill="white"/>
<path d="M105.003 152.036C104.701 152.569 104.551 152.836 104.257 153.37L107.158 154.969C106.797 155.624 106.618 155.954 106.266 156.614L98.2783 152.361C98.9573 151.088 99.3046 150.456 100.016 149.2C100.261 148.755 100.565 148.345 100.919 147.981C101.209 147.681 101.555 147.441 101.938 147.275C102.282 147.131 102.657 147.075 103.028 147.11C103.433 147.154 103.822 147.29 104.166 147.507C104.427 147.659 104.665 147.848 104.872 148.067C105.049 148.259 105.195 148.478 105.302 148.716C105.403 148.948 105.467 149.194 105.493 149.446C105.52 149.712 105.517 149.981 105.484 150.246C107.171 150.293 108.01 150.327 109.689 150.417C109.718 150.436 109.732 150.445 109.763 150.463C109.346 151.151 109.14 151.496 108.736 152.19C107.247 152.112 106.499 152.086 105.003 152.036ZM102.933 152.642C103.235 152.094 103.389 151.821 103.698 151.275C103.813 151.082 103.896 150.872 103.945 150.652C103.984 150.471 103.984 150.283 103.945 150.101C103.909 149.931 103.833 149.771 103.724 149.634C103.607 149.488 103.462 149.366 103.299 149.273C103.144 149.171 102.969 149.103 102.786 149.073C102.602 149.044 102.415 149.053 102.235 149.101C101.894 149.2 101.591 149.482 101.329 149.946C101.018 150.498 100.862 150.777 100.55 151.333L102.933 152.642Z" fill="white"/>
<path d="M236.686 98.2781C236.49 98.3727 236.286 98.4503 236.076 98.51C235.79 98.5889 235.497 98.6374 235.201 98.6548C234.818 98.6772 234.435 98.6657 234.055 98.6205C233.574 98.5636 233.099 98.463 232.636 98.3201C232.069 98.1586 231.535 97.9006 231.057 97.5574C230.622 97.2472 230.266 96.8403 230.016 96.369C229.766 95.8976 229.629 95.3746 229.616 94.8413C229.604 94.2035 229.714 93.5694 229.942 92.9734C230.015 92.7695 230.052 92.6621 230.127 92.4629C230.343 91.8379 230.671 91.2576 231.096 90.7507C231.47 90.2999 231.936 89.9329 232.462 89.6735C232.987 89.4142 233.562 89.2684 234.148 89.2455C234.781 89.2195 235.413 89.3048 236.017 89.4977C236.589 89.6606 237.131 89.9127 237.624 90.2448C237.998 90.5004 238.31 90.8352 238.54 91.2255C238.739 91.5711 238.853 91.9598 238.871 92.3586C238.887 92.7806 238.828 93.202 238.698 93.6038C237.92 93.3314 237.532 93.1991 236.746 92.9423C236.797 92.7331 236.818 92.5177 236.808 92.3026C236.8 92.1073 236.746 91.9165 236.652 91.7453C236.544 91.5619 236.396 91.405 236.219 91.2862C235.99 91.1314 235.737 91.0142 235.47 90.939C234.762 90.7211 234.128 90.7834 233.575 91.1398C233.022 91.4963 232.567 92.1173 232.222 93.0201L232.022 93.5385C231.681 94.4444 231.63 95.1806 231.845 95.7518C232.06 96.3231 232.535 96.7153 233.27 96.9379C233.474 97.001 233.682 97.0499 233.893 97.0842C234.053 97.1105 234.216 97.123 234.378 97.1216C234.501 97.1211 234.624 97.1086 234.744 97.0842C234.833 97.0663 234.919 97.0397 235.001 97.0049C235.235 96.418 235.353 96.1254 235.593 95.5402C234.875 95.3067 234.514 95.1931 233.787 94.9736C233.989 94.4537 234.098 94.1953 234.302 93.6754C235.844 94.1424 236.607 94.393 238.111 94.9207C237.529 96.253 237.242 96.927 236.686 98.2781Z" fill="white"/>
<path d="M247.071 98.9971C246.773 99.5684 246.385 100.087 245.92 100.533C245.515 100.924 245.039 101.233 244.518 101.446C244.023 101.642 243.494 101.739 242.961 101.729C242.393 101.715 241.832 101.595 241.307 101.376C240.784 101.17 240.305 100.865 239.896 100.479C239.517 100.12 239.22 99.6839 239.026 99.1995C238.829 98.6928 238.743 98.1498 238.775 97.6071C238.814 96.9725 238.972 96.3509 239.242 95.7751L239.407 95.4078C239.669 94.811 240.039 94.2676 240.497 93.8045C240.914 93.3852 241.41 93.0534 241.957 92.8286C242.501 92.6123 243.084 92.5101 243.67 92.5282C244.287 92.5454 244.896 92.679 245.464 92.922C246.019 93.1434 246.525 93.4749 246.949 93.8964C247.327 94.273 247.61 94.7347 247.773 95.2428C247.931 95.7666 247.97 96.3192 247.887 96.86C247.786 97.4863 247.576 98.0898 247.264 98.6422L247.071 98.9971ZM245.392 97.7846C245.833 96.9301 246.004 96.2063 245.89 95.6148C245.777 95.0233 245.392 94.5844 244.735 94.3104C244.442 94.1755 244.122 94.1102 243.799 94.1197C243.477 94.1291 243.161 94.213 242.877 94.3649C242.298 94.6762 241.798 95.263 241.387 96.1347C241.315 96.2903 241.281 96.3604 241.209 96.5098C241.024 96.8913 240.891 97.296 240.813 97.713C240.748 98.0402 240.748 98.3773 240.813 98.7045C240.873 98.9865 241.006 99.2479 241.198 99.4625C241.407 99.689 241.666 99.8642 241.953 99.9746C242.232 100.102 242.537 100.161 242.843 100.147C243.149 100.133 243.447 100.047 243.713 99.8952C244.262 99.5839 244.757 99.0034 245.197 98.1535L245.392 97.7846Z" fill="white"/>
<path d="M255.419 103.357C255.08 103.9 254.656 104.384 254.164 104.792C253.74 105.144 253.252 105.413 252.728 105.583C252.231 105.741 251.706 105.794 251.188 105.739C250.086 105.604 249.072 105.07 248.338 104.238C248.003 103.846 247.756 103.387 247.614 102.892C247.467 102.369 247.432 101.821 247.511 101.284C247.607 100.656 247.819 100.051 248.134 99.4999L248.328 99.1466C248.632 98.5757 249.038 98.0651 249.526 97.6399C249.965 97.2593 250.477 96.9718 251.03 96.7947C251.572 96.6265 252.143 96.5735 252.706 96.6391C253.307 96.7085 253.889 96.8935 254.419 97.1838C254.939 97.4513 255.398 97.8221 255.769 98.2734C256.104 98.6827 256.335 99.1663 256.444 99.6836C256.55 100.219 256.537 100.771 256.406 101.301C256.254 101.915 255.995 102.498 255.643 103.024L255.419 103.357ZM253.896 102.009C254.4 101.197 254.632 100.491 254.576 99.8922C254.52 99.2929 254.19 98.8244 253.577 98.4991C253.305 98.34 253 98.2478 252.686 98.2299C252.372 98.2121 252.058 98.2691 251.77 98.3964C251.18 98.6548 250.647 99.2001 250.169 100.032C250.087 100.175 250.045 100.249 249.964 100.393C249.748 100.758 249.582 101.149 249.468 101.556C249.378 101.877 249.35 102.213 249.384 102.545C249.417 102.829 249.521 103.1 249.688 103.332C249.869 103.573 250.103 103.769 250.373 103.903C250.631 104.054 250.922 104.139 251.221 104.151C251.52 104.163 251.817 104.101 252.086 103.972C252.645 103.71 253.176 103.173 253.681 102.361L253.896 102.009Z" fill="white"/>
<path d="M254.315 107.745C256.222 104.661 257.228 103.139 259.341 100.144C260.384 100.782 260.898 101.108 261.913 101.772C262.434 102.1 262.883 102.529 263.236 103.033C263.554 103.482 263.767 103.997 263.859 104.54C263.939 105.076 263.902 105.624 263.753 106.145C263.583 106.724 263.304 107.266 262.932 107.742L262.684 108.069C262.327 108.558 261.885 108.98 261.379 109.314C260.924 109.614 260.414 109.822 259.878 109.927C259.35 110.025 258.808 110.017 258.283 109.902C257.717 109.778 257.178 109.55 256.695 109.23C255.751 108.621 255.278 108.325 254.315 107.745ZM260.176 102.464C258.755 104.448 258.067 105.452 256.739 107.479C257.05 107.675 257.206 107.774 257.517 107.974C258.149 108.383 258.763 108.497 259.367 108.316C259.972 108.136 260.54 107.681 261.08 106.946C261.18 106.809 261.236 106.739 261.331 106.602C261.876 105.857 262.135 105.181 262.082 104.579C262.029 103.976 261.678 103.439 261.018 103.008C260.677 102.784 260.51 102.677 260.176 102.464Z" fill="white"/>
<path d="M104.129 111.722C103.823 111.722 103.523 111.639 103.26 111.482C102.998 111.326 102.782 111.101 102.637 110.831C102.492 110.562 102.422 110.259 102.435 109.953C102.448 109.648 102.544 109.352 102.712 109.096C102.961 108.718 128.395 71.132 193.103 67.647C194.064 67.5396 194.838 68.3131 194.887 69.2486C194.9 69.471 194.868 69.6935 194.794 69.9036C194.72 70.1136 194.605 70.307 194.456 70.4727C194.307 70.6384 194.127 70.7731 193.926 70.8691C193.725 70.9652 193.507 71.0207 193.285 71.0324C130.269 74.4288 105.788 110.593 105.546 110.958C105.392 111.193 105.182 111.386 104.935 111.519C104.687 111.653 104.41 111.722 104.129 111.722Z" fill="#EA985F"/>
<path d="M300.575 111.126C300.339 111.126 300.106 111.073 299.893 110.973C299.68 110.872 299.491 110.726 299.342 110.544C266.713 70.9904 213.623 70.4845 213.092 70.4845C212.668 70.4845 212.262 70.3163 211.962 70.0168C211.662 69.7173 211.494 69.3111 211.494 68.8875C211.494 68.464 211.662 68.0578 211.962 67.7583C212.262 67.4588 212.668 67.2905 213.092 67.2905C213.64 67.2905 268.228 67.812 301.805 108.512C301.997 108.746 302.119 109.03 302.157 109.33C302.194 109.63 302.145 109.935 302.016 110.208C301.887 110.482 301.683 110.714 301.428 110.876C301.172 111.038 300.876 111.125 300.573 111.126H300.575Z" fill="#C4C67C"/>
<path d="M61.8527 202.985C61.8226 202.986 61.7924 202.986 61.7623 202.985C61.5529 202.973 61.3479 202.921 61.1588 202.83C60.9697 202.739 60.8004 202.612 60.6605 202.456C60.5207 202.3 60.413 202.118 60.3436 201.92C60.2743 201.722 60.2446 201.513 60.2564 201.303C62.9506 152.915 89.8965 122.076 90.1675 121.775C90.4519 121.471 90.8443 121.289 91.2608 121.269C91.6774 121.25 92.0851 121.394 92.3969 121.67C92.7088 121.947 92.9 122.335 92.9298 122.75C92.9596 123.166 92.8256 123.577 92.5564 123.895C92.2901 124.194 66.0745 154.248 63.4458 201.481C63.4216 201.887 63.2433 202.269 62.9473 202.548C62.6513 202.828 62.2598 202.984 61.8527 202.985Z" fill="#EF8062"/>
<path d="M184.365 147.511C181.428 142.087 173.864 124.711 172.239 124.954C170.615 125.197 179.349 141.822 184.307 151.597C185.374 153.7 186.817 152.041 184.365 147.511Z" fill="#5C2F5D"/>
<path d="M171.226 132.606C186.471 133.101 201.718 133.485 216.966 133.759C232.214 134.033 247.465 134.195 262.718 134.243C271.335 134.271 279.955 134.263 288.578 134.218C289.222 134.218 289.222 133.219 288.578 133.222C273.328 133.299 258.077 133.264 242.825 133.118C227.573 132.972 212.324 132.712 197.078 132.34C188.46 132.132 179.843 131.887 171.226 131.605C170.585 131.583 170.585 132.581 171.226 132.603V132.606Z" fill="#331832"/>
</svg>
