<svg width="301" height="288" viewBox="0 0 301 288" fill="none" xmlns="http://www.w3.org/2000/svg">
<g clip-path="url(#clip0_139_3392)">
<path d="M197.664 57.1295C197.718 56.9767 199.014 54.7596 200.687 52.3552C208.471 41.1413 220.014 30.3323 233.552 30.739V30.655C227.441 29.9847 221.434 31.6099 216.173 34.5184C207.488 39.201 199.028 48.1214 194.402 54.9792L197.664 57.1295Z" fill="#FFCB83"/>
<path d="M230.547 36.9399L231.462 30.6378L226.787 26.3084C226.667 26.1973 226.581 26.0549 226.538 25.8972C226.494 25.7396 226.496 25.573 226.543 25.4163C226.589 25.2595 226.678 25.1189 226.801 25.0103C226.923 24.9017 227.073 24.8295 227.234 24.8017L233.515 23.7246L236.189 17.9381C236.257 17.7896 236.366 17.6633 236.503 17.5734C236.639 17.4835 236.799 17.4337 236.962 17.4295C237.126 17.4253 237.287 17.467 237.428 17.5498C237.569 17.6326 237.684 17.7532 237.76 17.898L240.726 23.5393L247.055 24.2918C247.217 24.3113 247.371 24.3758 247.499 24.478C247.626 24.5802 247.723 24.7161 247.777 24.8702C247.831 25.0244 247.842 25.1907 247.806 25.3503C247.771 25.51 247.692 25.6566 247.578 25.7737L243.131 30.338L244.368 36.5885C244.399 36.7487 244.385 36.9146 244.327 37.0673C244.27 37.2199 244.17 37.3535 244.041 37.4527C243.911 37.552 243.756 37.6131 243.594 37.6291C243.431 37.6451 243.268 37.6154 243.121 37.5434L237.405 34.7227L231.844 37.8336C231.701 37.9141 231.538 37.9528 231.374 37.9453C231.21 37.9379 231.052 37.8845 230.917 37.7914C230.782 37.6983 230.675 37.5691 230.61 37.4186C230.545 37.268 230.523 37.1022 230.547 36.9399Z" fill="#FFCB83"/>
<path d="M92.551 25.0135L91.7164 28.1034L94.2144 30.2041L93.0361 33.6015L96.3857 35.0185L95.2208 38.9182L98.1446 40.6026L97.6385 44.5385L96.1489 44.3475L96.527 41.4047L93.4428 39.6267L94.5619 35.8779L91.155 34.4361L92.4574 30.6873L90.0168 28.6363L90.7902 25.7736L88.9072 24.7614L89.6176 23.438L92.551 25.0135Z" fill="#65CEFE"/>
<path d="M26.1251 229.956C27.4172 231.399 28.2523 233.193 28.5248 235.111C28.7973 237.029 28.4949 238.985 27.656 240.731C26.817 242.477 25.4791 243.935 23.8115 244.921C22.1438 245.906 20.2213 246.376 18.2871 246.269C16.3528 246.162 14.4937 245.484 12.9447 244.321C11.3958 243.157 10.2266 241.561 9.58502 239.733C8.94344 237.905 8.85827 235.928 9.34029 234.051C9.8223 232.175 10.8499 230.484 12.293 229.192C13.2513 228.333 14.3692 227.672 15.5831 227.246C16.7969 226.82 18.0828 226.637 19.3674 226.708C20.6519 226.779 21.9098 227.102 23.0694 227.659C24.2289 228.217 25.2673 228.997 26.1251 229.956Z" fill="#FFCB83"/>
<path d="M15.9668 241.141C16.8937 242.175 18.1934 242.799 19.5802 242.875C20.9669 242.951 22.327 242.472 23.3612 241.546C24.3955 240.619 25.0192 239.319 25.0951 237.932C25.1711 236.545 24.693 235.185 23.7661 234.151L15.9668 241.141Z" fill="#EFEFEF"/>
<path d="M36.4034 206.046L33.8443 204.595C33.1747 205.663 32.3662 206.638 31.44 207.493C31.104 207.8 30.6638 207.967 30.2091 207.961C29.7543 207.954 29.319 207.775 28.9917 207.459L28.9096 207.381C28.7321 207.21 28.5917 207.005 28.4973 206.777C28.4029 206.55 28.3564 206.306 28.3609 206.059C28.3654 205.813 28.4207 205.571 28.5233 205.347C28.626 205.123 28.7737 204.923 28.9574 204.759C29.8143 204.003 30.5414 203.112 31.1096 202.121C31.9804 200.594 31.9843 199.2 30.9053 198.588C29.8817 198.016 28.7473 198.504 26.9426 200.116C24.3396 202.448 21.8761 203.651 19.2636 202.169C16.8936 200.832 15.9827 198.1 17.0502 194.897L14.4912 193.446L15.9884 190.806L18.3584 192.143C18.8582 191.33 19.4447 190.573 20.1077 189.886C20.4389 189.551 20.8886 189.36 21.3594 189.355C21.8302 189.35 22.2841 189.53 22.6228 189.857C22.7954 190.024 22.9326 190.224 23.0263 190.445C23.12 190.667 23.1683 190.904 23.1683 191.144C23.1683 191.385 23.12 191.622 23.0263 191.843C22.9326 192.064 22.7954 192.265 22.6228 192.432C21.961 193.072 21.3956 193.806 20.9442 194.609C19.9511 196.36 20.3846 197.353 21.1351 197.781C22.0251 198.285 23.1251 197.662 25.285 195.871C28.2336 193.306 30.4412 192.854 32.8742 194.229C35.3072 195.604 36.3556 198.447 35.1372 201.85L37.8853 203.409L36.4034 206.046Z" fill="#FF6E53"/>
<path d="M61.5412 24.4273L58.9918 22.9778C58.3221 24.0463 57.5136 25.0211 56.5874 25.8768C56.2514 26.1833 55.8113 26.3503 55.3565 26.3439C54.9017 26.3375 54.4665 26.1582 54.1392 25.8424L54.057 25.7641C53.8795 25.5935 53.7391 25.3881 53.6447 25.1607C53.5503 24.9333 53.5038 24.6888 53.5083 24.4426C53.5128 24.1965 53.5681 23.9539 53.6707 23.7301C53.7734 23.5063 53.9211 23.3061 54.1048 23.142C54.9619 22.3836 55.6883 21.4894 56.2551 20.4952C57.126 18.9674 57.1298 17.5733 56.0508 16.9622C55.0272 16.3893 53.8928 16.8782 52.0881 18.49C49.4852 20.8236 47.0216 22.0249 44.4091 20.5448C42.0392 19.208 41.1282 16.4752 42.1957 13.2726L39.6367 11.8212L41.1339 9.18197L43.5039 10.5188C44.0037 9.70532 44.5902 8.94846 45.2532 8.26147C45.5838 7.92643 46.0333 7.73546 46.5039 7.7301C46.9746 7.72473 47.4283 7.90542 47.7664 8.23284C47.9392 8.39973 48.0766 8.5997 48.1705 8.82084C48.2644 9.04198 48.3128 9.27976 48.3128 9.52C48.3128 9.76023 48.2644 9.99801 48.1705 10.2191C48.0766 10.4403 47.9392 10.6403 47.7664 10.8071C47.1045 11.4471 46.5391 12.1798 46.0878 12.9823C45.0947 14.7335 45.5282 15.7266 46.2787 16.1544C47.1687 16.6585 48.2687 16.0379 50.4286 14.2446C53.3772 11.6799 55.5848 11.2273 58.0178 12.6023C60.4145 13.962 61.4992 16.8189 60.2808 20.2221L63.0289 21.7804L61.5412 24.4273Z" fill="#FFCB83"/>
<path d="M267.149 97.3596L265.455 101.582L258.359 99.6074L255.122 105.476L249.57 104.867L249.261 107.676L256.686 108.493L259.755 102.93L267.136 104.985L269.685 98.6315L267.149 97.3596Z" fill="#65CEFE"/>
<path d="M254.876 246.92L256.361 243.23C254.81 242.524 253.36 241.615 252.047 240.528C251.576 240.133 251.274 239.573 251.201 238.962C251.128 238.351 251.291 237.736 251.656 237.241L251.746 237.117C251.942 236.849 252.193 236.624 252.48 236.457C252.768 236.289 253.087 236.184 253.418 236.146C253.749 236.107 254.084 236.138 254.402 236.236C254.72 236.333 255.015 236.495 255.267 236.712C256.432 237.729 257.756 238.547 259.186 239.134C261.399 240.026 263.257 239.781 263.884 238.229C264.478 236.754 263.611 235.322 261.13 233.193C257.538 230.12 255.487 227.038 257.003 223.262C258.38 219.846 261.867 218.136 266.349 218.994L267.837 215.306L271.641 216.834L270.264 220.25C271.443 220.775 272.563 221.424 273.602 222.189C274.11 222.573 274.445 223.141 274.537 223.771C274.628 224.401 274.467 225.041 274.089 225.554C273.897 225.815 273.654 226.036 273.375 226.201C273.095 226.367 272.786 226.475 272.464 226.518C272.142 226.562 271.815 226.54 271.501 226.454C271.188 226.369 270.895 226.221 270.64 226.02C269.665 225.247 268.581 224.621 267.425 224.162C264.902 223.144 263.649 223.902 263.21 224.99C262.694 226.272 263.723 227.633 266.523 230.206C270.488 233.699 271.488 236.586 270.081 240.079C268.689 243.536 265.055 245.501 260.276 244.471L258.68 248.432L254.876 246.92Z" fill="#C9EDF9"/>
<path d="M47.7912 119.34C47.9735 119.582 48.0663 119.879 48.0538 120.182C48.0413 120.484 47.9241 120.773 47.7225 120.998C46.6361 122.17 45.3409 123.129 43.903 123.826C41.4548 125.02 38.6456 125.379 35.9968 124.464C34.2305 123.822 32.695 122.67 31.5853 121.153L30.1377 121.857C30.0209 121.915 29.894 121.948 29.7641 121.956C29.6343 121.964 29.5041 121.947 29.3811 121.904C29.2582 121.862 29.1448 121.796 29.0475 121.709C28.9502 121.623 28.871 121.518 28.8143 121.401L28.7952 121.365C28.6805 121.128 28.6641 120.856 28.7497 120.608C28.8352 120.359 29.0157 120.155 29.2516 120.039L30.4395 119.466C30.2027 119.075 30.0403 118.834 29.9315 118.611C29.7236 118.174 29.5494 117.722 29.4101 117.259L28.186 117.855C28.0692 117.912 27.9422 117.946 27.8124 117.954C27.6825 117.962 27.5524 117.944 27.4294 117.902C27.3064 117.859 27.193 117.793 27.0958 117.706C26.9985 117.62 26.9192 117.515 26.8626 117.398C26.8053 117.281 26.7717 117.154 26.7636 117.025C26.7556 116.895 26.7733 116.765 26.8157 116.642C26.8581 116.519 26.9244 116.405 27.0108 116.308C27.0971 116.211 27.2019 116.131 27.319 116.075L28.8028 115.353C28.3731 113.541 28.4497 111.645 29.0244 109.874C29.9945 107.059 32.12 104.922 34.681 103.675C35.8632 103.08 37.1414 102.698 38.4565 102.548C38.8013 102.512 39.1466 102.612 39.4196 102.825C39.6925 103.039 39.8717 103.351 39.9193 103.694V103.717C39.9441 103.892 39.934 104.069 39.8897 104.24C39.8455 104.411 39.7678 104.571 39.6613 104.712C39.5548 104.852 39.4215 104.971 39.2692 105.059C39.1168 105.148 38.9483 105.206 38.7735 105.229C37.7527 105.376 36.7623 105.686 35.8402 106.148C34.2074 106.943 32.8285 108.258 32.1449 110.158C31.73 111.327 31.6913 112.596 32.0341 113.787L40.3796 109.721C40.6157 109.607 40.8876 109.59 41.1357 109.676C41.3838 109.761 41.5878 109.942 41.703 110.178C41.7603 110.294 41.7939 110.421 41.802 110.551C41.81 110.681 41.7923 110.811 41.7499 110.934C41.7075 111.057 41.6412 111.171 41.5548 111.268C41.4685 111.365 41.3637 111.444 41.2466 111.501L32.5306 115.748C32.691 116.174 32.8534 116.6 32.9794 116.86C33.1417 117.194 33.3041 117.528 33.5523 117.956L42.2874 113.69C42.4067 113.631 42.5364 113.597 42.669 113.589C42.8016 113.581 42.9345 113.599 43.0601 113.642C43.1857 113.685 43.3015 113.753 43.4009 113.841C43.5003 113.929 43.5814 114.036 43.6395 114.156C43.7567 114.397 43.7735 114.674 43.6862 114.928C43.5988 115.181 43.4144 115.39 43.1735 115.508L34.807 119.583C35.5267 120.476 36.477 121.156 37.5551 121.548C39.524 122.197 41.26 121.993 43.1143 121.09C44.1182 120.597 45.0405 119.953 45.849 119.18C45.9821 119.053 46.1404 118.956 46.3137 118.894C46.487 118.832 46.6714 118.808 46.8547 118.823C47.0381 118.837 47.2163 118.89 47.3777 118.979C47.539 119.067 47.68 119.188 47.7912 119.335V119.34Z" fill="#65CEFE"/>
<path d="M20.8064 145.714L16.4885 146.153L15.0142 139.282L8.62042 139.142L6.67823 134.181L4.16504 135.164L6.76417 141.801L12.8237 141.932L14.3553 149.081L20.856 148.42L20.8064 145.714Z" fill="#C9EDF9"/>
<path d="M226.701 95.4595L229.413 96.3551C229.413 96.3551 233.714 94.961 234.138 94.0845C234.562 93.2079 234.68 91.0824 235.284 91.0289C235.887 90.9754 237.079 91.1702 237.359 92.6254C237.564 93.6815 236.023 96.7351 236.259 97.0598C236.41 97.2641 237.953 97.8237 239.088 98.2056C239.455 98.3331 239.781 98.5596 240.028 98.8602C240.275 99.1608 240.434 99.5238 240.488 99.9091C240.525 100.169 240.474 100.433 240.343 100.66C240.211 100.887 240.006 101.062 239.762 101.158L238.981 101.46L239.229 102.266C239.318 102.554 239.291 102.866 239.153 103.135C239.016 103.405 238.78 103.61 238.494 103.708L237.89 103.91L238.081 104.401C238.14 104.551 238.167 104.711 238.16 104.872C238.153 105.032 238.114 105.19 238.043 105.335C237.973 105.479 237.873 105.608 237.75 105.712C237.628 105.816 237.485 105.894 237.331 105.94L236.804 106.093L236.825 106.234C236.868 106.517 236.806 106.806 236.65 107.045C236.494 107.285 236.255 107.458 235.979 107.533L235.455 107.67L228.242 105.287C227.565 105.063 226.941 104.701 226.411 104.223L224.012 102.957C223.887 102.89 223.79 102.78 223.738 102.647C223.687 102.514 223.686 102.367 223.733 102.233L225.958 95.8299C226.009 95.6831 226.115 95.562 226.254 95.4927C226.393 95.4233 226.554 95.4114 226.701 95.4595Z" fill="#FFCB83"/>
<path d="M61.4037 104.065C61.3426 103.895 59.8969 101.42 58.0273 98.7308C49.338 86.2107 36.4474 74.1451 21.3396 74.5977L21.3281 74.506C28.1611 73.7555 34.8547 75.5754 40.7328 78.8181C50.4266 84.045 59.874 94.0043 65.0417 101.66L61.4037 104.065Z" fill="#FFCB83"/>
<path d="M24.6924 81.5261L23.6611 74.485L28.8823 69.6514C29.016 69.5275 29.1124 69.3686 29.1606 69.1928C29.2087 69.017 29.2068 68.8312 29.1549 68.6564C29.1031 68.4816 29.0034 68.3248 28.8672 68.2037C28.7309 68.0825 28.5635 68.0019 28.3839 67.9709L21.3714 66.7659L18.3865 60.3072C18.3102 60.1415 18.189 60.0005 18.0366 59.9002C17.8843 59.8 17.7069 59.7444 17.5245 59.7398C17.3422 59.7352 17.1622 59.7818 17.005 59.8744C16.8479 59.9669 16.7197 60.1016 16.6352 60.2633L13.3219 66.5653L6.2559 67.4075C6.07465 67.4291 5.90306 67.5009 5.76053 67.6149C5.618 67.729 5.51023 67.8806 5.44941 68.0527C5.3886 68.2248 5.37718 68.4105 5.41643 68.5887C5.45569 68.767 5.54405 68.9307 5.67153 69.0614L10.6368 74.1565L9.25417 81.1346C9.2185 81.3137 9.2337 81.4992 9.29802 81.6701C9.36235 81.8409 9.47324 81.9904 9.61814 82.1015C9.76304 82.2126 9.93614 82.281 10.1179 82.2987C10.2996 82.3165 10.4827 82.2831 10.6464 82.2022L17.0267 79.0549L23.2372 82.5249C23.397 82.6173 23.5798 82.6626 23.7643 82.6555C23.9489 82.6483 24.1276 82.589 24.2798 82.4845C24.4321 82.38 24.5516 82.2346 24.6246 82.065C24.6976 81.8953 24.7211 81.7085 24.6924 81.5261Z" fill="#FFCB83"/>
<path d="M261.057 203.674L261.546 202.005C264.138 201.52 266.368 199.772 267.103 197.27C267.341 196.491 267.514 195.693 267.621 194.885L264.149 193.885L264.766 191.784L267.902 192.687C268.027 191.433 268.257 190.191 268.589 188.975C269.735 185.035 273.23 183.245 276.971 184.328C277.857 184.569 278.702 184.945 279.475 185.442C279.74 185.62 279.925 185.897 279.988 186.211C280.051 186.525 279.987 186.851 279.811 187.118C279.631 187.386 279.355 187.575 279.04 187.643C278.725 187.712 278.395 187.656 278.12 187.487C277.543 187.144 276.923 186.878 276.276 186.698C273.646 185.934 272.038 187.434 271.343 189.803C271.003 191.008 270.788 192.243 270.699 193.491L275.552 194.889L274.935 196.99L270.352 195.67C270.081 196.969 269.779 198.256 269.118 199.371C268.326 200.68 267.142 201.707 265.734 202.306L265.715 202.373L274.574 204.923C274.729 204.967 274.874 205.041 275.001 205.141C275.127 205.241 275.232 205.365 275.31 205.506C275.388 205.647 275.438 205.802 275.456 205.962C275.474 206.122 275.46 206.284 275.414 206.439L275.39 206.527C275.296 206.839 275.083 207.101 274.797 207.257C274.511 207.413 274.175 207.45 273.862 207.36L261.057 203.674Z" fill="#FFCB83"/>
<path d="M180.744 19.6567L181.234 17.9876C183.826 17.5026 186.056 15.7552 186.792 13.2515C187.03 12.472 187.203 11.6742 187.309 10.8663L183.837 9.86749L184.454 7.76679L187.588 8.67009C187.715 7.41587 187.945 6.17422 188.276 4.9576C189.433 1.01975 192.916 -0.771564 196.659 0.311249C197.545 0.552829 198.389 0.928961 199.161 1.42652C199.427 1.60455 199.612 1.8807 199.675 2.19456C199.738 2.50842 199.674 2.83446 199.497 3.10135C199.318 3.36982 199.042 3.55828 198.727 3.62704C198.411 3.69579 198.082 3.63946 197.807 3.46992C197.23 3.12626 196.609 2.86103 195.962 2.6812C193.333 1.91731 191.726 3.41644 191.029 5.78641C190.691 6.99139 190.475 8.22757 190.386 9.47601L195.24 10.872L194.624 12.9727L190.04 11.6531C189.769 12.9498 189.467 14.2369 188.808 15.3522C188.016 16.6615 186.832 17.6884 185.424 18.2875L185.405 18.3543L194.264 20.9038C194.419 20.9478 194.564 21.0219 194.69 21.1221C194.817 21.2222 194.922 21.3463 195 21.4872C195.078 21.6281 195.128 21.7831 195.146 21.9432C195.163 22.1033 195.15 22.2654 195.105 22.4201L195.08 22.508C194.986 22.8199 194.773 23.0822 194.487 23.2381C194.201 23.394 193.865 23.4308 193.552 23.3406L180.744 19.6567Z" fill="#FF6E53"/>
<path d="M264.505 10.2896L266.153 7.50519L264.793 4.56804C264.758 4.49277 264.745 4.40933 264.755 4.32708C264.766 4.24484 264.799 4.16706 264.851 4.10254C264.903 4.03802 264.972 3.98931 265.05 3.9619C265.128 3.93448 265.212 3.92945 265.293 3.94738L268.452 4.65399L270.826 2.45398C270.887 2.39775 270.962 2.35965 271.043 2.34397C271.125 2.32829 271.209 2.33565 271.286 2.36523C271.364 2.39482 271.431 2.44545 271.482 2.5114C271.532 2.57735 271.563 2.65602 271.571 2.73853L271.872 5.96023L274.699 7.53766C274.771 7.57817 274.831 7.63807 274.871 7.71062C274.911 7.78317 274.93 7.86549 274.926 7.94828C274.921 8.03108 274.894 8.11106 274.847 8.17921C274.8 8.24737 274.735 8.30097 274.659 8.334L271.689 9.61736L271.063 12.7932C271.045 12.8729 271.006 12.9462 270.95 13.0053C270.894 13.0644 270.822 13.107 270.744 13.1284C270.665 13.1499 270.582 13.1494 270.503 13.127C270.425 13.1046 270.354 13.0611 270.299 13.0014L268.16 10.5722L264.948 10.9542C264.865 10.9651 264.781 10.9526 264.706 10.9183C264.63 10.8839 264.565 10.829 264.519 10.7598C264.473 10.6906 264.447 10.6099 264.445 10.5268C264.442 10.4437 264.463 10.3615 264.505 10.2896Z" fill="#65CEFE"/>
<path d="M299.296 150.207L295.341 149.888L294.802 153.547L290.891 153.404L289.944 156.836L287.001 157.208L287.188 158.698L291.126 158.201L292.024 154.949L296.091 155.096L296.622 151.498L300.207 151.789L299.296 150.207Z" fill="#FF6E53"/>
<path d="M83.4909 48.465L83.2503 44.5042L79.5511 44.4851L79.1424 40.5931L75.6095 40.1405L74.8265 37.2778L73.3789 37.6751L74.4254 41.5021L77.7732 41.9318L78.199 45.9804L81.8371 45.9995L82.0548 49.5879L83.4909 48.465Z" fill="#FF6E53"/>
<path d="M1.86389 178.303L4.85261 179.445L7.19584 177.173L10.4557 178.689L12.2031 175.5L15.9672 177.052L17.938 174.312L21.8033 175.215L21.4615 176.676L18.5721 176.004L16.4924 178.893L12.8754 177.4L11.0974 180.645L7.49948 178.97L5.21163 181.189L2.44254 180.133L1.24514 181.903L0 181.063L1.86389 178.303Z" fill="#FFCB83"/>
<path d="M182.208 52.3435L182.016 54.7536L178.104 54.8701L177.386 58.3572L174.474 58.9244L174.761 60.3987L178.656 59.6425L179.336 56.3367L183.404 56.2145L183.696 52.5899L182.208 52.3435Z" fill="#C9EDF9"/>
<path d="M261.558 52.737C263.174 54.2869 264.294 56.2811 264.776 58.4675C265.259 60.6539 265.082 62.9343 264.268 65.0203C263.455 67.1063 262.041 68.9042 260.206 70.1867C258.37 71.4692 256.196 72.1787 253.958 72.2254C251.719 72.2721 249.517 71.654 247.63 70.4492C245.742 69.2445 244.255 67.5071 243.355 65.4569C242.455 63.4067 242.183 61.1357 242.574 58.931C242.965 56.7264 244.001 54.6872 245.55 53.0712C246.58 51.9981 247.81 51.1383 249.171 50.5408C250.533 49.9432 251.998 49.6197 253.485 49.5886C254.971 49.5576 256.449 49.8197 257.834 50.3599C259.22 50.9 260.485 51.7078 261.558 52.737Z" fill="#FFF3D9"/>
<path d="M261.363 62.2016L256.547 63.6836L255.036 68.4904C255.009 68.578 254.958 68.6562 254.888 68.7162C254.819 68.7762 254.734 68.8154 254.643 68.8296C254.552 68.8437 254.459 68.8321 254.375 68.7961C254.291 68.7601 254.218 68.7012 254.165 68.6259L251.268 64.5028L246.228 64.5506C246.137 64.5517 246.046 64.527 245.968 64.4793C245.89 64.4317 245.826 64.363 245.785 64.281C245.743 64.199 245.726 64.1071 245.734 64.0157C245.742 63.9243 245.776 63.837 245.831 63.7638L248.858 59.7343L247.254 54.96C247.225 54.8729 247.221 54.7794 247.242 54.69C247.263 54.6006 247.309 54.519 247.374 54.4542C247.439 54.3895 247.521 54.3442 247.611 54.3236C247.7 54.3029 247.793 54.3077 247.88 54.3374L252.655 55.9721L256.703 52.97C256.777 52.9155 256.864 52.8826 256.956 52.8752C257.047 52.8677 257.139 52.886 257.22 52.9279C257.302 52.9699 257.37 53.0338 257.417 53.1124C257.464 53.1911 257.488 53.2813 257.486 53.373L257.406 58.4127L261.512 61.3346C261.586 61.3885 261.643 61.462 261.678 61.5467C261.712 61.6315 261.722 61.7242 261.707 61.8144C261.691 61.9045 261.651 61.9886 261.59 62.057C261.529 62.1254 261.451 62.1755 261.363 62.2016Z" fill="#FFCB83"/>
<path d="M133.163 28.4015L135.817 28.243C135.885 28.2331 135.949 28.2057 136.003 28.1635C136.057 28.1212 136.099 28.0656 136.125 28.0021C136.151 27.9386 136.16 27.8695 136.151 27.8015C136.142 27.7336 136.115 27.6692 136.073 27.6147L134.381 25.4013L135.111 22.5845C135.133 22.5205 135.136 22.4517 135.121 22.3859C135.105 22.3201 135.071 22.2601 135.022 22.2129C134.974 22.1657 134.913 22.1332 134.847 22.1192C134.781 22.1052 134.712 22.1102 134.649 22.1338L132.178 23.2548L129.974 21.6736C129.916 21.6377 129.85 21.6189 129.783 21.6194C129.715 21.6199 129.649 21.6396 129.592 21.6763C129.536 21.713 129.49 21.7651 129.462 21.8265C129.434 21.8879 129.424 21.9561 129.433 22.023L129.598 24.9296L127.497 26.7687C127.445 26.8138 127.406 26.8716 127.384 26.9364C127.361 27.0012 127.356 27.0707 127.369 27.138C127.382 27.2054 127.412 27.2682 127.456 27.3203C127.501 27.3725 127.558 27.412 127.623 27.4352L130.197 28.1093L131.108 30.8288C131.126 30.8933 131.164 30.9508 131.215 30.9938C131.267 31.0367 131.33 31.0633 131.397 31.0698C131.463 31.0764 131.531 31.0628 131.589 31.0307C131.648 30.9986 131.696 30.9496 131.727 30.8899L133.163 28.4015Z" fill="#FF6E53"/>
<path d="M97.1709 160.146C97.1709 160.146 101.93 150.99 102.667 147.629C103.404 144.268 105.961 127.34 105.746 126.25C105.53 125.159 101.489 122.537 101.987 121.611C102.486 120.685 106.336 120.683 107.218 120.761C108.1 120.84 109.872 121.355 110.631 121.98C111.389 122.604 109.777 142.891 109.294 147.259C108.811 151.626 102.902 165.075 102.902 165.075L97.1709 160.146Z" fill="#F7A491"/>
<path d="M105.759 121.604C105.555 121.683 105.356 121.773 105.161 121.873L104.43 122.104C104.43 122.104 106.309 122.056 107.42 123.25C107.003 122.579 106.434 122.015 105.759 121.604Z" fill="#F47257"/>
<path d="M195.727 125.28C196.465 124.718 196.839 123.307 196.999 122.396L197.37 121.197C197.087 121.065 191.492 120.005 189.796 119.883C189.605 120.412 189.502 120.863 189.542 121.155C189.733 122.555 191.089 131.658 191.089 131.658L195.934 131.979C195.934 131.979 195.116 126.576 195.727 125.28Z" fill="#F7A491"/>
<path d="M195.834 121.46C195.834 121.46 194.834 121.913 193.722 123.254C193.722 123.254 191.062 121.369 191.182 120.817C191.345 120.083 194.085 121.581 194.085 121.581L195.834 121.46Z" fill="#F47458"/>
<path d="M214.949 64.5581H71.9277V122.104H214.949V64.5581Z" fill="#65CEFE"/>
<path d="M212.821 119.978V66.6875L74.057 66.6875V119.978H212.821Z" fill="#EEFBFF"/>
<path d="M214.949 64.5581H71.9277V80.2006H214.949V64.5581Z" fill="#65CEFE"/>
<path d="M219.471 254.474C219.471 254.474 225.991 259.176 227.019 260.585C228.497 262.606 215.971 266.383 217.338 264.023C217.653 263.479 218.555 261.649 218.593 261.468C218.803 260.513 216.146 257.912 216.146 257.912L219.471 254.474Z" fill="#F7A491"/>
<path d="M213.95 267.965L218.377 261.707C218.377 261.707 221.142 261.065 223.98 257.872C223.98 257.872 226.529 258.846 228.099 260.956C225.751 263.393 223.234 265.661 220.567 267.745C218.653 269.34 216.469 270.581 214.118 271.408C210.377 272.672 213.95 267.965 213.95 267.965Z" fill="#063E70"/>
<path d="M272.712 138.491C272.712 138.491 271.026 141.272 270.839 141.104C270.694 140.972 271.7 139.507 272.416 137.733C272.607 137.275 272.781 136.824 272.943 136.41C273.367 135.317 272.842 134.752 272.222 135.825C271.932 136.309 271.677 136.813 271.458 137.332C271.255 137.863 270.904 138.287 270.669 138.705C270.201 139.538 269.869 140.151 269.846 140.113C269.823 140.074 269.613 140.164 269.792 139.673C270.01 139.085 270.747 137.93 270.996 137.04C271.139 136.534 271.504 135.497 271.504 135.497C271.504 135.497 271.769 133.828 271.679 133.778C271.194 133.524 270.701 134.618 270.593 135.329C270.297 135.751 269.943 136.857 269.943 136.857C269.943 136.857 268.746 138.934 268.459 138.766C268.337 138.697 268.925 137.336 269.302 135.915C269.649 134.593 269.791 133.205 269.548 133.102C269.135 132.924 268.593 134.351 268.593 134.351C268.593 134.351 268.268 135.371 268.135 135.703C267.978 136.085 267.426 137.216 267.426 137.216C267.426 137.216 265.268 141.025 265.012 140.844C264.756 140.663 264.338 139.958 264.39 139.675C264.441 139.393 264.797 138.923 264.846 138.64C264.871 138.481 264.84 138.317 264.758 138.178C264.677 138.039 264.549 137.932 264.397 137.876C264.067 137.794 263.313 139.07 263.313 139.07C263.313 139.07 262.709 140.114 262.694 140.947C262.639 143.831 263.11 143.716 263.093 144.087C263.072 144.524 259.732 149.342 259.732 149.342L259.669 149.415L263.634 152.3C264.955 150.15 265.983 148.466 266.284 147.939C266.284 147.939 268.274 146.237 269.489 145.128C270.703 144.018 271.387 142.42 271.685 142.055C272.375 141.06 272.945 139.987 273.381 138.858C274.026 137.242 272.712 138.491 272.712 138.491Z" fill="#F8A492"/>
<path d="M229.444 206.158L228.41 211.259L202.484 234.844L221.043 253.627L216.032 258.748C216.032 258.748 188.619 238.62 187.632 235.983C186.104 231.921 207.281 205.02 207.281 205.02L229.444 206.158Z" fill="#E74A60"/>
<path d="M248.535 268.58C248.535 268.58 255.057 273.281 256.082 274.691C257.563 276.711 245.037 280.489 246.402 278.128C246.717 277.584 247.619 275.753 247.659 275.573C247.869 274.618 245.21 272.015 245.21 272.015L248.535 268.58Z" fill="#F7A491"/>
<path d="M243.009 282.093L247.437 275.835C247.437 275.835 250.378 275.306 253.216 272.115C253.216 272.115 255.59 272.974 257.158 275.084C254.81 277.521 252.294 279.79 249.628 281.873C247.713 283.468 245.529 284.709 243.179 285.536C239.435 286.8 243.009 282.093 243.009 282.093Z" fill="#063E70"/>
<path d="M228.556 208.523L228.957 242.042L249.551 267.879L244.704 273.266C244.704 273.266 219.2 252.068 216.406 245.976C214.674 242.203 208.36 206.506 208.36 206.506L228.556 208.523Z" fill="#FF6E53"/>
<path d="M207.642 205.881C209.743 201.122 209.506 167.001 217.714 159.009C220.602 159.498 222.661 159.773 223.144 159.897C223.571 163.413 224.041 176.311 224.332 188.131C224.522 196.006 224.332 204.266 225.286 208.618C225.901 211.317 205.716 210.228 207.642 205.881Z" fill="#C9EDF9"/>
<path d="M215.81 161.007C215.81 161.007 212.48 170.489 209.737 169.121C206.995 167.754 191.595 152.052 191.44 151.294C191.285 150.536 190.222 131.261 190.222 131.261L196.314 130.046L199.818 145.83C199.818 145.83 211.085 156.607 213.377 157.671C214.034 157.972 214.603 158.437 215.029 159.022C215.455 159.606 215.724 160.289 215.81 161.007Z" fill="#064C91"/>
<path d="M206.817 208.162C204.973 208.162 204.293 207.908 203.063 207.537C203.063 207.537 204.386 188.419 208.315 168.111C209.795 160.457 210.173 157.178 213.372 157.739C214.298 157.902 216.809 158.857 217.714 159.009C209.674 181.756 209.646 199.264 208.508 204.342C207.937 206.884 207.44 208.179 206.817 208.162Z" fill="#064C91"/>
<path d="M218.562 155.574L217.72 159.011C217.72 159.011 217.529 162.004 218.915 162.273C220.59 162.598 223.079 160.09 223.079 160.09L224.52 150.398L218.562 155.574Z" fill="#F7A491"/>
<path d="M218.562 155.574L217.72 159.011C217.72 159.011 217.529 162.004 218.915 162.273C220.59 162.598 223.079 160.09 223.079 160.09L224.52 150.398L218.562 155.574Z" fill="#F7A491"/>
<path d="M224.507 150.442L218.562 155.574L217.932 158.141C220.204 157.594 223.445 155.093 224.507 150.442Z" fill="#F47458"/>
<path d="M218.541 141.524C217.105 141.524 215.81 142.519 215.295 143.953C214.723 145.572 214.289 147.236 213.998 148.928C213.368 152.656 215.491 156.067 217.338 156.34C219.185 156.613 223.583 155.385 224.557 150.108C224.973 147.845 225.512 144.877 223.661 143.317C222.223 142.104 220.195 141.53 218.541 141.524Z" fill="#F7A491"/>
<path d="M223.967 154.132C223.967 154.132 230.477 148.33 230.76 143.798C231.042 139.266 226.858 136.837 223.279 136.711C221.815 136.654 220.349 136.73 218.898 136.937C215.312 137.389 212.988 138.978 213.807 141.917C214.905 145.861 222.347 142.534 223.869 143.758C225.126 144.768 223.088 147.196 224.309 148.126C225.455 148.997 224.872 148.699 224.5 150.358C224.24 151.603 224.062 152.864 223.967 154.132Z" fill="#031322"/>
<path d="M226.474 148.876C226.314 149.961 225.649 150.763 224.992 150.668C224.335 150.572 223.93 149.612 224.092 148.525C224.255 147.438 224.917 146.636 225.574 146.734C226.231 146.831 226.638 147.79 226.474 148.876Z" fill="#F7A491"/>
<path d="M196.831 119.633C196.247 118.609 195.376 119.659 195.942 120.989C195.956 121.04 195.956 121.094 195.942 121.145C195.796 121.493 194.442 122.574 194.442 122.574C194.442 122.574 195.527 125.608 196.136 124.81C196.746 124.012 197.21 121.426 197.21 121.426L196.831 119.633Z" fill="#F7A491"/>
<path d="M265.455 150.675L261.021 146.283C261.021 146.283 252.597 158.372 248.325 160.468C244.171 162.508 230.343 161.765 229.856 161.654C228.198 161.272 223.101 159.882 223.101 159.882C223.101 159.882 218.835 196.572 224.396 209.323C226.212 213.482 237.508 210.725 237.508 210.725C237.508 210.725 234.023 195.447 233.836 193.453C233.66 191.543 232.69 176.392 232.845 176.237C233.253 175.828 248.673 172.467 252.897 169.257C257.364 165.865 265.455 150.675 265.455 150.675Z" fill="#064C91"/>
<path d="M104.93 123.62L104.618 122.383C103.858 122.383 103.103 122.263 102.38 122.027L101.078 121.073C100.805 120.954 100.419 121.254 100.421 121.552C100.423 121.85 100.791 122.415 100.975 122.562C100.975 122.562 103.307 124.482 104.126 125.064C104.531 125.354 105.806 126.131 105.806 126.131L106.551 124.741L104.93 123.62Z" fill="#F7A491"/>
<path d="M190.222 93.815L192.756 91.8213L194.175 94.7164L197.324 94.0213L197.347 97.2449L200.484 97.984L199.106 100.898L201.611 102.926L199.106 104.954L200.484 107.869L197.347 108.608L197.324 111.831L194.175 111.136L192.756 114.031L190.222 112.038L187.687 114.031L186.268 111.136L183.121 111.831L183.098 108.608L179.961 107.869L181.338 104.954L178.832 102.926L181.338 100.898L179.961 97.984L183.098 97.2449L183.121 94.0213L186.268 94.7164L187.687 91.8213L190.222 93.815Z" fill="#E74A60"/>
<path d="M190.222 96.6166L191.977 95.2378L192.96 97.2411L195.139 96.7598L195.154 98.9923L197.328 99.5041L196.373 101.523L198.109 102.926L196.373 104.33L197.328 106.349L195.154 106.86L195.139 109.093L192.96 108.612L191.977 110.615L190.222 109.236L188.467 110.615L187.485 108.612L185.304 109.093L185.289 106.86L183.117 106.349L184.07 104.33L182.334 102.926L184.07 101.523L183.117 99.5041L185.289 98.9923L185.304 96.7598L187.485 97.2411L188.467 95.2378L190.222 96.6166Z" fill="#FF6E53"/>
<path d="M195.829 68.8359H87.5918V76.6849H195.829V68.8359Z" fill="#C9EDF9"/>
<path d="M55.9207 183.968C63.5233 191.893 70.2016 184.871 69.8712 184.989C70.1309 184.879 71.8 184.886 72.8866 184.844C77.4146 184.667 81.5396 181.422 83.3405 177.119C90.1181 176.231 94.5486 169.967 92.5644 164.548C95.5608 160.818 94.6365 154.863 91.8005 151.05C91.1398 144.801 82.9757 143.743 77.3554 145.932C74.508 147.043 72.0826 149.442 70.8337 152.35C65.4158 152.218 60.7924 156.204 59.5854 161.75C51.1616 164.095 48.1614 175.876 55.9207 183.968Z" fill="#E74A60"/>
<path d="M104.767 260.738C104.225 263.626 103.447 266.464 102.441 269.225C102.353 269.437 101.504 270.216 101.406 270.434C101.863 275.651 105.188 278.751 108.31 280.96C107.632 278.329 106.125 275.311 106.32 274.725C107.414 271.117 108.78 267.597 110.407 264.195C107.808 263.91 106.883 262.331 104.767 260.738Z" fill="#F7A491"/>
<path d="M95.2628 198.661L77.2217 210.979C77.2217 210.979 86.0064 216.685 89.0199 219.555C92.0335 222.426 108.152 235.448 108.413 236.105C108.604 236.594 106.918 242.768 103.041 262.539C104.76 264.29 108.53 266.007 110.766 266.574C115.454 256.027 120.746 234.082 120.152 231.669C119.23 227.922 95.2628 198.661 95.2628 198.661Z" fill="#063E70"/>
<path d="M49.5841 223.451C50.1131 223.969 53.6346 230.826 54.9734 234.497C56.9346 233.263 58.1206 231.791 60.311 230.96C58.5923 228.46 55.2121 222.441 54.9352 221.009C54.2782 217.609 53.5067 217.109 53.5067 217.109C53.5067 217.109 42.1133 220.963 41.3551 222.044C40.597 223.124 47.4529 221.375 49.5841 223.451Z" fill="#F7A491"/>
<path d="M55.0685 221.763C55.9527 221.763 54.9921 217.77 54.7896 216.849C54.5605 215.814 53.9608 215.512 53.8119 215.467C53.407 215.367 40.7455 219.651 38.6066 221.196C38.4361 221.344 38.2865 221.515 38.1617 221.704C36.991 223.888 47.4296 224.305 48.9306 223.35C50.2674 222.494 51.0924 221.751 55.0685 221.763Z" fill="#064C91"/>
<path d="M98.5401 202.515C98.5401 202.515 83.2623 196.497 83.058 197.137C81.4748 202.234 76.5515 200.59 73.6296 209.567C72.4055 213.326 71.4411 223.251 70.6161 230.611C70.0432 235.668 69.2564 239.722 69.2564 239.722C69.2564 239.722 65.7177 234.489 59.0584 226.986C58.5428 226.403 53.165 231.518 53.165 231.518C63.7716 252.55 71.4984 255.523 73.2 254.952C80.8637 252.36 91.0234 217.105 91.0062 217.109C92.2533 214.682 98.5401 202.515 98.5401 202.515Z" fill="#064C91"/>
<path d="M74.953 166.881C74.953 166.881 56.7075 166.856 52.8002 166.631C49.2653 166.427 35.2422 166.784 34.6942 166.721C34.1461 166.658 30.5214 160.52 29.9198 161.183C29.3183 161.845 31.9365 164.227 31.1268 164.845C30.3171 165.464 21.6145 164.082 21.729 164.721C21.9448 165.924 27.0228 165.772 27.0171 166.352C27.0113 166.933 21.7042 166.028 21.3433 166.992C20.9823 167.956 26.4499 167.385 26.6676 167.815C26.8853 168.245 21.5992 169.033 22.1396 169.931C22.4337 170.418 26.8242 169.118 26.8032 169.782C26.7822 170.447 23.5777 171.957 23.9711 172.486C24.3645 173.015 26.4862 170.863 28.3443 170.836C30.2025 170.81 31.5355 169.839 34.5032 170.645C35.9679 171.048 47.1551 172.416 56.6082 173.223C66.2982 174.05 74.2407 174.314 74.2407 174.314L74.953 166.881Z" fill="#F7A491"/>
<path d="M102.006 183.098C102.248 180.169 101.671 174.593 101.54 173.62C102.426 170.578 104.311 164.087 104.989 162.811C104.989 162.811 101.811 156.7 98.5605 156.748C98.5605 156.748 95.2395 164.234 92.6709 165.573C92.6346 165.573 91.7638 165.955 91.3799 165.955C88.8973 165.938 80.2386 165.674 78.6211 165.645L79.5301 177.935C82.9447 186.989 82.3221 195 81.7206 197.796C81.3845 199.348 96.4254 204.008 98.74 202.52C98.8317 202.459 101.517 189.02 102.006 183.098Z" fill="#FFCB83"/>
<path d="M83.0231 166.113C81.4247 165.35 69.8613 165.731 69.8613 165.731C69.8613 165.731 68.2457 173.783 69.5519 175.719C69.5519 175.719 79.8912 177.247 79.5971 178.105L83.0231 166.113Z" fill="#FFCB83"/>
<path d="M85.0381 160.478C85.0381 160.478 86.2412 164.706 86.4589 166.534C86.6766 168.361 89.461 174.056 93.2518 173.243C97.0426 172.429 93.0876 167.11 92.3466 165.436C91.6056 163.761 89.5966 156.995 89.5966 156.995L85.0381 160.478Z" fill="#F7A491"/>
<path d="M90.4388 159.773C89.9614 158.232 89.5966 156.998 89.5966 156.998L85.0381 160.478C85.0381 160.478 85.2596 161.255 85.5289 162.288C87.939 162.619 89.5851 161.465 90.4388 159.773Z" fill="#F47257"/>
<path d="M81.7343 147.816C80.4421 148.645 79.4879 149.907 79.0435 151.376C78.3464 153.796 79.2707 159.998 84.469 161.423C89.6672 162.848 91.8348 157.892 90.7138 154.059C89.5928 150.226 87.2075 145.391 81.7343 147.816Z" fill="#F7A491"/>
<path d="M91.3444 152.56C91.2584 153.595 90.6989 154.391 90.0973 154.342C89.4957 154.292 89.0756 153.412 89.1615 152.377C89.2475 151.342 89.8051 150.543 90.4086 150.595C91.0121 150.646 91.4303 151.525 91.3444 152.56Z" fill="#F7A491"/>
<path d="M102.402 269.361C102.075 268.539 98.7731 271.156 97.9959 271.687C97.1212 272.284 97.0563 272.957 97.0773 273.109C97.1327 273.51 105.532 283.854 107.988 285.284C108.26 285.402 108.563 285.431 108.853 285.366C110.216 284.841 107.995 276.377 106.204 274.706C105.047 273.625 103.87 273.054 102.402 269.361Z" fill="#064C91"/>
<path d="M82.3362 147.492C82.3362 147.492 81.4998 154.439 79.2807 155.725C77.0616 157.01 78.0393 160.071 78.0393 160.071C78.0393 160.071 75.9024 152.957 77.6421 150.637C79.3819 148.317 82.3362 147.492 82.3362 147.492Z" fill="#E74A60"/>
<path d="M80.6191 156.701C81.2397 157.594 81.2531 158.66 80.6477 159.08C80.0423 159.5 79.0493 159.114 78.4286 158.221C77.8079 157.327 77.7945 156.261 78.398 155.841C79.0015 155.421 79.9984 155.805 80.6191 156.701Z" fill="#F7A491"/>
<path d="M90.6187 100.153C90.559 99.9454 90.4752 99.7622 90.3673 99.6031C90.2593 99.4412 90.1272 99.3048 89.971 99.194C89.8176 99.0804 89.6414 98.9937 89.4426 98.9341C89.2465 98.8744 89.0292 98.8446 88.7906 98.8446C88.3445 98.8446 87.9525 98.9554 87.6144 99.177C87.2792 99.3986 87.0178 99.721 86.8303 100.144C86.6428 100.565 86.5491 101.079 86.5491 101.687C86.5491 102.295 86.6414 102.812 86.8261 103.238C87.0107 103.664 87.2721 103.989 87.6102 104.214C87.9482 104.436 88.3474 104.546 88.8076 104.546C89.2252 104.546 89.5818 104.472 89.8772 104.325C90.1755 104.174 90.4028 103.962 90.559 103.69C90.7181 103.417 90.7977 103.095 90.7977 102.722L91.1727 102.778H88.9227V101.389H92.5747V102.488C92.5747 103.255 92.4127 103.914 92.0889 104.465C91.765 105.014 91.319 105.437 90.7508 105.735C90.1826 106.031 89.532 106.178 88.7991 106.178C87.9809 106.178 87.2622 105.998 86.6428 105.637C86.0235 105.274 85.5406 104.758 85.194 104.09C84.8502 103.42 84.6784 102.624 84.6784 101.704C84.6784 100.997 84.7806 100.366 84.9852 99.8119C85.1926 99.2551 85.4823 98.7835 85.8545 98.3972C86.2267 98.0108 86.6599 97.7168 87.1542 97.515C87.6485 97.3133 88.184 97.2125 88.7607 97.2125C89.2551 97.2125 89.7153 97.2849 90.1414 97.4298C90.5676 97.5719 90.9454 97.7736 91.2749 98.0349C91.6073 98.2963 91.8786 98.6074 92.0889 98.9682C92.2991 99.3261 92.434 99.721 92.4937 100.153H90.6187ZM96.884 106.187C96.222 106.187 95.6496 106.046 95.1666 105.765C94.6865 105.481 94.3158 105.086 94.0544 104.58C93.7931 104.072 93.6624 103.482 93.6624 102.812C93.6624 102.136 93.7931 101.545 94.0544 101.039C94.3158 100.531 94.6865 100.136 95.1666 99.8545C95.6496 99.5704 96.222 99.4284 96.884 99.4284C97.5459 99.4284 98.1169 99.5704 98.597 99.8545C99.08 100.136 99.4521 100.531 99.7135 101.039C99.9749 101.545 100.106 102.136 100.106 102.812C100.106 103.482 99.9749 104.072 99.7135 104.58C99.4521 105.086 99.08 105.481 98.597 105.765C98.1169 106.046 97.5459 106.187 96.884 106.187ZM96.8925 104.781C97.1936 104.781 97.445 104.695 97.6468 104.525C97.8485 104.352 98.0004 104.116 98.1027 103.818C98.2078 103.519 98.2604 103.18 98.2604 102.799C98.2604 102.418 98.2078 102.079 98.1027 101.781C98.0004 101.482 97.8485 101.247 97.6468 101.073C97.445 100.9 97.1936 100.813 96.8925 100.813C96.5885 100.813 96.3328 100.9 96.1254 101.073C95.9209 101.247 95.7661 101.482 95.661 101.781C95.5587 102.079 95.5075 102.418 95.5075 102.799C95.5075 103.18 95.5587 103.519 95.661 103.818C95.7661 104.116 95.9209 104.352 96.1254 104.525C96.3328 104.695 96.5885 104.781 96.8925 104.781ZM103.101 97.3318V106.059H101.286V97.3318H103.101ZM106.967 106.166C106.47 106.166 106.02 106.038 105.617 105.782C105.216 105.524 104.898 105.144 104.662 104.644C104.429 104.141 104.313 103.525 104.313 102.795C104.313 102.045 104.433 101.421 104.675 100.924C104.916 100.424 105.237 100.051 105.638 99.8034C106.041 99.5534 106.483 99.4284 106.963 99.4284C107.33 99.4284 107.635 99.4909 107.879 99.6159C108.127 99.7381 108.325 99.8915 108.476 100.076C108.629 100.258 108.746 100.437 108.825 100.613H108.881V97.3318H110.692V106.059H108.902V105.011H108.825C108.74 105.193 108.619 105.373 108.463 105.552C108.31 105.728 108.109 105.874 107.862 105.991C107.618 106.107 107.32 106.166 106.967 106.166ZM107.543 104.721C107.835 104.721 108.082 104.641 108.284 104.482C108.489 104.32 108.645 104.095 108.753 103.805C108.864 103.515 108.919 103.176 108.919 102.786C108.919 102.397 108.865 102.059 108.757 101.772C108.649 101.485 108.493 101.264 108.288 101.107C108.084 100.951 107.835 100.873 107.543 100.873C107.244 100.873 106.993 100.954 106.788 101.116C106.584 101.278 106.429 101.502 106.324 101.789C106.219 102.076 106.166 102.409 106.166 102.786C106.166 103.167 106.219 103.504 106.324 103.796C106.432 104.086 106.587 104.313 106.788 104.478C106.993 104.64 107.244 104.721 107.543 104.721ZM115.167 106.187C114.494 106.187 113.915 106.051 113.429 105.778C112.946 105.502 112.574 105.113 112.312 104.61C112.051 104.105 111.92 103.507 111.92 102.816C111.92 102.143 112.051 101.552 112.312 101.043C112.574 100.535 112.941 100.139 113.416 99.8545C113.893 99.5704 114.453 99.4284 115.095 99.4284C115.527 99.4284 115.929 99.498 116.301 99.6372C116.676 99.7736 117.003 99.9795 117.281 100.255C117.562 100.531 117.781 100.877 117.937 101.295C118.093 101.71 118.172 102.195 118.172 102.752V103.251H112.645V102.126H116.463C116.463 101.864 116.406 101.633 116.292 101.431C116.179 101.23 116.021 101.072 115.819 100.958C115.62 100.842 115.389 100.784 115.125 100.784C114.849 100.784 114.605 100.847 114.392 100.975C114.182 101.1 114.017 101.269 113.897 101.482C113.778 101.693 113.717 101.927 113.714 102.186V103.255C113.714 103.579 113.774 103.859 113.893 104.095C114.015 104.33 114.187 104.512 114.409 104.64C114.63 104.768 114.893 104.832 115.197 104.832C115.399 104.832 115.584 104.803 115.751 104.747C115.919 104.69 116.062 104.605 116.182 104.491C116.301 104.377 116.392 104.238 116.454 104.073L118.133 104.184C118.048 104.587 117.873 104.94 117.609 105.241C117.348 105.539 117.01 105.772 116.595 105.94C116.183 106.105 115.707 106.187 115.167 106.187ZM121.172 102.275V106.059H119.356V99.5136H121.086V100.668H121.163C121.308 100.288 121.551 99.9866 121.892 99.765C122.233 99.5406 122.646 99.4284 123.132 99.4284C123.586 99.4284 123.983 99.5278 124.321 99.7267C124.659 99.9256 124.922 100.21 125.109 100.579C125.297 100.945 125.39 101.383 125.39 101.891V106.059H123.575V102.215C123.578 101.815 123.476 101.502 123.268 101.278C123.061 101.051 122.775 100.937 122.412 100.937C122.167 100.937 121.951 100.989 121.764 101.095C121.579 101.2 121.434 101.353 121.329 101.555C121.227 101.754 121.174 101.994 121.172 102.275ZM129.3 98.8531V97.3318H136.468V98.8531H133.796V106.059H131.972V98.8531H129.3ZM137.614 106.059V99.5136H139.429V106.059H137.614ZM138.526 98.6699C138.256 98.6699 138.025 98.5804 137.831 98.4014C137.641 98.2196 137.546 98.0023 137.546 97.7494C137.546 97.4994 137.641 97.2849 137.831 97.106C138.025 96.9241 138.256 96.8332 138.526 96.8332C138.796 96.8332 139.026 96.9241 139.216 97.106C139.41 97.2849 139.506 97.4994 139.506 97.7494C139.506 98.0023 139.41 98.2196 139.216 98.4014C139.026 98.5804 138.796 98.6699 138.526 98.6699ZM143.841 106.187C143.171 106.187 142.594 106.045 142.111 105.761C141.631 105.474 141.261 105.076 141.003 104.568C140.747 104.059 140.619 103.474 140.619 102.812C140.619 102.141 140.749 101.553 141.007 101.048C141.269 100.539 141.639 100.143 142.119 99.8588C142.6 99.5719 143.171 99.4284 143.832 99.4284C144.403 99.4284 144.903 99.5321 145.332 99.7395C145.761 99.9469 146.101 100.238 146.351 100.613C146.601 100.988 146.739 101.428 146.764 101.934H145.051C145.003 101.607 144.875 101.345 144.668 101.146C144.463 100.944 144.195 100.843 143.862 100.843C143.581 100.843 143.335 100.92 143.125 101.073C142.918 101.224 142.756 101.444 142.639 101.734C142.523 102.024 142.465 102.374 142.465 102.786C142.465 103.204 142.521 103.559 142.635 103.852C142.752 104.144 142.915 104.367 143.125 104.521C143.335 104.674 143.581 104.751 143.862 104.751C144.07 104.751 144.256 104.708 144.421 104.623C144.588 104.538 144.726 104.414 144.834 104.252C144.945 104.087 145.017 103.89 145.051 103.66H146.764C146.736 104.16 146.6 104.6 146.355 104.981C146.114 105.359 145.78 105.654 145.354 105.867C144.928 106.08 144.423 106.187 143.841 106.187ZM149.571 104.176L149.576 101.998H149.84L151.937 99.5136H154.02L151.204 102.803H150.773L149.571 104.176ZM147.927 106.059V97.3318H149.742V106.059H147.927ZM152.017 106.059L150.091 103.208L151.302 101.926L154.144 106.059H152.017ZM157.624 106.187C156.951 106.187 156.372 106.051 155.886 105.778C155.403 105.502 155.031 105.113 154.769 104.61C154.508 104.105 154.377 103.507 154.377 102.816C154.377 102.143 154.508 101.552 154.769 101.043C155.031 100.535 155.399 100.139 155.873 99.8545C156.35 99.5704 156.91 99.4284 157.552 99.4284C157.984 99.4284 158.386 99.498 158.758 99.6372C159.133 99.7736 159.46 99.9795 159.738 100.255C160.019 100.531 160.238 100.877 160.394 101.295C160.551 101.71 160.629 102.195 160.629 102.752V103.251H155.102V102.126H158.92C158.92 101.864 158.863 101.633 158.749 101.431C158.636 101.23 158.478 101.072 158.276 100.958C158.078 100.842 157.846 100.784 157.582 100.784C157.306 100.784 157.062 100.847 156.849 100.975C156.639 101.1 156.474 101.269 156.354 101.482C156.235 101.693 156.174 101.927 156.171 102.186V103.255C156.171 103.579 156.231 103.859 156.35 104.095C156.472 104.33 156.644 104.512 156.866 104.64C157.087 104.768 157.35 104.832 157.654 104.832C157.856 104.832 158.041 104.803 158.208 104.747C158.376 104.69 158.519 104.605 158.639 104.491C158.758 104.377 158.849 104.238 158.911 104.073L160.59 104.184C160.505 104.587 160.33 104.94 160.066 105.241C159.805 105.539 159.467 105.772 159.052 105.94C158.64 106.105 158.164 106.187 157.624 106.187ZM165.295 99.5136V100.877H161.353V99.5136H165.295ZM162.248 97.9454H164.063V104.048C164.063 104.215 164.089 104.346 164.14 104.44C164.191 104.531 164.262 104.595 164.353 104.632C164.447 104.668 164.555 104.687 164.677 104.687C164.762 104.687 164.847 104.68 164.933 104.666C165.018 104.649 165.083 104.636 165.129 104.627L165.414 105.978C165.323 106.007 165.195 106.039 165.031 106.076C164.866 106.116 164.666 106.14 164.43 106.149C163.992 106.166 163.609 106.107 163.279 105.974C162.953 105.84 162.698 105.633 162.516 105.352C162.335 105.07 162.245 104.715 162.248 104.286V97.9454Z" fill="black"/>
</g>
<defs>
<clipPath id="clip0_139_3392">
<rect width="300.207" height="287.625" fill="white"/>
</clipPath>
</defs>
</svg>
