<svg width="24" height="24" viewBox="0 0 24 24" fill="none" xmlns="http://www.w3.org/2000/svg">
<path d="M4 17.17V4H20V10H22V4C22 2.9 21.1 2 20 2H4C2.9 2 2.01 2.9 2.01 4L2 22L6 18H15V16H5.17L4 17.17Z" fill="#FF512C"/>
<path d="M22.5 16H20.3L22 12H17V18H19V23L22.5 16Z" fill="#FF512C"/>
<path d="M14.1278 8.44602L13.8864 9.26989H9.28409L9.52557 8.44602H14.1278ZM11.9688 14L9.36932 10.8182L9.35511 10.2216H10.6477C10.9839 10.2216 11.2704 10.1742 11.5071 10.0795C11.7438 9.98248 11.925 9.83807 12.0504 9.64631C12.1759 9.45218 12.2386 9.20833 12.2386 8.91477C12.2386 8.48153 12.1084 8.14181 11.848 7.8956C11.5876 7.64702 11.1875 7.52273 10.6477 7.52273H9.28409L9.52557 6.72727H10.6477C11.2254 6.72727 11.6989 6.82315 12.0682 7.01491C12.4399 7.20431 12.7145 7.46473 12.892 7.79616C13.072 8.12524 13.1619 8.49811 13.1619 8.91477C13.1619 9.29119 13.0791 9.63802 12.9134 9.95526C12.75 10.2701 12.4872 10.5234 12.125 10.7152C11.7652 10.907 11.2893 11.0028 10.6974 11.0028H10.6761L13.0767 13.9432V14H11.9688ZM14.1278 6.72727L13.8864 7.55114L10.2642 7.52273L10.5057 6.72727H14.1278Z" fill="#FF5130"/>
</svg>
