<svg width="411" height="486" viewBox="0 0 411 486" fill="none" xmlns="http://www.w3.org/2000/svg">
<g opacity="0.05">
<path d="M-119.993 562.082C-112.049 557.045 -104.609 551.886 -96.9908 546.877C-26.7102 500.611 43.4759 454.328 113.568 408.028C114.698 407.11 116.093 406.58 117.547 406.517C119.002 406.454 120.438 406.861 121.643 407.677C240.472 472.739 359.288 537.793 478.09 602.84C479.566 603.443 480.802 604.516 481.604 605.894C482.407 607.271 482.732 608.875 482.529 610.457C481.2 688.666 479.877 766.862 478.562 845.044C478.312 858.289 477.209 871.48 476.513 884.688C476.457 885.642 476.299 886.593 476.119 888.154C470.247 882.743 464.77 876.919 459.729 870.727C438.297 845.456 419.654 818.029 399.669 791.632C349.73 725.598 299.707 659.622 249.6 593.705C248.936 592.793 248.058 592.058 247.043 591.565C246.028 591.073 244.907 590.838 243.78 590.882L65.4643 577.633C5.20635 573.166 -55.0992 568.88 -115.352 563.741C-116.83 563.503 -118.555 563.907 -119.993 562.082Z" fill="#004D61"/>
<path d="M307.953 486.658L141.121 395.314C136.293 392.671 136.213 392.627 140.684 389.577C177.112 364.85 213.539 340.157 249.964 315.497C259.363 309.129 268.798 302.885 278.082 296.35C278.996 295.578 280.145 295.139 281.341 295.106C282.537 295.073 283.709 295.448 284.664 296.168C349.652 331.75 414.639 367.332 479.627 402.914C480.79 403.383 481.769 404.218 482.415 405.293C483.062 406.367 483.342 407.623 483.212 408.871C482.503 441.52 481.997 474.177 481.429 506.852L480.348 575.135C480.212 580.973 480.251 580.995 474.944 578.089L307.953 486.658Z" fill="#5BD0D7"/>
<path d="M482.557 161.691C487.2 235.339 483.097 308.762 482.715 382.304C481.305 382.317 479.934 381.842 478.836 380.958C421.084 349.338 363.345 317.725 305.62 286.119C302.228 284.262 301.979 283.296 305.333 281.243C363.98 241.573 422.582 201.861 481.137 162.107C481.601 161.937 482.075 161.798 482.557 161.691Z" fill="#FF5130"/>
</g>
</svg>
